<svg xmlns="http://www.w3.org/2000/svg" fill="none" viewBox="0 0 284 284" class="logo-size">
  <path fill="#fff" fill-rule="evenodd" d="M284 0H0v284h284V0Zm-70.5 176.6c.1.5.4.8.7 1.2-2.1-1.3-4-2.7-6-4.2l-3.8-2.7c.2.6 1.9 1.8 3.6 3 1.8 1.2 3.5 2.4 3.3 2.8l-5.2-3.5-4-2.8c-.4.2.2 1 .7 1.7.3.4.5.7.3.7.2.1 1.7 1.2 1.5 1.4l2.3 2.1c2.8 2.3 7 5.9 6.5 6.6-.3.3-1.7-.8-2.6-1.6a8 8 0 0 0-.9-.6l1 1.1a29 29 0 0 1-3.5-2.5l-2.4-1.9c.3.5.6 1 1.1 1.3-1 0-3-1.7-4.5-3.2l-2.2-1.9c-.2 0-.6-.5-1-.9-.9-.6-1.8-1.5-2-1.4v.4c-.7-.4-1.5-1-2.1-1.6l-.6-.5c-.7-.9-2-2.4-2.7-2.1l1.8 1.7c-.9.2-1.7-.7-2.5-1.6-1-1.1-2.1-2.3-3.6-1.7.2-.1 10.6 9.8 11 10.5l-.4-.2-.3-.1c.5 1.5 2 3 3.5 4.2l1.5 1.4-4-3c-2-1.6-4-3.2-6-4.3l-1-.9c-.7-.5-1.1-1-2-.5-.2.2-3-1.8-3.4-2.1 0 .5 0 1 .3 1.5l-2.7-2.4a23.7 23.7 0 0 0-5.6-4.3l.7 1a9.7 9.7 0 0 1 1.2 1.8l.4.9a292.6 292.6 0 0 1-13.3-11.2c-1.2-1.1-5.5-5-6.2-3.7a89.2 89.2 0 0 0-13.7-10.4 58.6 58.6 0 0 0 4.8 4.4c-.4.2-3.9-2.8-5-3.7l-.3-.3-5.9-5.2-2.4-2.2-1.2-1-5.4 4.4-1 .8-.7.5-1.2 1a44.3 44.3 0 0 1-5.6 4.8c-1.3.9-2.5 2-3.7 3l-3.5 3 .1-.4c.1-.1.2-.3.1-.5l-.7.5-1.2 1-10 8.8-2.9 2.5-4.7 4.1-4.6 4a245 245 0 0 1-3.7 3.2c-1.3 1.2-.6.8.3.4 1.1-.5 2.4-1.1 1 .3l-1.5 1.1-1.1.9-.7.5c-.4.4-1 .7-1.5 1l-.8.4c0-.9 0-.9-.7-1.1h-.1c-.7-.3-1.3-.8-1.7-1.4a22.7 22.7 0 0 1-2.7-6.7c.4-1.7 0-3.3-.6-5-.6-1.5-.6-3-.7-4.6L77 161c-.1-1 .6-1.8 1.3-2.5l.4-.3.7-.8c1.3-1.5 2.7-3 4.3-4.2l.7-.6c1-.8 1.9-1.6 3-2 .8-.4 1.3-1 1.9-1.7a13.2 13.2 0 0 1 2.1-2l1.7-1.6c.7-.7 1.5-1.3 2.3-1.8.9-.6 1.7-1.1 2.4-1.9 1-1 9.2-7.9 13-11l1.8-1.5 3.5-3 4.5-3.8-.7-.6a124 124 0 0 1-3.5-3c-2.3-2.1-4.7-4.2-7-6l-6.3-5.5-3.4-3c-2.8-2.4-5.5-4.4-8.2-6.4a142.1 142.1 0 0 1-8.6-6.6c-3-2.3-7.2-5.6-7.7-8.7-.3-1.7 1.4-3.6 2.8-5l1.4-1.7s5.2-8.2 6.8-7.5h.7c.4-.2 1-.3 1.7 0 1.4.5 2.6 1.6 3.6 2.7l1 1c4.2 3.9 8.5 7.6 12.7 11.3l1.6 1.4 14.7 12.4c4.8 4 9.6 8 14.4 12.2l.4-.3 1.3-1 3.3-2.4 2.8-2a431 431 0 0 1 6.7-4.8h.1a678.2 678.2 0 0 0 2.5-1.8l2.2-1.5 5.7-4 1.5-1a1396 1396 0 0 1 15.6-10l1-.7c.4-.4 1-.8 1.6-1 .3 0 .6-.3 1-.5l.2-.2a158.7 158.7 0 0 1 10.7-6.2l8.3-4.5.6-.3c.8-.4 1.6-.8 2.7-.9-.5.7-1 1.1-1.6 1.5l-.8.7c.5.2 1.1-.1 1.7-.3.3-.2.6-.4.7-.2.1.2 0 .6-.2.8 0 .1-.1.2 0 .2l.4-.2c.4-.3.7-.5 1.3-.5-.4.5-.8.9-1.3 1.2l-.5.4a4 4 0 0 0 1.1-.5c.5-.2 1-.5 1.7-.6-.7.7-1.5 1-2.2 1.4l-1.4.8-1.9 1-.7.4h-.1c-.1.7-.6 1-1 1.3l-.7.5c1 0 1.7-.4 2.4-.9.2.1.1.3 0 .4v.3c1.3-.5 2.6-1.2 3.8-2 1.6-.8 3.1-1.7 4.8-2.2l-1 .7a81.5 81.5 0 0 1-3.5 2.2l-1.6 1-.9.5a8 8 0 0 0-1.5.8l-.2.1c-.3.2-.6.3-.4.7.3.4.8.3 1.2 0l4-2.2h.4a1.2 1.2 0 0 0 .2 0c-.3.7-.8 1.1-1.3 1.6-.4.3-.8.6-1 1a3 3 0 0 0 1.2-.5l.8-.4 1-.3c.8-.3 1.7-.6 2.7-.6.5 0 1-.2 1.5-.4l1.2-.5-.6.4a28.7 28.7 0 0 0-1.8 1.3c-.3.1-.5.2-.4.7.2.5.6.4.9.2h.2l.9-.5.3-.2.4.1c0 .2 0 .3-.2.3-.7.2-1.2.6-1.8 1l-.4.3-1.5 1.3c-.2 0-.3.2-.5.3.1.2.2.1.4 0 .2 0 .3-.1.4.2 0 .3-.3.4-.5.5h-.1a33 33 0 0 0-6 3.8 61.4 61.4 0 0 1-8.4 5.4l-3.7 2.3-.2.1v.1c-.3 0-.5.2-.3.5s.4.3.6.1h.1c1.9-1 3.8-2 5.4-3.3.5-.5 1.2-.8 1.8-1 .5-.3 1-.5 1.4-.9a207.9 207.9 0 0 1 8.2-5c.8-.6.9-.6 1.8-.2l-.6.5c-.2 0-.4.1-.5.3a29.1 29.1 0 0 1-6.2 5c-.4.3-.8.6-1 1.1 1.7-.8 3.3-1.9 5-3l4.3-2.5c-.7.8-1.5 1.3-2.4 1.8l-1.3.8-2.2 1.3c-1.3.8-2.6 1.6-3.7 2.6-.2.3-.5.3-.8.4l-.8.4c-1 .8-2 1.4-3.1 2a22.7 22.7 0 0 0-4 2.7 13 13 0 0 0-1.4 1c-.2.3-.4.5-.7.5-1.1.3-2 1-2.8 1.7-.5.4-1 1-1.7 1.2l-1.3.9-1.5 1c-1 .4-1.9 1-2.8 1.6l-.5.4-2.6 2-2.4 1.7-1 .6c-.6.3-1.3.7-1.8 1.3-.9.4-1.7 1-2.5 1.6l-1.2 1a80.5 80.5 0 0 0-6.6 4.8l-.6.6c-.8 0-1.3.5-1.8 1a4 4 0 0 1-1.2 1c.4.2-.8.8-1.4 1l-.2.2c-.4.3-1 .5-1.4.6-.5.2-1 .3-1.5.8-.3.4-1 .8-1.6 1.2l9.3 8c8.6 7.2 17.2 14.4 25.4 21.9 6 5.4 12.4 10.5 18.8 15.6 2.3 1.8 6.8 5.8 10.4 9l5.1 4.6c-.5.4-6.5-4.2-7.3-4.9Zm-4.2 24.9c-2.3.2-4.6.5-.9 1 1.8.1 1.2.3.2.6s-2.3.6-2.3 1.3c.7 0 1.6.7 2.3 1.3l1 .8-1.5.7c-.8.3-1.5.6-1.1.6 1.5.2.7.4-.3.6-1 .2-2 .4-1.9.8.5.9.4 1.2.4 1.4 0 .3 0 .3 1 .8s.8 2.3 0 2.5c-.3 0-.6.2-.9.4-.3.2-.6.3-1 .3-.1.8-.8 1.1-1.7 1.3h-.2c-1.9.7-4 1.5-6 1.7h-.7c-.6.2-.8.2-1.8 0-1.5.2-3.6.3-5 .2-1.3.3-18.9 1.3-20.4 1.1-1.2.3-8.2.5-9.7.3-1.4.3-13.7.6-15 .5-1.4.2-3.7.3-5.2.1a85.2 85.2 0 0 1-51.3-.9c-1.3.2-3.2 0-4.4-.1a15 15 0 0 1-5.7-.4c-.6-.1-1-.2-1.2-.8l-.2-.6c-.1-.4-.2-.6-.6-.8-.6-.3-.7-1.8-.2-2.3-.4-.8-.3-2-.2-3 0-1.2.1-2.4-.1-3.4-.2-.8 0-1 .3-1.4l.6-.8c-.7 0-.9-1.2-.8-1.5.2-.5.2-1 .2-1.3 0-.6 0-1 .6-1.7l.4-.6c.1-.4.3-.6 1-.6l2.3.1c1.7-.1 3.8 0 5.4.2 3.2-.2 18 .3 21.2.8 3-.2 6.6 0 9.7.4l31.1-.4 29.8-.3 2.8-.2c2.5-.2 5-.4 7.3-.1 2.4-.4 5.4-.2 7.7.3 1 0 1.7-.3 2.4-.4.8-.2 1.6-.4 2.7-.4.1-.1 1.7.2 2.8.4l.9.1c.2-.4 2-.2 3.2 0h.6c.7 0 5.6.7 5 1l-2.6.4Z" clip-rule="evenodd"/>
</svg>