<svg xmlns="http://www.w3.org/2000/svg" data-name="circles neon" viewBox="0 0 609.13 609.13">
  <path d="M309.52 590.11c-41.26 0-76.76-7.52-97.09-15.72-74.83-30.25-107.89-49.36-114.01-65.92-3.27-8.84.78-16.7 5.49-25.81 10.09-19.56 23.9-46.34-25.83-103.98-34.33-39.8-48.7-68.11-45.24-89.18 3.37-20.44 22.66-31.81 45-44.97 22.41-13.21 47.78-28.17 60.01-55.61 59.42-133.2 87.42-167.8 112.2-167.8 3.71 0 7.35.76 11.01 2.1 7.91 2.88 15.77 8.4 24.85 14.77 19.43 13.62 42.82 30 79.64 30 7.61 0 15.82-.71 24.66-2.27a136.4 136.4 0 0 1 23.78-2.08c46.14 0 93.24 22.9 127.24 63.09 46.02 54.37 62.33 131.66 45.9 217.67-12.52 65.7-36.84 119.39-72.22 159.55-29.61 33.62-66.94 57.81-110.94 71.95-32.1 10.3-64.77 14.21-94.46 14.21ZM78.42 378.39c49.93 57.86 36.03 84.81 25.88 104.47-4.64 9.03-8.67 16.82-5.47 25.44 6.1 16.43 39.06 35.45 113.79 65.65 34.86 14.11 114.58 26.12 191.21 1.51 43.92-14.09 81.18-38.26 110.74-71.8 35.33-40.11 59.59-93.7 72.12-159.35 16.38-85.84.12-163.01-45.8-217.28-33.93-40.06-80.88-62.94-126.9-62.94-7.96 0-15.87.68-23.68 2.08-51.83 9.28-81.1-11.3-104.66-27.81-9.06-6.35-16.9-11.84-24.73-14.7a27.98 27.98 0 0 0-9.69-1.78c-32.13 0-64.33 58.25-112.94 167.24-12.3 27.56-37.74 42.58-60.2 55.81-22.24 13.11-41.45 24.44-44.8 44.65-3.44 20.92 10.92 49.15 45.14 88.82Z" style="fill:url(#a)"/>
  <path d="M311.2 589.94c-44.58 0-83.15-8.84-104.61-18.14-71.73-31-103.71-50.66-110.35-67.8-3.59-9.25.1-17.41 4.34-26.83 8.74-19.41 20.71-45.97-26.22-101.95-32.5-38.74-46.05-66.67-42.67-87.94 3.37-21.22 22.73-33.3 45.14-47.29 21.73-13.55 46.34-28.91 58.69-55.79C203.57 36.03 230.39 13.62 258.79 22.78c8.2 2.66 16.33 7.98 25.73 14.16 19.19 12.57 42.31 27.73 77.95 27.73 7.32 0 15.18-.66 23.66-2.08 7.69-1.32 15.5-1.95 23.34-1.95 47.29 0 95.73 23.39 130.74 64.31 46.68 54.52 63.72 131.81 47.97 217.58-10.5 58.55-30.78 107.81-60.33 146.51-32.52 42.8-75.78 72.56-128.59 88.45-29.91 8.98-60.16 12.45-88.06 12.45ZM135.79 184.33l.27.12c-12.4 27.05-37.11 42.45-58.91 56.05-22.26 13.92-41.53 25.93-44.85 46.88-3.35 21.07 10.18 48.85 42.55 87.45 47.15 56.27 35.08 83.03 26.3 102.59-4.2 9.3-7.84 17.36-4.32 26.37 6.57 16.97 38.45 36.52 110.01 67.48 34.79 15.04 114.7 28.95 192.24 5.64 52.71-15.84 95.87-45.53 128.3-88.26 29.47-38.6 49.73-87.79 60.23-146.22 15.7-85.59-1.3-162.69-47.83-217.09-34.91-40.77-83.18-64.09-130.3-64.09-7.79 0-15.58.64-23.24 1.93-8.52 1.44-16.4 2.1-23.78 2.1-35.82 0-58.98-15.21-78.27-27.86-9.38-6.13-17.46-11.45-25.59-14.06a33.03 33.03 0 0 0-10.23-1.73c-24.9 0-52.71 33.08-112.31 162.82l-.27-.12Z" style="fill:url(#b)"/>
  <path d="M312.45 590.16c-50.29 0-91.77-11.77-111.72-20.92-119.92-55.03-113.77-70.95-103.61-97.32 17.67-45.82-6.79-75.95-26.44-100.17-30.66-37.67-43.41-65.21-40.13-86.67 3.39-22.02 22.83-34.84 45.31-49.68 21.04-13.87 44.9-29.61 57.35-55.93l.34.17-.34-.17C193.12 52.74 221.09 20.9 246.65 20.9c3.3 0 6.57.54 9.84 1.47 8.52 2.39 16.94 7.54 26.71 13.5 22.8 13.97 51.17 31.27 98.83 23.61a140.17 140.17 0 0 1 22.9-1.83c48.51 0 98.29 23.88 134.3 65.53 47.02 54.4 64.77 131.61 50 217.48-10.33 60.11-31.13 110.55-61.77 149.93-33.77 43.38-78.49 73.17-132.94 88.5-28.51 8.03-56.45 11.09-82.08 11.09Zm-65.8-568.48c-25.25 0-53 31.66-112.77 158.13-12.52 26.49-36.48 42.28-57.62 56.23-22.34 14.75-41.65 27.49-44.97 49.17-3.25 21.22 9.45 48.56 39.97 86.06 44.41 54.69 34.52 80.35 26.56 100.93-10.01 25.95-16.04 41.6 103.25 96.36 29.98 13.74 109.01 33.5 193.26 9.79 54.27-15.28 98.88-44.97 132.55-88.25 30.54-39.26 51.29-89.58 61.62-149.59 14.72-85.62-2.98-162.62-49.85-216.85C502.81 82.18 453.2 58.4 404.93 58.4c-7.64 0-15.26.59-22.78 1.81a143.43 143.43 0 0 1-22.88 1.93c-34.6 0-57.47-13.99-76.47-25.61-9.72-5.93-18.09-11.06-26.51-13.43a35.2 35.2 0 0 0-9.64-1.42Z" style="fill:url(#c)"/>
  <path d="M313.21 590.19c-47.41 0-90.77-10.2-118.31-23.53-54.25-26.25-84.18-44.97-97.15-60.67-12.11-14.7-8.44-26.02-4.22-39.11 6.59-20.46 14.8-45.9-26.56-98.58-28.83-36.62-40.77-63.75-37.57-85.35 3.39-22.85 23.83-37.08 45.48-52.17 20.36-14.19 43.46-30.27 55.98-56.01l.41.19-.41-.19C163.43 107.9 186.4 67.98 205.37 45.4c17.28-20.56 31.86-27.61 48.85-23.46 8.82 2.12 17.53 7.08 27.59 12.79 22.51 12.75 50.51 28.69 96.12 21.61 7.4-1.12 14.89-1.69 22.44-1.69 49.66 0 100.83 24.36 137.84 66.75 47.53 54.47 66.04 131.66 52.07 217.36-10.03 61.57-31.3 113.19-63.18 153.37-35.01 44.04-81.18 73.83-137.26 88.52-25.54 6.72-51.64 9.55-76.64 9.55ZM245.26 21.73c-13.09 0-25.22 7.64-39.18 24.24-18.92 22.53-41.87 62.38-74.39 129.17-12.65 25.95-35.84 42.12-56.3 56.37-22.41 15.6-41.75 29.1-45.09 51.54-3.17 21.36 8.72 48.24 37.4 84.64 41.65 53.1 33.38 78.78 26.71 99.44-4.32 13.38-7.74 23.95 4.05 38.26 12.87 15.6 42.73 34.23 96.83 60.43 41.94 20.31 120.68 33.3 194.31 13.94 55.88-14.65 101.9-44.34 136.77-88.23 31.81-40.04 53-91.5 63.04-152.93 13.89-85.43-4.52-162.36-51.88-216.63-36.84-42.16-87.77-66.43-137.16-66.43-7.5 0-14.94.56-22.29 1.71-46.02 7.05-74.12-8.91-96.7-21.73-10.01-5.69-18.68-10.59-27.34-12.72-3-.71-5.91-1.08-8.76-1.08Z" style="fill:url(#d)"/>
  <path d="M314.09 590.65c-55.54 0-101.81-14.77-125.05-26.59-111.18-56.47-106.42-74.63-99.22-102.12 5.4-20.53 12.08-46.1-26.54-97.17-27.05-35.52-38.18-62.21-35.06-83.96 3.42-23.68 23.95-38.8 45.68-54.76 19.7-14.48 42.02-30.88 54.62-56.06C184.25 58.91 213.13 20.65 243.87 20.65c2.66 0 5.35.29 8.06.86 9.13 1.85 18.14 6.57 28.57 12.03 18.36 9.65 40.43 21.22 72.41 21.22 6.54 0 13.5-.49 20.95-1.59a152.3 152.3 0 0 1 21.88-1.56c50.9 0 103.49 24.85 141.45 67.99 48.07 54.52 67.29 131.67 54.15 217.26-9.69 63.01-31.42 115.74-64.65 156.78-36.16 44.65-83.79 74.47-141.58 88.57a299 299 0 0 1-71.02 8.42Zm-184.6-420.16c-12.74 25.39-35.16 41.87-54.96 56.42-22.49 16.53-41.89 30.81-45.24 54.08-3.1 21.43 7.96 47.85 34.81 83.16 38.97 51.46 32.18 77.32 26.74 98.07-7.05 27-11.74 44.82 98.68 100.93 32.52 16.5 110.28 38.87 195.34 18.07 57.55-14.06 104.98-43.75 140.99-88.23 33.1-40.87 54.76-93.46 64.4-156.25 13.11-85.28-6.03-162.14-53.86-216.43-43.23-49.05-105.42-74.29-162.4-66.04-44.02 6.4-71.76-8.08-94-19.75-10.35-5.42-19.31-10.13-28.27-11.96-2.73-.54-5.4-.83-8.01-.83-13.62 0-26.15 7.64-40.53 24.36-18.77 21.88-41.53 60.26-73.7 124.42Z" style="fill:url(#e)"/>
  <path d="M315.06 590.94c-52.27 0-100.61-12.86-131.88-29.44-106.93-56.76-103.05-75.71-97.19-104.37 4.25-20.68 9.52-46.43-26.41-95.82-60.6-82.72-26.3-109.3 13.43-140.09 19.92-15.45 40.5-31.4 53.2-55.93C182.06 57.18 210.94 20.43 242.43 20.43c2.39 0 4.79.22 7.2.61 9.45 1.59 18.77 6.08 29.59 11.31 18.02 8.69 39.72 19.14 70.43 19.14 6.3 0 12.99-.44 20.12-1.44 28.64-3.91 59.06.1 87.99 11.79 29.22 11.79 56.35 31.15 78.42 55.96 48.58 54.64 68.53 131.76 56.2 217.19-9.3 64.38-31.54 118.28-66.09 160.2-37.3 45.29-86.4 75.1-145.9 88.62a296.17 296.17 0 0 1-65.33 7.13ZM126.73 165.55l.54.27c-12.79 24.78-34.42 41.55-53.51 56.35-19.73 15.28-38.33 29.69-44.12 50.15-6.42 22.68 3.42 50.73 30.91 88.26 36.25 49.85 30.93 75.88 26.64 96.8-5.76 28.12-9.57 46.7 96.58 103.05 43.87 23.29 121.65 39.19 196.34 22.22 59.25-13.48 108.13-43.17 145.26-88.23 34.4-41.75 56.52-95.46 65.8-159.62 12.31-85.03-7.55-161.81-55.91-216.16-21.92-24.68-48.9-43.92-77.95-55.66-21.58-8.72-44.04-13.16-65.92-13.16-7.23 0-14.38.49-21.46 1.47-42.02 5.88-69.31-7.28-91.24-17.82-10.72-5.18-19.97-9.64-29.25-11.18-17.11-2.95-31.86 4.25-49.14 23.9-18.7 21.24-41.21 58.13-73.02 119.66l-.54-.27Z" style="fill:url(#f)"/>
  <path d="M315.09 591.6c-56.83 0-107.1-15.75-137.77-32.69C74.58 502.1 77.59 482.3 82.13 452.32c3.17-20.87 7.1-46.83-26.27-94.51-57.13-81.64-23.1-109.42 16.33-141.58 19.14-15.62 38.97-31.79 51.68-55.69l.61.32-.61-.32C179.88 55.4 208.74 20.22 241.11 20.22c2.05 0 4.13.15 6.23.41 9.79 1.3 19.46 5.54 30.67 10.48 21.34 9.38 47.92 21.09 87.67 15.82 7.15-.93 14.36-1.39 21.58-1.39 53.47 0 107.45 25.42 147.93 70.49 49.1 54.74 69.77 131.83 58.25 217.09-8.91 65.74-31.64 120.8-67.53 163.62-38.01 45.36-89.97 76-150.24 88.67a297.53 297.53 0 0 1-60.57 6.2ZM241.14 21.58c-31.76 0-60.3 34.98-116.04 139.6-12.87 24.15-32.79 40.41-52.05 56.1C53.54 233.2 35.14 248.24 29 269.02c-6.78 23.05 2.1 51.02 27.98 88.01 33.69 48.12 29.71 74.39 26.51 95.48-4.47 29.42-7.42 48.85 94.51 105.18 41.01 22.68 117.41 43.21 197.36 26.34 59.99-12.58 111.67-43.07 149.46-88.18 35.74-42.63 58.37-97.46 67.24-162.94 11.47-84.84-9.08-161.55-57.91-215.97-40.21-44.8-93.85-70.05-146.9-70.05-7.15 0-14.3.47-21.39 1.39-40.16 5.25-66.94-6.47-88.43-15.94-11.11-4.88-20.68-9.11-30.3-10.35a45.38 45.38 0 0 0-6-.41Z" style="fill:url(#g)"/>
  <path d="M315.97 592.16c-59.47 0-112.5-17.46-144.51-35.84-98.68-56.67-96.58-77.42-93.39-108.79 2.12-21.05 4.78-47.24-25.93-93.24-53.78-80.49-19.97-109.52 19.22-143.14 18.41-15.8 37.43-32.13 50.19-55.34C177.74 53.54 206.57 19.95 239.99 19.95c1.66 0 3.34.07 5.03.24 10.15.98 20.16 4.98 31.79 9.59 20.92 8.35 47.02 18.65 84.79 14.01 61.35-7.57 125.81 18.78 172.56 70.46 49.64 54.83 71.07 131.88 60.33 216.94-8.47 67.09-31.69 123.29-68.97 167.07-39.23 46.07-92.68 76.73-154.57 88.72a290.95 290.95 0 0 1-54.98 5.18ZM122.22 156.18l.66.37c-12.89 23.46-32 39.89-50.54 55.76C33.74 245.46.37 274.1 53.42 353.47c31.03 46.44 28.34 72.93 26.17 94.22-3.12 30.78-5.2 51.15 92.65 107.32 41.36 23.76 118.21 46.02 198.41 30.47 61.55-11.89 114.67-42.41 153.69-88.19 37.11-43.55 60.18-99.51 68.63-166.28 10.69-84.62-10.6-161.23-59.94-215.72-46.43-51.32-110.4-77.51-171.24-69.97-38.23 4.76-64.45-5.69-85.55-14.11-11.5-4.59-21.43-8.55-31.37-9.5a53.27 53.27 0 0 0-4.86-.25c-32.74 0-61.26 33.38-117.14 135.09l-.66-.37Z" style="fill:url(#h)"/>
  <path d="M315.55 592.99c-60.94 0-115.28-18.6-149.95-39.23-94.73-56.44-93.48-79.37-91.72-111.08 1.17-21.22 2.64-47.66-25.44-91.87C-2 271.39 31.67 241.04 70.63 205.89c17.63-15.89 35.84-32.33 48.58-54.81l.73.41-.73-.41c55.77-98.37 85.67-131.43 120.05-131.43 1.15 0 2.3.05 3.44.12 10.57.63 20.99 4.37 33.06 8.69 20.48 7.28 46.02 16.36 81.76 12.21a175.4 175.4 0 0 1 20.26-1.17c56.01 0 112.84 26.39 155.35 72.97 50.17 54.93 72.34 131.93 62.38 216.82-7.89 67.38-32.23 126.37-70.39 170.51-40.45 46.78-95.41 77.47-158.91 88.77a290.07 290.07 0 0 1-50.66 4.42ZM238.79 21.32c-29.25 0-56.86 22.53-118.11 130.59-12.89 22.71-31.2 39.23-48.92 55.23C33.35 241.77.17 271.7 49.85 349.93c28.37 44.65 26.88 71.39 25.71 92.85-1.73 31.13-2.95 53.61 90.92 109.52 43.77 26.1 119.14 48.98 199.44 34.62 63.14-11.23 117.75-41.72 157.94-88.18 37.94-43.92 62.16-102.57 69.99-169.63 9.89-84.4-12.11-160.91-61.94-215.5-47.32-51.81-112.33-78.47-174.19-71.27-36.23 4.18-61.89-4.93-82.52-12.31-11.94-4.27-22.26-7.96-32.59-8.59a61.07 61.07 0 0 0-3.81-.12Z" style="fill:url(#i)"/>
  <path d="M315.97 593.75c-63.28 0-120.19-20.39-156.23-42.6-90.89-56.05-90.58-80.12-90.16-113.43.27-21.39.61-48-24.85-90.4C-2.36 268.93 31.18 237.16 70 200.4c16.82-15.92 34.2-32.38 46.9-54.05 55.98-95.62 85.93-127.06 121.7-127.06.61 0 1.2.02 1.81.05 10.96.29 21.8 3.74 34.38 7.72 20.97 6.64 44.7 14.11 78.66 10.5 6.47-.71 12.99-1.05 19.51-1.05 57.35 0 115.65 26.88 159.18 74.19 50.71 55.1 73.61 132.08 64.43 216.72-7.42 68.7-32.27 128.86-71.85 173.95-41.7 47.53-98.15 78.22-163.23 88.77a284.65 284.65 0 0 1-45.51 3.61ZM117.68 146.8l.78.47c-12.82 21.9-30.3 38.45-47.19 54.44-38.26 36.23-71.29 67.53-24.98 144.68 25.73 42.82 25.39 69.73 25.12 91.36-.42 32.72-.71 56.35 89.31 111.84 44.19 27.25 119.97 51.86 200.46 38.75 64.67-10.47 120.73-40.97 162.16-88.18 39.33-44.8 64.01-104.61 71.41-172.92 9.11-84.13-13.62-160.57-63.99-215.31-43.17-46.92-100.95-73.58-157.81-73.58-6.47 0-12.89.34-19.31 1.03-34.33 3.68-59.28-4.2-79.42-10.57-12.43-3.93-23.17-7.33-33.86-7.64l-1.73-.02c-35.01 0-64.57 31.2-120.16 126.15l-.78-.47Z" style="fill:url(#j)"/>
  <path d="M315.55 594.7c-56.74 0-114.87-16.28-161.67-46.14-87.18-55.61-87.84-80.96-88.77-116.04-.59-22.61-1.27-48.24-24.1-88.72-43.73-77.47-10.25-110.69 28.51-149.17 15.97-15.87 32.47-32.25 45.05-53.05C170.68 48.83 200.71 19.05 238.08 18.9h.27c11.33 0 22.58 3.12 35.62 6.72 20.41 5.64 43.6 12.01 75.39 8.81 64.38-6.66 132.45 21.29 181.76 74.46 51.24 55.27 74.88 132.2 66.48 216.62-6.91 69.95-32.25 131.27-73.29 177.39-42.97 48.29-100.93 79-167.58 88.82-13.52 2-27.32 2.98-41.18 2.98ZM116.29 142.6c-12.72 21.02-29.32 37.5-45.36 53.42-38.19 37.92-71.17 70.65-28.2 146.8 23.1 40.92 23.8 67.94 24.37 89.65.9 34.47 1.56 59.38 87.86 114.43 57.84 36.89 133.2 52.91 201.49 42.87 66.19-9.74 123.73-40.23 166.41-88.18 40.74-45.8 65.92-106.76 72.8-176.27 8.32-83.86-15.11-160.23-65.99-215.06-44.19-47.66-103.47-74.8-161.6-74.8-6.2 0-12.35.32-18.51.93-32.37 3.27-55.54-3.15-76.12-8.86-12.87-3.54-24.02-6.61-35.08-6.61h-.27c-36.55.12-66.14 29.71-121.8 121.7Z" style="fill:url(#k)"/>
  <path d="M315.65 595.68c-58.5 0-119.04-17.65-167.63-49.68-83.62-55.17-85.28-81.91-87.55-118.94-1.39-22.63-2.95-48.29-23.19-86.77-40.33-76.68-6.81-111.52 31.98-151.85 15.06-15.65 30.61-31.81 42.99-51.59l.91.56-.91-.56c54.52-87.19 85.7-117.05 123.49-118.39 11.96-.37 23.83 2.39 37.55 5.64 19.78 4.69 42.06 10.03 71.97 7.18a195.9 195.9 0 0 1 17.82-.81c60.11 0 121.41 27.86 167.02 76.64 51.81 55.42 76.15 132.3 68.58 216.51-6.42 71.17-32.28 133.69-74.78 180.83-44.24 49.12-103.68 79.83-171.88 88.87a277.86 277.86 0 0 1-36.38 2.37ZM238.16 20.56c-.78 0-1.56.03-2.32.05-36.96 1.29-67.7 30.91-121.78 117.36-12.5 19.97-28.12 36.23-43.26 51.93-38.23 39.74-71.24 74.07-31.61 149.41 20.43 38.87 22.02 64.77 23.44 87.62 2.22 36.4 3.83 62.69 86.57 117.26 58.37 38.5 134.1 56.05 202.54 47.02 67.7-8.96 126.68-39.45 170.6-88.18 42.17-46.8 67.82-108.91 74.19-179.61 7.55-83.59-16.62-159.89-67.99-214.84C483.35 60.22 422.61 32.6 363.08 32.6c-5.88 0-11.77.27-17.62.83-30.18 2.78-52.71-2.54-72.66-7.25-12.67-3-23.73-5.62-34.64-5.62Z" style="fill:url(#l)"/>
  <path d="M315.4 596.73c-60.13 0-122.95-19.04-173.24-53.34-80.23-54.71-82.86-83.03-86.5-122.24-2.1-22.53-4.47-48.07-22.1-84.38-36.97-76.1-3.27-112.67 35.74-155.05 14.04-15.24 28.56-31.01 40.62-49.61 53.6-82.74 84.78-111.53 123.5-114.09 12.55-.73 25.02 1.66 39.45 4.49 19.04 3.76 40.6 8.11 68.31 5.64a206.3 206.3 0 0 1 16.87-.71c61.55 0 124.39 28.35 171.02 77.88 52.37 55.59 77.47 132.45 70.65 216.41-5.91 72.39-32.25 136.11-76.19 184.28-45.58 49.92-106.52 80.66-176.27 88.89a275.44 275.44 0 0 1-31.86 1.83Zm-203.56-463.4c-12.16 18.8-26.76 34.62-40.85 49.95-38.45 41.74-71.65 77.8-35.37 152.51 17.8 36.67 20.22 62.4 22.32 85.13 3.59 38.6 6.17 66.48 85.5 120.56 58.84 40.11 134.91 59.35 203.59 51.12 48.22-5.69 117.72-25.58 174.8-88.16 43.6-47.78 69.75-111.01 75.61-182.91 6.76-83.3-18.09-159.55-70.02-214.65-46.19-49.05-108.45-77.17-169.34-77.17-5.59 0-11.16.25-16.7.73-28.03 2.47-49.76-1.91-68.94-5.69-14.33-2.83-26.76-5.4-38.87-4.44-37.87 2.49-68.58 31.01-121.73 113.01Z" style="fill:url(#m)"/>
  <path d="M313.94 597.95c-61.82 0-125.22-20.19-177.66-57.15-77.03-54.32-80.66-84.47-85.69-126.2-2.66-22.24-5.71-47.44-20.75-81.37-33.57-75.75.49-114.3 39.94-158.93 12.92-14.62 26.27-29.74 37.84-46.95l1 .68-1-.68C159.47 50.1 191.8 21.39 231.08 17.6c13.33-1.29 26.49.86 41.8 3.25 18.17 2.88 38.82 6.25 64.24 4.17 67.97-5.47 139.28 24.07 190.97 78.51 52.93 55.79 78.74 132.6 72.68 216.29-5.3 73.53-32.15 138.45-77.61 187.72-32.72 35.42-90.6 79.59-180.61 88.94-9.45.98-19 1.47-28.59 1.47Zm-74.51-578.3c-2.73 0-5.42.12-8.1.39-38.45 3.69-70.29 32.13-121.7 108.67-11.65 17.36-25.05 32.52-38.01 47.19-38.9 44-72.5 82.01-39.54 156.35 15.19 34.25 18.24 59.64 20.95 82.05 4.93 41.09 8.52 70.78 84.67 124.49 60.08 42.38 134.72 62.5 204.59 55.25 49.27-5.1 120.31-24.56 179.05-88.16 45.12-48.85 71.73-113.26 76.98-186.26 6-82.98-19.56-159.13-72-214.43-47.21-49.76-111.03-78.34-173.41-78.34-5.2 0-10.43.19-15.6.61-25.81 1.9-46.51-1.29-64.82-4.2-11.99-1.91-22.68-3.61-33.06-3.61Z" style="fill:url(#n)"/>
  <path d="M313.33 599.15c-63.52 0-128.98-21.61-182.91-60.94-74.12-54.1-78.78-86.4-85.2-131.08-3.12-21.65-6.67-46.19-19.09-77.42C-4.1 253.88 30.67 213.06 70.9 165.8c11.6-13.62 23.61-27.71 34.4-43.19 50.12-71.85 83.57-100.42 123.43-105.45 14.18-1.76 28.22-.07 44.48 1.9 17.21 2.1 36.69 4.42 59.81 2.83 70.09-4.95 140.87 24.22 194.02 79.84 53.49 55.98 80.03 132.74 74.76 216.16-4.71 74.76-32.06 140.87-79.08 191.19-60.96 65.26-134.2 84.4-184.94 88.99a272.8 272.8 0 0 1-24.46 1.07ZM241.28 19.02c-4.13 0-8.18.22-12.21.73-39.06 4.91-72.02 33.18-121.63 104.32-10.89 15.6-22.92 29.74-34.57 43.41-39.69 46.63-73.99 86.89-44.35 161.26 12.57 31.52 16.11 56.23 19.26 78 6.35 44.07 10.91 75.9 84.16 129.37 60.4 44.04 135.33 65.7 205.61 59.38 50.3-4.54 122.9-23.51 183.28-88.16 46.61-49.88 73.7-115.43 78.39-189.57 5.22-82.72-21.07-158.79-74.02-214.21-52.64-55.1-122.63-83.81-191.97-79.05-23.51 1.69-43.02-.73-60.3-2.83-11.4-1.39-21.7-2.64-31.64-2.64Z" style="fill:url(#o)"/>
  <path d="M312.4 600.41c-65.26 0-132.67-23.07-187.87-64.82-71.61-54.15-77.27-89.06-85.13-137.35-3.34-20.6-7.16-43.97-17.02-72.07-26.91-76.51 10.82-122.19 50.73-170.56 9.96-12.06 20.24-24.51 29.88-37.77h-.02c48.25-66.47 82.87-94.82 123.42-101.09 15.16-2.32 30.34-1.05 47.92.41 15.97 1.37 33.98 2.91 54.66 1.61 4.61-.29 9.25-.44 13.89-.44 66.75 0 132.81 29.27 183.18 81.62 54.03 56.15 81.32 132.89 76.81 216.07-4.12 75.93-31.98 143.21-80.52 194.63-48.9 51.81-116.14 83.4-189.28 88.99-6.84.51-13.72.78-20.65.78ZM244.7 18.22c-6.08 0-11.99.34-17.87 1.27-39.77 6.13-73.85 34.16-121.6 99.98h-.02c-9.67 13.33-19.97 25.81-29.95 37.89-41.15 49.82-76.67 92.84-50.28 167.88 9.96 28.35 13.77 51.83 17.14 72.56 7.74 47.65 13.35 82.1 84.08 135.59 60.52 45.77 135.94 68.9 206.66 63.5 72.46-5.54 139.04-36.84 187.48-88.16 48.09-50.91 75.68-117.6 79.78-192.87 4.47-82.42-22.56-158.42-76.07-214.01-49.83-51.81-115.19-80.76-181.18-80.76-4.56 0-9.15.15-13.74.42-20.85 1.32-39.01-.25-55.05-1.59-10.48-.9-20.12-1.71-29.37-1.71Z" style="fill:url(#p)"/>
  <path d="M311.28 601.76c-67.02 0-136.35-24.59-192.63-68.75C49 478.3 42.28 440.04 33.01 387.11c-3.3-18.87-7.06-40.24-14.36-64.5-23.58-78.2 16.31-127.54 58.52-179.81 7.76-9.57 15.77-19.51 23.51-29.71 46.29-61.16 82.06-89.21 123.39-96.75 16.6-3.03 33.23-2.17 52.42-1.27 15.04.76 30.59 1.46 48.41.58 72.68-3.86 145.58 26.25 200.12 82.52 54.61 56.35 82.62 133.03 78.88 215.94-3.44 75.98-32.57 146.31-81.96 198.07-50.32 52.69-119.07 84.3-193.63 89.04-5.66.36-11.35.54-17.04.54Zm-60.5-584.67c-9.01 0-17.62.51-26.17 2.07-40.58 7.42-75.81 35.13-121.63 95.68a1210.14 1210.14 0 0 1-23.53 29.78C35.89 198.51-1.71 245.05 21.44 321.78c7.35 24.41 11.11 45.9 14.43 64.84 9.18 52.3 15.79 90.09 84.59 144.09 60.5 47.51 136.18 71.97 207.66 67.62 73.83-4.69 141.92-35.99 191.72-88.16 48.93-51.24 77.74-120.92 81.18-196.22 3.69-82.08-24.02-158.01-78.1-213.79C472.07 47.67 405 18.2 337.3 18.2c-4.1 0-8.18.1-12.26.32-17.99.98-34.3.12-48.7-.56-9.01-.47-17.45-.88-25.56-.88Z" style="fill:url(#q)"/>
  <path d="M309.45 603.17c-69.56 0-138.87-25.56-196.68-72.78-68.63-56.08-76.73-101.17-86.99-158.23-3-16.68-6.1-33.91-10.89-53.15-20.28-81.75 23.56-136.22 70-193.86 4.47-5.57 8.99-11.16 13.48-16.84 44.28-55.89 81.17-83.53 123.36-92.39 18.6-3.93 37.21-3.66 58.91-3.22 12.69.19 25.83.44 40.18-.17 3.54-.17 7.08-.24 10.62-.24 70.43 0 140.09 30.3 192.58 84.08 55.2 56.59 83.94 133.25 80.91 215.85-2.78 77.07-32.4 148.63-83.4 201.51-51.71 53.64-122.02 85.28-197.97 89.08-4.69.25-9.4.37-14.11.37ZM100.76 110.2c-4.49 5.69-9.01 11.28-13.5 16.85-45.93 57.06-89.31 110.94-69.39 191.24 4.78 19.33 7.91 36.62 10.91 53.34 10.55 58.64 18.16 101.02 85.94 156.42 57.22 46.75 125.88 72.07 194.72 72.07 4.66 0 9.3-.12 13.97-.34 75.17-3.81 144.75-35.11 195.92-88.16 50.49-52.37 79.81-123.22 82.57-199.51 2.98-81.76-25.46-157.62-80.08-213.6-51.9-53.22-120.78-83.18-190.38-83.18-3.49 0-6.98.07-10.47.22-14.5.68-27.69.39-40.38.19-21.51-.44-39.99-.68-58.23 3.15-41.43 8.72-77.81 36.03-121.6 91.31Z" style="fill:url(#r)"/>
  <path d="M308.15 604.59c-71.85 0-142.94-27.05-201.27-76.81-69.36-59.18-78.3-111.62-89.6-178-1.88-11.01-3.81-22.41-6.1-34.35-17.14-89.26 34.72-151.61 84.89-211.89 42.14-50.63 80.18-77.78 123.31-88.06 21.73-5.15 43.6-5.37 68.94-5.59 9.13-.07 18.56-.17 28.44-.51 75.44-2.49 150.59 28.52 206.23 85.2C578.78 151.39 608.25 228 606 310.31c-2.15 78.34-32.27 151.15-84.86 204.98-52.95 54.57-124.81 86.2-202.32 89.11-3.54.12-7.1.19-10.67.19Zm-209.64-499C48.85 165.31-2.51 227.05 14.31 314.84c2.32 11.96 4.25 23.36 6.13 34.4 11.21 65.75 20.04 117.68 88.55 176.1 57.72 49.27 128.07 76.03 199.17 76.05 3.51 0 7.03-.07 10.57-.22 76.68-2.86 147.75-34.16 200.12-88.14 52.03-53.25 81.83-125.29 83.93-202.83 2.25-81.4-26.9-157.18-82.08-213.38C465.67 40.8 391.38 9.91 316.87 12.6c-9.91.32-19.36.41-28.51.49-25.15.24-46.85.44-68.24 5.52-42.41 10.11-79.91 36.94-121.61 86.99Z" style="fill:url(#s)"/>
  <path d="M306.93 606.06c-74.56 0-147.41-28.56-205.93-80.88-74.14-66.29-82.72-131.19-93.55-213.34-11.6-87.96 37.13-157.08 86.32-213.06 39.9-45.41 79.06-72.02 123.25-83.69 27.66-7.35 55.74-7.96 88.28-8.67l7.4-.17c2.1-.05 4.17-.07 6.25-.07 74.78 0 148.44 31.35 203.03 86.62 56.35 57.03 86.57 133.59 85.08 215.58-1.46 79.42-32.13 153.44-86.33 208.45-54.44 55.54-127.83 87.21-206.64 89.16-2.39.05-4.78.07-7.16.07ZM318.97 9.55c-2.07 0-4.13.02-6.18.07l-7.42.15c-32.32.71-60.23 1.32-87.47 8.55-43.53 11.52-82.15 37.79-121.58 82.66C9.5 199.76 4.35 262.77 10.77 311.4c10.77 81.47 19.26 145.82 92.48 211.28 57.89 51.76 129.95 80.03 203.68 80.03 2.35 0 4.71-.02 7.06-.1 77.93-1.9 150.51-33.2 204.34-88.14 53.61-54.39 83.91-127.61 85.35-206.15 1.49-81.1-28.4-156.79-84.11-213.18C465.62 40.53 392.81 9.55 318.96 9.55Z" style="fill:url(#t)"/>
  <path d="M305.64 607.59c-77.61 0-152.25-30.1-210.52-85.03C22.63 454.25 8.25 375.85 3.71 308.2c-5.15-74.19 24.37-146.26 87.77-214.21C129 53.81 169.29 27.86 214.67 14.65c33.13-9.62 67.6-11.21 93.94-11.52l3.61-.02c78.32 0 152.3 31.13 208.72 87.89 57.08 57.44 88.04 133.96 87.16 215.5-.58 80.2-31.76 155.45-87.77 211.89-55.93 56.49-130.89 88.18-211.01 89.18l-3.68.02ZM94.07 96.39C31.35 163.6 2.12 234.77 7.23 307.96c4.47 66.99 18.7 144.58 90.28 212.06 57.64 54.3 131.42 84.06 208.13 84.06 1.22 0 2.42 0 3.64-.02 79.2-1 153.27-32.3 208.57-88.16 55.37-55.76 86.16-130.15 86.74-209.45.88-80.59-29.71-156.23-86.13-212.97C462.72 37.38 389.6 6.62 312.21 6.62c-1.17 0-2.37 0-3.54.02-26.12.32-60.3 1.88-93.02 11.38C170.9 31.06 131.1 56.69 94.07 96.39Z" style="fill:url(#u)"/>
  <path d="M304.57 609.13c-81.37 0-157.86-31.69-215.36-89.21C31.69 462.4 0 385.91 0 304.57S31.69 146.73 89.21 89.21C146.73 31.69 223.22 0 304.57 0s157.84 31.69 215.38 89.21c57.52 57.52 89.18 133.99 89.18 215.36s-31.66 157.84-89.18 215.36c-57.52 57.52-134.01 89.21-215.38 89.21Zm0-605.47c-80.37 0-155.93 31.3-212.77 88.14S3.66 224.19 3.66 304.57 34.96 460.5 91.8 517.34c56.81 56.84 132.37 88.14 212.77 88.14s155.96-31.3 212.79-88.14 88.11-132.37 88.11-212.77-31.3-155.96-88.11-212.77C460.5 34.96 384.94 3.66 304.57 3.66Z" style="fill:url(#v)"/>
  <defs>
    <linearGradient id="a" x1="-1386.11" x2="-1877.59" y1="252.82" y2="73.93" gradientTransform="rotate(-165 -642.73 113.2)" gradientUnits="userSpaceOnUse">
      <stop offset="0" stop-color="var(--color-pink)"/>
      <stop offset=".21" stop-color="var(--color-blue-700)"/>
      <stop offset=".45" stop-color="#b50065"/>
      <stop offset="1" stop-color="var(--color-blue-700)"/>
    </linearGradient>
    <linearGradient id="b" x1="-1411.14" x2="-1919.3" y1="236.18" y2="46.42" gradientTransform="rotate(-163 -648.2 120.67)" gradientUnits="userSpaceOnUse">
      <stop offset="0" stop-color="var(--color-pink)"/>
      <stop offset="0" stop-color="var(--color-pink)"/>
      <stop offset=".21" stop-color="#5545e0"/>
      <stop offset=".43" stop-color="#a90975"/>
      <stop offset=".45" stop-color="#b1036a"/>
      <stop offset=".67" stop-color="#911a94"/>
      <stop offset="1" stop-color="var(--color-blue-700)"/>
    </linearGradient>
    <linearGradient id="c" x1="-1435.68" x2="-1960.04" y1="215.34" y2="14.56" gradientTransform="rotate(-180 -634.24 132.89)" gradientUnits="userSpaceOnUse">
      <stop offset="0" stop-color="var(--color-pink)"/>
      <stop offset="0" stop-color="var(--color-pink)"/>
      <stop offset=".21" stop-color="#5744dc"/>
      <stop offset=".43" stop-color="#a50c7a"/>
      <stop offset=".45" stop-color="#ad0670"/>
      <stop offset=".67" stop-color="#931891"/>
      <stop offset="1" stop-color="var(--color-blue-700)"/>
    </linearGradient>
    <linearGradient id="d" x1="-1459.06" x2="-1998.99" y1="191.63" y2="-20.28" gradientTransform="rotate(-180 -641.86 123.22)" gradientUnits="userSpaceOnUse">
      <stop offset="0" stop-color="var(--color-pink)"/>
      <stop offset="0" stop-color="var(--color-pink)"/>
      <stop offset=".21" stop-color="#5842d9"/>
      <stop offset=".43" stop-color="#a00f80"/>
      <stop offset=".45" stop-color="#a80975"/>
      <stop offset=".67" stop-color="#94178f"/>
      <stop offset="1" stop-color="var(--color-blue-700)"/>
    </linearGradient>
    <linearGradient id="e" x1="-1480.91" x2="-2035.45" y1="161.04" y2="-61.94" gradientTransform="rotate(180 -648.58 111.9)" gradientUnits="userSpaceOnUse">
      <stop offset="0" stop-color="var(--color-pink)"/>
      <stop offset="0" stop-color="var(--color-pink)"/>
      <stop offset=".21" stop-color="#5a41d5"/>
      <stop offset=".43" stop-color="#9c1285"/>
      <stop offset=".45" stop-color="#a40c7b"/>
      <stop offset=".67" stop-color="#96168d"/>
      <stop offset="1" stop-color="var(--color-blue-700)"/>
    </linearGradient>
    <linearGradient id="f" x1="-1500.71" x2="-2068.51" y1="125.58" y2="-108.23" gradientTransform="matrix(-.9 0 0 -.9 -1298.26 265.36)" gradientUnits="userSpaceOnUse">
      <stop offset="0" stop-color="var(--color-pink)"/>
      <stop offset="0" stop-color="var(--color-pink)"/>
      <stop offset=".21" stop-color="#5b40d2"/>
      <stop offset=".43" stop-color="#98158b"/>
      <stop offset=".45" stop-color="#a00f80"/>
      <stop offset=".67" stop-color="#98158a"/>
      <stop offset="1" stop-color="var(--color-blue-700)"/>
    </linearGradient>
    <linearGradient id="g" x1="-1517.95" x2="-2097.52" y1="86.01" y2="-158.29" gradientTransform="matrix(-.9 0 0 -.9 -1299.37 306.9)" gradientUnits="userSpaceOnUse">
      <stop offset="0" stop-color="var(--color-pink)"/>
      <stop offset="0" stop-color="var(--color-pink)"/>
      <stop offset=".21" stop-color="#5d3fce"/>
      <stop offset=".43" stop-color="#941890"/>
      <stop offset=".45" stop-color="#9c1286"/>
      <stop offset=".67" stop-color="#9a1388"/>
      <stop offset="1" stop-color="var(--color-blue-700)"/>
    </linearGradient>
    <linearGradient id="h" x1="-1532.01" x2="-2121.59" y1="42.5" y2="-211.82" gradientTransform="matrix(-.9 0 0 -.9 -1300.48 348.45)" gradientUnits="userSpaceOnUse">
      <stop offset="0" stop-color="var(--color-pink)"/>
      <stop offset="0" stop-color="var(--color-pink)"/>
      <stop offset=".21" stop-color="#5e3dcb"/>
      <stop offset=".43" stop-color="#8f1b96"/>
      <stop offset=".45" stop-color="#97158b"/>
      <stop offset=".67" stop-color="#9c1286"/>
      <stop offset="1" stop-color="var(--color-blue-700)"/>
    </linearGradient>
    <linearGradient id="i" x1="-1542.64" x2="-2140.04" y1="-2.82" y2="-266.42" gradientTransform="rotate(180 -659.58 159.25) scale(.9)" gradientUnits="userSpaceOnUse">
      <stop offset="0" stop-color="var(--color-pink)"/>
      <stop offset="0" stop-color="var(--color-pink)"/>
      <stop offset=".21" stop-color="#603cc7"/>
      <stop offset=".43" stop-color="#8b1e9b"/>
      <stop offset=".45" stop-color="#931891"/>
      <stop offset=".67" stop-color="#9d1183"/>
      <stop offset="1" stop-color="var(--color-blue-700)"/>
    </linearGradient>
    <linearGradient id="j" x1="-1549.1" x2="-2152.22" y1="-52.66" y2="-324.8" gradientTransform="rotate(180 -667.12 142.54) scale(.9)" gradientUnits="userSpaceOnUse">
      <stop offset="0" stop-color="var(--color-pink)"/>
      <stop offset="0" stop-color="var(--color-pink)"/>
      <stop offset=".21" stop-color="#613bc4"/>
      <stop offset=".43" stop-color="#8721a1"/>
      <stop offset=".45" stop-color="#8f1b96"/>
      <stop offset=".67" stop-color="#9f0f81"/>
      <stop offset="1" stop-color="var(--color-blue-700)"/>
    </linearGradient>
    <linearGradient id="k" x1="-1551.13" x2="-2157.58" y1="-104.67" y2="-384.39" gradientTransform="matrix(-.8 .2 -.2 -.8 -1303.68 474.87)" gradientUnits="userSpaceOnUse">
      <stop offset="0" stop-color="var(--color-pink)"/>
      <stop offset="0" stop-color="var(--color-pink)"/>
      <stop offset=".21" stop-color="#633ac0"/>
      <stop offset=".43" stop-color="#8324a6"/>
      <stop offset=".45" stop-color="#8b1e9c"/>
      <stop offset=".67" stop-color="#a10e7f"/>
      <stop offset="1" stop-color="var(--color-blue-700)"/>
    </linearGradient>
    <linearGradient id="l" x1="-1548.69" x2="-2156.03" y1="-157.62" y2="-443.9" gradientTransform="matrix(-.8 .2 -.2 -.8 -1304.79 516.42)" gradientUnits="userSpaceOnUse">
      <stop offset="0" stop-color="var(--color-pink)"/>
      <stop offset="0" stop-color="var(--color-pink)"/>
      <stop offset=".21" stop-color="#6438bd"/>
      <stop offset=".43" stop-color="#7e28ac"/>
      <stop offset=".45" stop-color="#8622a1"/>
      <stop offset=".67" stop-color="#a30d7c"/>
      <stop offset="1" stop-color="var(--color-blue-700)"/>
    </linearGradient>
    <linearGradient id="m" x1="-1541.76" x2="-2147.55" y1="-210.58" y2="-502.32" gradientTransform="matrix(-.8 .3 -.3 -.8 -1305.9 557.97)" gradientUnits="userSpaceOnUse">
      <stop offset="0" stop-color="var(--color-pink)"/>
      <stop offset="0" stop-color="var(--color-pink)"/>
      <stop offset=".21" stop-color="#6637b9"/>
      <stop offset=".43" stop-color="#7a2bb1"/>
      <stop offset=".45" stop-color="#8225a7"/>
      <stop offset=".67" stop-color="#a50c7a"/>
      <stop offset="1" stop-color="var(--color-blue-700)"/>
    </linearGradient>
    <linearGradient id="n" x1="-1531.68" x2="-2133.59" y1="-262.01" y2="-558.06" gradientTransform="matrix(-.8 .3 -.3 -.8 -1307.84 600.47)" gradientUnits="userSpaceOnUse">
      <stop offset="0" stop-color="var(--color-pink)"/>
      <stop offset="0" stop-color="var(--color-pink)"/>
      <stop offset=".21" stop-color="#6736b6"/>
      <stop offset=".43" stop-color="#762eb7"/>
      <stop offset=".45" stop-color="#7e28ac"/>
      <stop offset=".67" stop-color="#a70a78"/>
      <stop offset="1" stop-color="var(--color-blue-700)"/>
    </linearGradient>
    <linearGradient id="o" x1="-1516.74" x2="-2112.69" y1="-309.24" y2="-608.54" gradientTransform="rotate(152 -735.6 174.92) scale(.9)" gradientUnits="userSpaceOnUse">
      <stop offset="0" stop-color="var(--color-pink)"/>
      <stop offset="0" stop-color="var(--color-pink)"/>
      <stop offset=".21" stop-color="#6935b2"/>
      <stop offset=".43" stop-color="#7231bc"/>
      <stop offset=".45" stop-color="#7a2bb2"/>
      <stop offset=".67" stop-color="#a80975"/>
      <stop offset="1" stop-color="var(--color-blue-700)"/>
    </linearGradient>
    <linearGradient id="p" x1="-1498.59" x2="-2086.46" y1="-355.37" y2="-656.75" gradientTransform="rotate(150 -746.6 175.63) scale(.9)" gradientUnits="userSpaceOnUse">
      <stop offset="0" stop-color="var(--color-pink)"/>
      <stop offset="0" stop-color="var(--color-pink)"/>
      <stop offset=".21" stop-color="#6a33af"/>
      <stop offset=".43" stop-color="#6d34c2"/>
      <stop offset=".45" stop-color="#752eb7"/>
      <stop offset=".67" stop-color="#aa0873"/>
      <stop offset="1" stop-color="var(--color-blue-700)"/>
    </linearGradient>
    <linearGradient id="q" x1="-1476.77" x2="-2055.26" y1="-398.23" y2="-700.9" gradientTransform="rotate(148 -758.57 176.23) scale(.9)" gradientUnits="userSpaceOnUse">
      <stop offset="0" stop-color="var(--color-pink)"/>
      <stop offset="0" stop-color="var(--color-pink)"/>
      <stop offset=".21" stop-color="#6c32ab"/>
      <stop offset=".43" stop-color="#6937c7"/>
      <stop offset=".45" stop-color="#7131bd"/>
      <stop offset=".67" stop-color="#ac0671"/>
      <stop offset="1" stop-color="var(--color-blue-700)"/>
    </linearGradient>
    <linearGradient id="r" x1="-1451.96" x2="-2019.93" y1="-437.39" y2="-740.6" gradientTransform="rotate(147 -767.48 174.55) scale(.9)" gradientUnits="userSpaceOnUse">
      <stop offset="0" stop-color="var(--color-pink)"/>
      <stop offset="0" stop-color="var(--color-pink)"/>
      <stop offset=".21" stop-color="#6d31a8"/>
      <stop offset=".43" stop-color="#653acd"/>
      <stop offset=".45" stop-color="#6d34c2"/>
      <stop offset=".67" stop-color="#ae056e"/>
      <stop offset="1" stop-color="var(--color-blue-700)"/>
    </linearGradient>
    <linearGradient id="s" x1="-1424.58" x2="-1981.35" y1="-472.48" y2="-775.68" gradientTransform="rotate(141 -796.85 156.26) scale(.9)" gradientUnits="userSpaceOnUse">
      <stop offset="0" stop-color="var(--color-pink)"/>
      <stop offset="0" stop-color="var(--color-pink)"/>
      <stop offset=".21" stop-color="#6f30a4"/>
      <stop offset=".43" stop-color="#613dd2"/>
      <stop offset=".45" stop-color="#6937c8"/>
      <stop offset=".67" stop-color="#b0046c"/>
      <stop offset="1" stop-color="var(--color-blue-700)"/>
    </linearGradient>
    <linearGradient id="t" x1="-1393.84" x2="-1941.42" y1="-500.67" y2="-804.79" gradientTransform="rotate(141 -805.35 177.45) scale(.9)" gradientUnits="userSpaceOnUse">
      <stop offset="0" stop-color="var(--color-pink)"/>
      <stop offset="0" stop-color="var(--color-pink)"/>
      <stop offset=".21" stop-color="#702ea1"/>
      <stop offset=".43" stop-color="#5c40d8"/>
      <stop offset=".45" stop-color="#643acd"/>
      <stop offset=".67" stop-color="#b1036a"/>
      <stop offset="1" stop-color="var(--color-blue-700)"/>
    </linearGradient>
    <linearGradient id="u" x1="-1360.67" x2="-1899" y1="-525.76" y2="-830.63" gradientTransform="rotate(136 -839.07 196.06)" gradientUnits="userSpaceOnUse">
      <stop offset="0" stop-color="var(--color-pink)"/>
      <stop offset="0" stop-color="var(--color-pink)"/>
      <stop offset=".21" stop-color="#722d9d"/>
      <stop offset=".43" stop-color="#5843dd"/>
      <stop offset=".45" stop-color="#603dd3"/>
      <stop offset=".67" stop-color="#b30167"/>
      <stop offset="1" stop-color="var(--color-blue-700)"/>
    </linearGradient>
    <linearGradient id="v" x1="-1327.91" x2="-1855.66" y1="-547.22" y2="-851.92" gradientTransform="rotate(135 -851.56 195.24)" gradientUnits="userSpaceOnUse">
      <stop offset="0" stop-color="var(--color-pink)"/>
      <stop offset=".43" stop-color="var(--color-blue-700)"/>
      <stop offset=".67" stop-color="#b50065"/>
      <stop offset="1" stop-color="var(--color-blue-700)"/>
    </linearGradient>
  </defs>
</svg>