<svg xmlns="http://www.w3.org/2000/svg" width="300" height="300" fill="none" viewBox="0 0 300 300">
  <g fill-rule="evenodd" clip-path="url(#a)" clip-rule="evenodd">
    <path fill="#0092FF" d="M150 4.5A145.7 145.7 0 0 0 4.6 150a145.6 145.6 0 0 0 291 0c0-80.2-65.3-145.5-145.4-145.5Zm0 295.6C67.4 300 0 232.7 0 150 0 67.3 67.3 0 150 0c82.8 0 150 67.3 150 150s-67.3 150-150 150Z"/>
    <path fill="#002298" d="M244.4 55.7a134.2 134.2 0 0 0-94.3-39A133 133 0 0 0 16.7 150a134.4 134.4 0 0 0 39 94.3 132.7 132.7 0 0 0 145.4 29 133 133 0 0 0 72.3-72.3 133 133 0 0 0-29-145.4Z"/>
    <path fill="#0092FF" d="M150 18.9a132 132 0 0 0-121.3 81A130.3 130.3 0 0 0 19 150a130.3 130.3 0 0 0 81 121.2 132.2 132.2 0 0 0 142.9-28.5 130 130 0 0 0 38.4-92.7 130.4 130.4 0 0 0-38.4-92.8A129.6 129.6 0 0 0 150 19Zm0 266.8a135 135 0 0 1-125.3-83.8 135 135 0 0 1 0-103.8 136.1 136.1 0 0 1 73.5-73.5 135.5 135.5 0 0 1 187.6 125.5A135 135 0 0 1 202 275.5a134.7 134.7 0 0 1-51.9 10.2Z"/>
    <path fill="#291AD8" d="M251.5 63.3c4.8 5.6 17 23.7 22.4 36.8a133 133 0 0 1-1.1 102.3 132.5 132.5 0 0 1-73 71.4c-6.6 2.6 12-19.5.5-31.6-11.6-12.2-60.5 2-59.2-23 1.4-25.1 12.3-25 18-38 5.8-13.1 12.7-2.6 37.2-11 24.5-8.3 57-7 67.7-18.1 10.6-11.2-40.6 2-50-.3-9.5-2.3-11.4-13.7-18.2-13.3-6.8.4-3 12.6-10.4 15-7.7 2.3-28 5.8-29.2-2.8-4.7-33.1 20.8-22.7 22.4-24.5 6.7-7.8-8-14 1-25 9.2-11 18.3-13 23-20.7 4.8-7.7-11.2-13.7-3.8-19.7 7.3-6 47.5-3.6 52.7 2.3v.2Z"/>
    <path fill="#0092FF" d="M171.4 176.3c-5.6 0-7.6.3-10 5.8-2.2 4.9-5 8-7.7 11-4.7 5.4-9.3 10.6-10.2 26.2-.7 11.8 11.7 13.4 30.5 14.5 11.7.7 22.8 1.3 28.1 6.9 8.4 8.8 3 21.7 0 28.8l-.5 1.3a131 131 0 0 0 70.2-169.6 173.9 173.9 0 0 0-22-36.3c-4.2-4.7-42.8-7.5-49.6-2-1.7 1.4-1.7 2.1 1.6 6.3 2.5 3.2 6 7.7 2.7 12.7a34.6 34.6 0 0 1-10.2 9.6c-4 2.8-8.4 6-12.9 11.4-4 4.9-2.5 8.3-.7 12.3 1.6 3.5 3.6 8-.5 12.7-1 1.2-2.6 1-5.2.9-3.7-.4-10-1-13.7 2.8-3.2 3.4-4.2 9.8-2.9 19 .2.9.6 1.5 1.5 2 4.4 2.9 17.3 1.2 24.7-1 2.4-.8 3.2-3 4.1-6.7.9-3.5 2-8 7-8.4 4.6-.2 7.2 3.1 9.9 6.3 2.4 3 4.9 6.1 9 7 3.2.9 13.4-.6 22.5-2 20-2.8 28.3-3.6 30.3.4.9 1.7.3 3.6-1.7 5.6-6.8 7.1-20.8 9.4-37 12a187.4 187.4 0 0 0-31.6 6.8c-11.3 3.9-19 3.8-24.5 3.8h-1.3v-.1Zm27.5 100c-1 0-1.6-.4-2-.8-1.6-1.6-.7-3.8 1-7.8 2.7-6.4 7.2-17.3.9-24-4-4.2-14.8-4.8-25-5.4-16.8-1-35.7-2-34.8-19.3.9-17.1 6.2-23.1 11.4-28.9 2.6-3 5-5.6 6.8-9.8 3.8-8.6 8.8-8.6 15.5-8.6 5.3 0 12.4 0 23-3.5 10.2-3.5 21.4-5.3 32.3-7 14.8-2.4 28.8-4.7 34.5-10.7l.5-.5c-3.7-.9-16.4.9-25.2 2.1a92.5 92.5 0 0 1-24.2 1.9c-5.5-1.4-8.8-5.4-11.4-8.6-2.4-3-3.7-4.8-6.2-4.7-1.4 0-1.9 1.2-2.7 5-1 3.4-2.2 8.3-7.1 9.8-5.6 1.7-21.5 5.1-28.6.6-2-1.3-3.1-3.1-3.5-5.2-1.5-10.8-.2-18.2 4.1-22.7 5.2-5.4 13.2-4.7 17.4-4.3l1.8.2c1.5-2.1.8-4-.8-7.4-1.9-4.3-4.4-10 1.4-17 4.8-5.8 9.5-9.1 13.7-12.1 4-2.8 7-5 9-8.3 1.4-2.2.3-4.1-2.5-7.6-2.5-3.3-6.3-8-.8-12.6 8-6.5 49.6-4.6 55.7 2.5 5 5.8 17.5 24.3 22.8 37.6a135 135 0 0 1-77 177v.2Z"/>
    <path fill="#291AD8" d="M141 16.8a132.8 132.8 0 0 0-114.3 82 134.1 134.1 0 0 0 22.8 139c.8.8 1.7 1.2 2.8 1.3 1 0 2-.3 2.8-1.1 8.9-10.3 34.6-17.4 36.3-30.8 1.4-10-15.3-14-19.7-23-5-10.4-1-24.2-7.4-33.6-6.7-9.8-32-10.7-39-20.4-3.7-5.4-1-13.4 1-19.5 1-2.7 4.2-4.3 7-5 3.8-1 8 0 12 .2.2 0 38-5.8 49.6-10.8 11.7-5 5.2-11.7 10.4-13.8 5-2 13 13.4 21 6.5 7.9-6.8 14-39.7 16.8-47.3 2.8-7.6 13.2-.2 16 1.4 2.7 1.6-4.9 16.3-1.3 19 3.5 2.7 18.2-6.7 20-8.5 11.2-11 8.4-21 2.2-26-6.1-5-25.2 1.6-36.1-8.6a3.6 3.6 0 0 0-2.9-1Z"/>
    <path fill="#0092FF" d="M141.4 19c.3 0 .6.2 1 .5 7 6.6 17 6.8 25 7 4.8 0 9.4.1 11.3 1.7 2.8 2.2 4.4 5.3 4.6 8.6.2 4.6-2.1 9.4-6.8 14-2.2 2.3-15 9.4-17.1 8.4-.7-1 .7-6.1 1.3-8.5 1.3-5.2 2.4-9.2-.4-10.8l-.9-.5c-3.3-2-9.3-5.8-14-4.1-1.3.4-3.2 1.6-4.3 4.5-.7 2.1-1.7 6-3 11-3 11.5-8 30.9-13.1 35.4-3.1 2.6-6.1.5-10.7-3.1-3.1-2.6-6.4-5.1-9.7-3.8-3.2 1.3-3.6 4-3.9 6-.3 2.8-.7 5.3-6.5 7.7-10.8 4.7-46.6 10.4-48.7 10.6l-4-.3c-2.7-.3-5.7-.6-8.7.2-1.5.4-4.8 1.5-6.9 3.7.9-2.5 1.8-5 2.9-7.5a131 131 0 0 1 112.7-80.6h-.1Zm-120 105.4a131.5 131.5 0 0 0 29.8 112c.3.3.7.4 1.2.5.5 0 .8 0 1-.4 3.8-4.2 9.9-7.8 16.3-11.5 9.1-5.4 18.7-11 19.6-18.1.6-4.2-3-7-8.8-11.3-4.2-3-8.5-6.1-10.6-10.5-2.5-5.2-2.8-11-3.3-16.6-.4-6.2-.8-12.1-4-16.7-3-4.4-10.8-7-18.3-9.5-8.2-2.7-16.7-5.6-20.6-11a12 12 0 0 1-2.2-7h-.1Zm31 117h-.2c-1.8 0-3.3-.8-4.4-2A132.5 132.5 0 0 1 24.6 202 135.4 135.4 0 0 1 140.9 14.6a6 6 0 0 1 4.5 1.6c5.8 5.4 14.4 5.5 22 5.8 5.9.1 11 .2 14 2.7 3.8 3 6 7.2 6.3 11.8.2 4.1-1 10.4-8.2 17.5-.9.9-17.6 13-23.1 8.7-3.1-2.3-1.7-7.6-.3-13.1.6-2 1.3-4.9 1.3-6l-.5-.3c-2-1.4-7.5-4.7-10.2-3.8-.4.2-1 .5-1.5 1.8-.8 2-1.8 6-3 10.5-4.4 17-8.7 32.8-14.5 37.7-6.1 5.3-12.3.3-16.4-3-1.6-1.3-4.3-3.4-5.2-3.1-.7.3-.8.5-1.1 2.5-.4 3-1 7.7-9.2 11.2-11.5 5-49.2 11-50.6 11l-4.2-.3c-2.6-.3-5-.6-7.2 0s-4.7 1.8-5.2 3.5l-.3.6c-1.8 5.7-4 12.7-1.1 17 3 4.2 10.7 6.8 18.3 9.2 8.2 2.8 16.8 5.7 20.6 11.2a37.3 37.3 0 0 1 4.8 19 42 42 0 0 0 2.8 15c1.6 3.3 5.4 6 9.1 8.7 5.7 4.2 11.6 8.4 10.8 15.5-1.3 9.3-11.8 15.5-21.9 21.4-6 3.6-11.8 7-15 10.6a5.7 5.7 0 0 1-4.4 2h.1Z"/>
    <path fill="#0092FF" d="M150 40.6C71 40.6 7 94.8 7 161.3 6.9 228 71 282.1 150 282.1c79 0 143-54.2 143-120.8 0-66.5-64.1-120.7-143-120.7Zm0 246c-81.4 0-147.7-56.1-147.7-125.3 0-69 66.3-125.2 147.8-125.2 81.5 0 147.6 56.1 147.6 125.2 0 69.2-66.2 125.3-147.6 125.3Z"/>
    <path fill="#0092FF" d="M150 238.4c-82.7 0-150-44.7-150-99.5 0-1.3 1-2.3 2.3-2.3 1.4 0 2.2 1 2.2 2.3 0 52.3 65.3 95 145.6 95 80.2 0 145.4-42.7 145.4-95 0-1.3 1-2.3 2.3-2.3 1.2 0 2.3 1 2.3 2.3 0 54.8-67.4 99.5-150 99.5Z"/>
    <path fill="#0092FF" d="M150 155.9c-68.7 0-124.6-32.6-124.6-72.7 0-10.9 5.1-23.8 13.4-33.7.7-1 2.2-1.1 3-.3 1.1.8 1.2 2.2.4 3.1a52 52 0 0 0-12.3 31c0 37.5 53.8 68 120.1 68s120-30.5 120-68c0-14.6-7.3-28.6-20.6-39.4-1-.9-1.2-2.2-.4-3.2 1-1 2.3-1.1 3.2-.3a55.7 55.7 0 0 1 22.3 43c0 40-56 72.5-124.6 72.5h.2Z"/>
    <path fill="#0092FF" d="M150 300c-1.2 0-2.2-1-2.2-2.3V2.3c0-1.3 1-2.3 2.3-2.3 1.2 0 2.2 1 2.2 2.3v295.4c0 1.3-1 2.3-2.2 2.3Z"/>
    <path fill="#0092FF" d="M75.1 279.6c-.4 0-.9-.2-1.2-.4-25.7-17.6-37.7-43-36-75.4C41.3 140.3 100.1 62.4 150.5 35 198 9.2 241.2 18.7 269.4 61c.7 1 .4 2.5-.7 3.2-1 .7-2.4.4-3-.7-26.7-40-67.9-49-113-24.5C103.4 65.8 45.8 142 42.5 204.1c-1.6 30.7 9.8 54.8 34 71.4 1 .8 1.3 2.2.6 3.2-.5.7-1.1 1-1.8 1l-.2-.1Z"/>
    <path fill="#0092FF" d="M225 279.6c-.7 0-1.4-.4-1.9-1-.7-1-.4-2.4.6-3.1 24.2-16.6 35.7-40.7 34-71.5-3.3-62-61-138.3-110.2-165-45.2-24.6-86.3-15.6-113 24.5-.7 1-2.1 1.3-3 .6-1.1-.6-1.4-2-.8-3.1 28.2-42.3 71.5-51.8 119-26C200 62.2 258.8 140.2 262.1 203.6c1.7 32.5-10.4 57.8-36 75.4-.3.3-.7.4-1.2.4Z"/>
  </g>
  <defs>
    <clipPath id="a">
      <path fill="#fff" d="M0 0h300v300H0z"/>
    </clipPath>
  </defs>
</svg>