<svg xmlns="http://www.w3.org/2000/svg" width="202" height="300" fill="none" viewBox="0 0 202 300">
  <g fill-rule="evenodd" clip-path="url(#a)" clip-rule="evenodd">
    <path fill="#002298" d="m189.8 36.6-35.4-14.3L129.6 2 12 69.9l60.3 34.7 117.6-68Z"/>
    <path fill="#0092FF" d="m15.7 69.9 56.5 32.6 113.3-65.6-31.8-12.8-.5-.3-23.8-19.6L15.7 69.9Zm56.5 36.6c-.3 0-.7 0-1-.2L11 71.5c-.6-.3-1-1-1-1.6a2 2 0 0 1 1-1.7L128.7.2a2 2 0 0 1 2.1.2l24.6 20.3 35.2 14.2c.6.3 1 1 1.1 1.6a2 2 0 0 1-1 1.8l-117.6 68-1 .2Z"/>
    <path fill="#002298" d="M139.7 183.7 129.7 2 11.9 70 2 263.4l137.8-79.7Z"/>
    <path fill="#0092FF" d="M13.7 71 4 260l133.8-77.4L128 5 13.7 71ZM2 265.2a2 2 0 0 1-1-.2c-.6-.4-1-1-.9-1.7L10 69.8c0-.7.4-1.2 1-1.6L128.7.2a2 2 0 0 1 1.8 0c.6.3 1 1 1 1.6l10 181.9c.1.7-.2 1.3-.8 1.7L2.8 265a2 2 0 0 1-1 .3Z"/>
    <path fill="#291AD8" d="M72.2 104.6 47.3 84.2 12 69.9 2 263.4 62 298l10-193.5Z"/>
    <path fill="#0092FF" d="M3.8 262.3 60.3 295l9.9-189.5-23.9-19.7-32.6-13.2-10 189.7ZM62 300c-.3 0-.7 0-1-.3L1 265c-.6-.3-1-1-.9-1.7L10 69.8c0-.6.4-1.2 1-1.5a2 2 0 0 1 1.6-.2L48 82.4l.5.3 24.8 20.4c.5.4.8 1 .7 1.6L64 298.2a2 2 0 0 1-1 1.6l-.9.2Z"/>
    <path fill="#002298" d="M200 218.5 189.7 36.6l-117.6 68L62 298.1l137.8-79.6Z"/>
    <path fill="#0092FF" d="m74 105.8-9.9 189L198 217.5 188 39.9 74 105.8ZM62 300c-.3 0-.6 0-1-.2a2 2 0 0 1-.8-1.7l10-193.5c0-.7.4-1.3 1-1.6l117.7-68a2 2 0 0 1 2.8 1.6l10 181.8c.2.7-.2 1.4-.9 1.8L63 299.8l-.9.3Z"/>
    <path fill="#0092FF" d="M115.6 174.8c-3.6 0-7-.8-10-2.5-7-4.1-11-12.6-11-24v-31c0-1 .9-1.8 2-1.8 1 0 1.8.8 1.8 1.9v31c0 9.9 3.2 17.2 9.2 20.6 5.9 3.5 13.8 2.6 22.4-2.4a74.3 74.3 0 0 0 33.5-58v-31c0-1 .9-2 2-2 1 0 1.8 1 1.8 2v31c0 22.5-15.9 50-35.4 61.3a33 33 0 0 1-16.3 5Z"/>
    <path fill="#291AD8" d="m189.8 36.6-35.4-14.3L129.6 2l3.7 67.4 56.5-32.7Z"/>
    <path fill="#0092FF" d="m131.8 6 3.3 60 50.4-29-31.8-13-.5-.2L131.7 6Zm1.6 65.2-1-.3c-.5-.3-.8-.9-.9-1.5L127.8 2a2 2 0 0 1 1-1.8 2 2 0 0 1 2 .2l24.7 20.3 35 14.2c.7.3 1.2 1 1.3 1.6a2 2 0 0 1-1 1.8l-56.5 32.6a2 2 0 0 1-1 .3Z"/>
    <path fill="#0092FF" d="M189.8 38.5h-.7l-35.9-14.7-24.8-20.4a1.9 1.9 0 0 1 2.4-3l24.6 20.3 35.1 14.2c1 .4 1.5 1.5 1 2.5-.2.7-1 1.2-1.7 1.2Z"/>
    <path fill="#0092FF" d="M12 71.7a2 2 0 0 1-1.7-.9c-.5-.9-.2-2 .7-2.6L128.7.2c.9-.5 2-.2 2.5.7.6 1 .3 2.1-.6 2.6l-117.7 68a2 2 0 0 1-1 .2Z"/>
  </g>
  <defs>
    <clipPath id="a">
      <path fill="#fff" d="M0 0h201.8v300H0z"/>
    </clipPath>
  </defs>
</svg>