<svg xmlns="http://www.w3.org/2000/svg" viewBox="0 0 576 144" width="576" height="144" class="logo-size">
  <path fill="#fff" d="M551.9 82.8a11.2 11.2 0 1 0-3.3-7.9 11.1 11.1 0 0 0 3.3 8m-18.8 18.7a8.6 8.6 0 1 0-2.5-6.1 8.6 8.6 0 0 0 2.5 6m.1-41.1a8.6 8.6 0 1 0-2.6-6 8.6 8.6 0 0 0 2.6 6M514 120.8a6.6 6.6 0 1 0-2-4.7 6.6 6.6 0 0 0 2 4.7m0-41.2a6.6 6.6 0 1 0-2-4.7 6.6 6.6 0 0 0 2 4.7m0-41.1a6.6 6.6 0 1 0-2-4.7 6.6 6.6 0 0 0 2 4.7m-19.5 60.6a5 5 0 1 0-1.5-3.6 5 5 0 0 0 1.5 3.6m0-41.1a5 5 0 1 0-1.5-3.6 5 5 0 0 0 1.5 3.6m-19.8 19.7a4 4 0 1 0-1.1-2.7 3.9 3.9 0 0 0 1.1 2.7M145.6 54.6v-9.7a49.3 49.3 0 0 0 14.6 2.6q8.7 0 8.7-4.6a3.8 3.8 0 0 0-1.2-2.9q-1.4-1.2-6.7-3.5-9.7-4-12.6-6.7a12.5 12.5 0 0 1-3.8-9.4q0-7.2 5.5-11t14.3-3.8a79.4 79.4 0 0 1 14 1.8v9.3a34.3 34.3 0 0 0-12.7-2.7q-8.2 0-8.2 4.5a3.2 3.2 0 0 0 1.6 2.8q1.4.8 7.6 3.6 9 4 12 7a12.2 12.2 0 0 1 3.5 9 13.4 13.4 0 0 1-7 12.1q-5.5 3.4-14.5 3.4a66.5 66.5 0 0 1-15.1-1.8m44.3.8h13.7v-49h-13.7zM216 6.5v48.9h35.7V46h-22.5V34.4h19v-8h-19v-11h22v-9zm87.2 0-12.6 31.2-12.3-31.2h-17.7v48.9h9.6V20.8l14 35h8.6l14.3-35v34.6h13v-49zm29.4 0v48.9h35.6V46h-22.4V34.4h19v-8h-19v-11h21.8v-9zm77.2 0v32.7L393 6.5h-15.8v48.9h9.6V22.2l17.3 33.2h15.3v-49zm19.3 48.1v-9.7a48.8 48.8 0 0 0 14.6 2.6q8.8 0 8.8-4.6a3.8 3.8 0 0 0-1.2-2.9q-1.3-1.2-6.8-3.5-9.6-3.9-12.6-6.7a12.5 12.5 0 0 1-3.8-9.4q0-7.2 5.6-11 5.4-3.8 14.2-3.8a68 68 0 0 1 12.8 1.6l1.2.2v9.3a34.4 34.4 0 0 0-12.7-2.7q-8.2 0-8.2 4.5a3.2 3.2 0 0 0 1.7 2.8q1.3.8 7.6 3.6 9 4 12 7a12.1 12.1 0 0 1 3.4 9A13.4 13.4 0 0 1 459 53q-5.7 3.4-14.6 3.4a66.5 66.5 0 0 1-15.2-1.8M343.3 105.5c0 5.8-7.8 7.1-13.3 7.3.2-5.8 3.3-11.5 9-11.5a4 4 0 0 1 4.3 4.2m10.3-.1c0-8-5.5-12.3-14-12.3-13.8 0-21 11.3-21 23.7 0 12.6 5.7 21.6 20 21.6a26.6 26.6 0 0 0 15.5-4.8l-3.4-7.8a18.8 18.8 0 0 1-10.5 3.6c-6.4 0-9.1-4.3-9.7-8.3 10.2-.5 23.1-3 23.1-15.7m30.6.1c0 5.8-7.8 7.1-13.3 7.3.2-5.8 3.3-11.5 9-11.5a4 4 0 0 1 4.3 4.2m10.3-.1c0-8-5.5-12.3-14-12.3-13.8 0-21 11.3-21 23.7 0 12.6 5.7 21.6 20 21.6a26.6 26.6 0 0 0 15.5-4.8l-3.4-7.8a18.8 18.8 0 0 1-10.5 3.6c-6.4 0-9.1-4.3-9.7-8.3 10.2-.5 23-3 23-15.7m-314.4.1c0 5.8-7.8 7.1-13.3 7.3.3-5.8 3.3-11.5 9-11.5a4 4 0 0 1 4.3 4.2m10.3-.1c0-8-5.5-12.3-14-12.3-13.8 0-21 11.3-21 23.7 0 12.6 5.8 21.6 20 21.6a26.6 26.6 0 0 0 15.5-4.8l-3.4-7.8a18.8 18.8 0 0 1-10.5 3.6c-6.4 0-9.1-4.3-9.7-8.3 10.2-.5 23.1-3 23.1-15.7M34.3 81v22.4H17V81H5v56h12v-23h17.3v23.2h12V81zm89 42.4c0 3.1-2.5 6.4-7 6.4-6.2 0-7.6-6-7.6-12.9 0-8.2 2.4-15.1 9.3-15.1a14 14 0 0 1 5.3.9zm12.5 13.7-.9-8.5V96.2a50.2 50.2 0 0 0-15.5-3.1c-15 0-22.3 9.7-22.3 24.5 0 11.4 4 20.7 16.3 20.7a13 13 0 0 0 11.3-5.6h.4l.6 4.4zm9.7-56v43.3c0 7 .7 14 12.9 14a22.4 22.4 0 0 0 10.7-2.7l-2.6-7.9a14.5 14.5 0 0 1-5.1 1.4c-3.1 0-4.1-1.9-4.1-6.5V81zm73.1 55.9v-27.5a7.2 7.2 0 0 1 7.2-7.4c4.5 0 5.4 3.4 5.4 7.8V137h11.7v-29c0-10-4.8-15-13.6-15a14.4 14.4 0 0 0-10.7 4.4V81H207v56zm34.7 0H265V94.4h-11.7zm-.6-56a5.9 5.9 0 0 0 1.8 4.3A6.5 6.5 0 0 0 259 87a6.7 6.7 0 0 0 4.6-1.7 6 6 0 0 0 0-8.6A6.6 6.6 0 0 0 259 75a6.5 6.5 0 0 0-4.6 1.7 6 6 0 0 0-1.8 4.3m34.4 56v-27.3a7.3 7.3 0 0 1 7.4-7.6c4.5 0 5.2 3.5 5.2 8v27h11.8v-29.2c0-10.1-5-14.8-13.4-14.8a15 15 0 0 0-12.8 6.3l-.8-5h-9.8l.8 7.9V137zm128.3-26.5c.2-4.4 2.9-7.3 7.1-7.3a12.8 12.8 0 0 1 6 1.5l2-10.1a15.1 15.1 0 0 0-7-1.5c-3.9 0-8 2.3-10 7.3l-1.1-6h-9.6l.9 7.4V137h11.7zm47.5-13.7v-.1a23.4 23.4 0 0 0-14-3.6c-8.6.4-15.4 5.6-15 14.5s7 11 13.5 12.6c3.6.9 6.7 1.6 6.9 4.8.1 3.2-2 4.6-5.2 4.8a26 26 0 0 1-11.7-3.1l-3.5 8c2.5 1.7 8.8 4 16.3 3.6 9.7-.5 16.1-5.6 15.6-15.1-.5-8.8-7.5-10.7-13.7-12.3-3.8-1-6.7-2-6.9-5.2-.1-2.8 2.1-4 4.9-4.2 2.9-.1 6 1.1 9.3 3.4zm-276.6 6.7h11v-9.2h-11V81h-11.7v13.3H168v9.2h6.5v20.9c0 7 .6 14 12.8 14a22.4 22.4 0 0 0 10.7-2.7l-2.6-7.9a14.5 14.5 0 0 1-5.1 1.4c-3.1 0-4.1-1.9-4.1-6.5z"/>
</svg>