<svg xmlns="http://www.w3.org/2000/svg" width="174" height="256" viewBox="0 0 174 256" fill="none">
  <path fill="#002298" fill-rule="evenodd" d="m104.7 241.6-2.5 4.9c-2.2 3.9-6.8 5.5-10.8 6.3-4 .6-7.5.4-11.4-.5-3.4-1-6.9-2.6-8.7-5.8l-2.5-4.9a65.8 65.8 0 0 0 35.9 0Z" clip-rule="evenodd"/>
  <path fill="#0092FF" fill-rule="evenodd" d="m73 244.8.3.6c1.2 2.1 3.5 3.6 7.3 4.7 3.5.9 6.7 1 10.5.5 4.7-1 7.8-2.6 9.3-5.2l.3-.5a69.9 69.9 0 0 1-27.6 0H73Zm13.7 10.4c-2.4 0-4.7-.3-7.2-.9-5-1.4-8.3-3.7-10-6.8l-2.6-5c-.4-.7-.3-1.6.3-2.3.6-.6 1.5-1 2.3-.7a62.6 62.6 0 0 0 34.5 0c.9-.2 1.8 0 2.3.7.6.7.6 1.6.3 2.4l-2.5 4.9c-2.1 3.8-6.3 6.2-12.4 7.4-1.8.3-3.5.4-5 .4Z" clip-rule="evenodd"/>
  <path fill="#002298" fill-rule="evenodd" d="M114.6 237.4c10.5-6 13.8-14.7 9.9-22.5l-7.6-14.6H56.7L49 214.9c-4 7.8-.6 16.5 10 22.5a61.6 61.6 0 0 0 55.5 0Z" clip-rule="evenodd"/>
  <path fill="#0092FF" fill-rule="evenodd" d="M58 202.5 51.1 216c-3.6 7-.2 14.2 9 19.6a59.2 59.2 0 0 0 53.4 0c9.3-5.4 12.6-12.7 9-19.6l-6.9-13.5H58Zm28.8 43.8a59.2 59.2 0 0 1-28.8-7c-11.3-6.5-15.4-16.2-10.8-25.3l7.6-14.7c.3-.7 1.1-1.2 1.9-1.2h60.2c.9 0 1.6.5 2 1.2l7.5 14.7c4.6 9.1.5 18.8-10.8 25.3-8 4.6-18.4 7-28.8 7Z" clip-rule="evenodd"/>
  <path fill="#0092FF" fill-rule="evenodd" d="M86.8 4.5c-37.3 0-67.9 20.6-78 52.4-10.6 33.4.3 56.2 13.4 78.6 2.8 4.8 5.3 8.1 7.6 11 4 5.4 7.6 10.1 10.4 20.3.7 2.4 1.2 4.8 1.7 7 1.2 6 2.2 10.6 6.9 16.1 7.5 9 20.2 14.4 34.7 15a55 55 0 0 0 41.5-15.1c4.8-5 5.6-9.7 6.7-15.5l1.7-7.5c2.9-10.2 6.4-14.9 10.4-20.2 2.3-3 4.8-6.3 7.6-11.1 13-22.4 23.9-45.2 13.4-78.6-10.1-31.8-40.7-52.4-78-52.4Zm-1 204.7h-2.5a51.5 51.5 0 0 1-37.9-16.5c-5.3-6.3-6.5-12-7.8-18l-1.7-6.7a49 49 0 0 0-9.7-18.8 99 99 0 0 1-7.8-11.5c-13.6-23.2-24.9-47-13.7-82C15.3 22 47.6.2 86.7.2c39.2 0 71.5 21.7 82.2 55.5 11 35-.2 58.8-13.7 82-3 5-5.6 8.5-8 11.5-3.9 5.2-7 9.4-9.7 18.8-.7 2.5-1.1 4.8-1.5 7.1-1.2 6-2.3 11.9-8 17.8a59 59 0 0 1-42.2 16.4v-.1Z" clip-rule="evenodd"/>
  <path fill="#002298" fill-rule="evenodd" d="M109.4 223.2c12.4-7.2 12.4-18.9 0-26a49.8 49.8 0 0 0-45.2 0c-12.4 7.1-12.4 18.8 0 26a49.8 49.8 0 0 0 45.2 0Z" clip-rule="evenodd"/>
  <path fill="#0092FF" fill-rule="evenodd" d="M86.8 193.9c-7.8 0-15.6 1.7-21.5 5.1-5.3 3.1-8.3 7-8.3 11.2 0 4 3 8 8.3 11.1a47.6 47.6 0 0 0 43 0c5.3-3 8.3-7 8.3-11.1s-3-8-8.3-11.2c-6-3.4-13.7-5.1-21.5-5.1Zm0 36.8c-8.6 0-17.2-1.8-23.7-5.6-6.7-3.9-10.4-9.2-10.4-15 0-5.6 3.6-11 10.4-14.8 13-7.6 34.3-7.6 47.3 0 6.7 3.9 10.5 9.2 10.5 14.9 0 5.7-3.7 11-10.5 14.9a48.6 48.6 0 0 1-23.6 5.6Z" clip-rule="evenodd"/>
  <path fill="#002298" fill-rule="evenodd" d="M114.6 225.4c10.5-6 13.8-14.7 9.9-22.4l-7.6-14.7H56.7L49 203c-4 7.7-.6 16.4 10 22.4a61.2 61.2 0 0 0 55.5 0Z" clip-rule="evenodd"/>
  <path fill="#0092FF" fill-rule="evenodd" d="M58 190.4 51.1 204c-3.6 7-.2 14.3 9 19.6a59.2 59.2 0 0 0 53.4 0c9.3-5.3 12.6-12.6 9-19.6l-6.9-13.5H58Zm28.8 43.8a59.2 59.2 0 0 1-28.8-7C46.7 220.9 42.6 211 47.2 202l7.6-14.7c.3-.7 1.1-1.2 1.9-1.2h60.2c.9 0 1.6.5 2 1.2l7.5 14.7c4.6 9.1.5 18.9-10.8 25.4-8 4.6-18.4 6.9-28.8 6.9Z" clip-rule="evenodd"/>
  <path fill="#291AD8" fill-rule="evenodd" d="M115 167c15.5 9 15.5 23.6 0 32.5a62 62 0 0 1-56.3 0c-15.5-9-15.5-23.5 0-32.4a62 62 0 0 1 56.2 0Z" clip-rule="evenodd"/>
  <path fill="#0092FF" fill-rule="evenodd" d="M86.8 162.5c-9.8 0-19.6 2.2-27 6.5-6.9 4-10.7 9-10.7 14.3 0 5.3 3.8 10.4 10.6 14.3a59.7 59.7 0 0 0 54 0c6.8-4 10.5-9 10.5-14.3 0-5.3-3.7-10.4-10.5-14.3a55.3 55.3 0 0 0-27-6.5Zm0 46a59.4 59.4 0 0 1-29.2-7c-8.2-4.8-12.7-11.2-12.7-18.1 0-7 4.5-13.4 12.7-18.2a64.9 64.9 0 0 1 58.4 0c8.2 4.7 12.7 11.2 12.7 18.2s-4.5 13.3-12.7 18c-8 4.7-18.6 7-29.2 7Z" clip-rule="evenodd"/>
  <path fill="#002298" fill-rule="evenodd" d="M126.5 184.4v13.9c-.1 2.6-1.3 5.4-2.8 7.5-5.4 7.8-16.6 11.9-25.6 13.4a61 61 0 0 1-40.8-6.7c-4.6-3-9-7.5-10-13.2l-.1-1v-13.9c.2 1.6.4 2.8 1 4.4 3.6 8.3 13.8 13.2 22 15.4a62 62 0 0 0 46.2-5.5c4.7-3 9.1-7.4 10-13.2l.2-1Z" clip-rule="evenodd"/>
  <path fill="#0092FF" fill-rule="evenodd" d="m49.3 194.7.1 4.4c1 5.7 6 9.7 9 11.6a58.6 58.6 0 0 0 39.4 6.3c4-.7 18-3.6 24-12.5 1.5-2 2.4-4.4 2.5-6.4v-3.5c-1.7 2.2-4 4.1-6.8 6a64.3 64.3 0 0 1-48 5.6 41.3 41.3 0 0 1-20.2-11.5Zm37.4 27.6c-10.1 0-21.5-2.2-30.6-8-6.3-3.9-10.1-9.1-11-14.6l-.2-1.2v-14c0-1.2 1-2.2 2-2.3 1.1-.1 2.2.8 2.3 2 .2 1.4.4 2.4 1 3.7 3.7 9 16.5 13 20.3 14.1 15.1 4 33.4 1.9 44.6-5.2 3-1.9 8-5.9 9-11.7l.1-1a2 2 0 0 1 2.3-1.9c1.1 0 2 1 2 2.2v13.9c0 2.8-1.4 6-3.2 8.7-7 9.9-21.2 13.3-26.9 14.3-3.5.5-7.5 1-11.7 1Z" clip-rule="evenodd"/>
  <path fill="#291AD8" fill-rule="evenodd" d="M100.8 167.5V179.8l-.1.1-.1.1-.1.1h-.1L80 191.8l-.1.1h-.2l-.2.1h-.2l-.1.1H78.4l-.2-.1h-.1l-.2-.1h-.1v-.1l-1.6-.9-3.7-2.2h-.1l-.1-.1-.2-.2V176 176.5l.1.1.2.2h.1l3.7 2.2 1.5.9h.1l.1.1H78.2l.2.1h.1l.1.1h1l.2-.1.2-.1h.1l20.3-11.8.2-.1.1-.2.1-.1v-.2Z" clip-rule="evenodd"/>
  <path fill="#0092FF" fill-rule="evenodd" d="m74.2 187.2 4.6 2.7 19.9-11.3v-7l-17.4 10.1-.5.2-.7.3-.6.1H78.2l-.7-.2-.5-.2-2.8-1.6v7Zm4.7 7.1h-.7l-.5-.2-.5-.2-.6-.2-5.2-3-.7-.5-.5-.5-.2-.6-.2-.7v-12.2c0-1.2 1-2.2 2.1-2.2 1-.1 1.8.5 2.2 1.3l4.7 2.6 20.1-11.3a2 2 0 0 1 2.2-1.4c1.1 0 2 1.2 2 2.3v12l-.1.7-.2.5c0 .2-.2.4-.3.5l-.5.6-.4.3-20.3 11.7-.5.2-.7.2-.5.1H79Z" clip-rule="evenodd"/>
  <path fill="#291AD8" fill-rule="evenodd" d="m95 163.7 5.4 3.1c.6.4.6 1 0 1.4L80 179.8c-.6.4-1.7.4-2.3 0h-.1l-1.5-.9-3.8-2.2c-.6-.3-.6-1 0-1.3l20.2-11.7c.7-.3 1.7-.3 2.3 0h.1Z" clip-rule="evenodd"/>
  <path fill="#0092FF" fill-rule="evenodd" d="m75.7 176 3 1.9 18.4-10.4-3.1-1.9-18.3 10.5Zm3.2 6.3c-.8 0-1.6-.2-2.2-.6l-5.4-3a3 3 0 0 1-1.6-2.6c0-1 .6-2 1.6-2.6l20.3-11.7c1.2-.7 3.1-.7 4.4 0l5.4 3.1a3 3 0 0 1 1.5 2.6c0 1-.5 2-1.5 2.5L81 181.7c-.6.4-1.4.6-2.2.6Z" clip-rule="evenodd"/>
  <path fill="#0092FF" fill-rule="evenodd" d="M93.5 169.1c-1.2 0-2.1-1-2.1-2.2 0-28.9 10.6-69.2 13.8-81a2.3 2.3 0 0 1 2.7-1.5c1.1.3 1.8 1.5 1.5 2.7-6.7 23.8-13.7 57.3-13.7 79.8 0 1.2-1 2.2-2.2 2.2Zm-13.7 8c-1.2 0-2.1-1-2.1-2.3 0-21.2-5-46.4-12.9-65.6a2 2 0 0 1 1.2-2.8c1.1-.4 2.4 0 2.8 1.2A188.7 188.7 0 0 1 82 175c0 1.2-1 2.2-2.2 2.2Z" clip-rule="evenodd"/>
  <path fill="#0092FF" fill-rule="evenodd" d="M74 95.2c-1.5 1.1-3.5 4-3.9 6.6l-1.2 7.3c-.2 1.2 0 1.6 0 1.6 1.4-1.1 3.4-4 3.8-6.6l1.2-7.4c.2-1.2 0-1.6 0-1.6Zm-5.4 19.7c-.8 0-1.6-.2-2.2-.7-1-.7-2.3-2.2-1.7-5.8l1.2-7.4c.6-3.8 3.2-7.9 6.1-9.3 1.7-.9 3.3-.9 4.6 0 .8.7 2.3 2.2 1.7 5.7l-1.2 7.4c-.6 3.9-3.3 7.9-6.1 9.4a5 5 0 0 1-2.4.6Z" clip-rule="evenodd"/>
  <path fill="#0092FF" fill-rule="evenodd" d="M82.5 88c-1.4 1-3.3 3.9-3.8 6.6l-1.9 11.7c-.2 1.2 0 1.7 0 1.7 1.4-1.2 3.3-4 3.8-6.7l2.1.4-2-.4 1.8-11.8c.2-1.2 0-1.6 0-1.6Zm-6 24c-.8 0-1.6-.2-2.2-.6-1-.7-2.3-2.2-1.7-5.8l1.9-11.8c.6-4 3.2-8 6.1-9.4 1.6-.9 3.3-.9 4.6 0 .9.7 2.3 2.2 1.7 5.8l-2 11.8c-.5 4-3.2 8-6 9.4a5 5 0 0 1-2.4.7Z" clip-rule="evenodd"/>
  <path fill="#0092FF" fill-rule="evenodd" d="M91.1 80.8a13 13 0 0 0-3.8 6.6l-2.7 16.3c-.2 1.2 0 1.6 0 1.6 1.5-1.1 3.4-4 3.9-6.7L91 82.4c.3-1.2 0-1.6 0-1.6Zm-6.8 28.6c-.8 0-1.6-.2-2.2-.7-.8-.6-2.3-2.1-1.7-5.7l2.7-16.2c.6-3.9 3.2-8 6.1-9.4 1.7-.8 3.4-.8 4.6 0 .9.7 2.3 2.3 1.7 5.8l-2.7 16.2c-.6 4-3.2 8-6.1 9.4-.9.4-1.6.6-2.4.6Z" clip-rule="evenodd"/>
  <path fill="#0092FF" fill-rule="evenodd" d="M99 77.8c-1.4 1-3.4 3.9-3.8 6.6l-1.9 11.8c-.2 1.2 0 1.6 0 1.6 1.4-1.1 3.4-4 3.8-6.6l2-11.8c.1-1.2 0-1.6 0-1.6Zm-6 24c-.9 0-1.6-.1-2.3-.6-.8-.6-2.3-2.2-1.7-5.8l2-11.8a14 14 0 0 1 6-9.4c1.7-.9 3.4-.9 4.7 0 .8.7 2.2 2.2 1.6 5.8l-1.9 11.8c-.6 3.9-3.2 8-6.1 9.4a5 5 0 0 1-2.4.6Z" clip-rule="evenodd"/>
  <path fill="#0092FF" fill-rule="evenodd" d="M106.8 75.7c-1.4 1.1-3.3 4-3.8 6.6l-1.2 7.3c-.2 1.2 0 1.6 0 1.6 1.4-1 3.3-3.8 3.8-6.6l1.2-7.3c.2-1.2 0-1.7 0-1.7v.1Zm-5.4 19.7c-.7 0-1.5-.2-2.1-.7-.9-.6-2.3-2.2-1.7-5.7l1.2-7.3a14 14 0 0 1 6.1-9.5c1.6-.8 3.3-.8 4.6.1.8.7 2.3 2.2 1.7 5.8l-1.2 7.3c-.6 4-3.3 8-6.2 9.4a5 5 0 0 1-2.4.7v-.1Z" clip-rule="evenodd"/>
</svg>