<svg
  xmlns="http://www.w3.org/2000/svg"
  fill="none"
  viewBox="0 0 390 66"
  width="390"
  height="66"
>
  <path
    fill="#fff"
    d="M60.3.3h-7.7L30 49 7.7.3H0l30 65.5L60.4.3Zm11.1 12.1v53.4h7V0l-7 12.4ZM139.6 7l-4-7h-27.8a18.2 18.2 0 0 0 0 36.4H125c6.2 0 11 5 11 11.1a11 11 0 0 1-11 11.2H93.2l4 7h27.7a18.2 18.2 0 0 0 0-36.4h-17.1a11.2 11.2 0 0 1 0-22.3h31.8Zm14.6 5.4v53.4h7V0l-7 12.4Zm38 50.6a32.6 32.6 0 0 0 36-53.1l-4.1 6a25.6 25.6 0 0 1-27.9 41.3l-4 5.9Zm-12.7-29.9a25.5 25.5 0 0 1 34.5-24l4-6a32.8 32.8 0 0 0-35.9 53.3l4-6a25.2 25.2 0 0 1-6.6-17.3Zm116.8 1.2 7-12.4V.7l-7 12.4v21.2Zm-2.4 31.5h9L249 .7v65h7V21l38 44.9Zm20.6-3.8a3.7 3.7 0 1 0 3.7-3.8c-2 0-3.7 1.8-3.7 3.9Zm18.7-62v65.8h7V12.4l-7-12.4ZM390 0h-7v29.5h-25.1l4 7h21v29.3h7.1V0Z"
  />
</svg>
