<svg fill="none" height="77" viewBox="0 0 1230 77" width="1230" xmlns="http://www.w3.org/2000/svg"><path d="m95.5024.887132h11.6786v74.509668h-11.6786zm91.9546 36.811268h11.235v29.1238c-3.991 3.1046-8.722 5.3221-14.192 7.0962-5.47 1.774-10.94 2.5132-16.853 2.5132-8.279 0-15.671-1.6262-22.324-4.8786-6.652-3.2524-11.827-7.8353-15.67-13.601-3.844-5.7656-5.618-12.2704-5.618-19.5144s1.922-13.7488 5.618-19.5144c3.843-5.7656 9.018-10.34857 15.67-13.60097 6.653-3.25241 14.193-4.878608 22.471-4.878608 6.505 0 12.567 1.034858 17.889 2.956728 5.322 1.92188 9.905 4.87861 13.601 8.57455l-7.244 6.6526c-6.505-5.7656-14.488-8.5745-23.802-8.5745-6.209 0-11.827 1.1827-16.853 3.6959-5.027 2.5132-8.871 5.9135-11.679 10.2007-2.809 4.2873-4.288 9.3137-4.288 14.7837 0 5.3221 1.479 10.2007 4.288 14.6358 2.808 4.4351 6.652 7.8353 11.679 10.2007 5.026 2.5132 10.496 3.6959 16.705 3.6959 7.392 0 13.749-1.6262 19.219-4.7307v-24.8366zm32.376-36.811268h11.679v74.509668h-11.679zm51.447 9.165868h-28.089v-9.165868h67.857v9.313668h-28.089v65.196h-11.531v-65.3438zm99.346 46.7163h-43.612l-8.87 18.6275h-12.122l37.107-74.509668h11.531l37.403 74.509668h-12.271zm-3.991-8.5745-17.741-36.5156-17.74 36.5156zm36.367-47.307668h11.679v65.195968h44.351v9.3137h-56.03zm-361.9034.147838h-41.0986l10.4964 10.49643h30.6022c14.7836 0 26.7584 11.9747 26.7584 26.7584 0 14.7836-12.1226 26.7584-26.7584 26.7584h-30.6022v-26.6106l-10.4964-.1478v37.2548h41.0986c20.5492 0 37.2548-16.7055 37.2548-37.2548s-16.7056-37.25483-37.2548-37.25483zm479.5814 19.36663-18.923-18.92312h14.784l18.923 18.92312zm55.587-18.92312-24.837 24.68872-15.966 15.9663-33.263 33.2633h14.783l29.42-29.4195 29.419 29.4195h14.784l-36.811-36.8114 37.254-37.10692zm233.286 64.60462v9.3137h-59.43v-74.509668h57.804v9.313668h-46.125v22.9147h40.95v9.018h-41.098v24.0974h47.899zm17.74-65.195968h34.594c8.722 0 16.41 1.626198 23.063 4.730768 6.652 3.10457 11.974 7.5397 15.67 13.1575 3.696 5.6177 5.618 12.1225 5.618 19.3665s-1.922 13.7488-5.618 19.3666-8.87 10.0529-15.67 13.1575c-6.801 3.1045-14.488 4.7308-23.063 4.7308h-34.594zm33.855 65.195968c6.652 0 12.418-1.1827 17.445-3.5481 5.026-2.3654 8.87-5.6178 11.679-9.9051 2.661-4.2872 4.139-9.1658 4.139-14.6358 0-5.4699-1.33-10.3486-4.139-14.6358-2.661-4.2873-6.653-7.5397-11.679-9.9051-5.027-2.3653-10.94-3.54804-17.445-3.54804h-22.176v56.03004h22.176zm61.648-65.195968h11.679v74.509668h-11.679zm49.673 70.370168c-6.653-3.2524-11.827-7.8353-15.523-13.6009-3.696-5.7657-5.618-12.2705-5.618-19.5145s1.922-13.7488 5.618-19.5144 8.87-10.34854 15.523-13.60094c6.652-3.25241 14.044-4.878611 22.175-4.878611 6.356 0 12.266 1.034851 17.596 2.956731 5.32 1.92188 9.9 4.87861 13.6 8.72232l-7.54 6.6527c-6.21-5.9135-13.9-8.87021-23.064-8.87021-6.062 0-11.532 1.18271-16.558 3.69591-4.879 2.5132-8.722 5.9135-11.531 10.2007-2.809 4.4351-4.14 9.3137-4.14 14.6358 0 5.3222 1.331 10.2008 4.14 14.6359s6.652 7.8353 11.531 10.2007c4.879 2.5132 10.348 3.6959 16.558 3.6959 9.164 0 16.854-2.9567 23.064-8.8702l7.54 6.6526c-3.7 3.8438-8.28 6.8005-13.6 8.7224-5.33 1.9219-11.24 2.9567-17.596 2.9567-8.279.1479-15.67-1.6262-22.175-4.8786zm68.891-70.370168h11.68v74.509668h-11.68zm105.7 0v74.509668h-9.61l-49.23-55.5866v55.5866h-11.67v-74.509668h9.61l49.22 55.586568v-55.586568zm82.94 65.195968v9.3137h-59.43v-74.509668h57.8v9.313668h-46.12v22.9147h41.1v9.018h-41.1v24.0974h47.75zm-499.983-65.04813v14.63583l-13.453 13.4531-32.524 32.3762-35.629-35.6286v49.5253h-10.349v-74.509668l46.126 46.124968zm-10.349 74.36183h10.349v-23.8017l-10.349-10.3486z" fill="#fff"/></svg>