<svg xmlns="http://www.w3.org/2000/svg" fill="none" aria-hidden="true" viewBox="0 0 126 61" width="252"><g fill="currentColor"><path d="M99.8 49V36h-7.7V49c0 3.1-1.3 4.4-3.2 4.4-1.8 0-3.1-1.3-3.1-4.4v-4.8H78v4.9c0 8 3.8 11.6 11 11.6S99.7 57 99.7 49Zm0-37.4v13.2h-7.7V11.7c0-3.2-1.3-4.4-3.2-4.4-1.8 0-3.1 1.2-3.1 4.4v4.8H78v-5C78 3.6 81.8 0 89 0s10.8 3.5 10.8 11.6ZM15.4 30v-.8c3.9-.9 5.7-3.4 5.7-9.3v-8.1C21.1 3.7 17.5.7 10.7.7H0V60h11.3c6.6 0 10.6-3 10.7-11.4v-8.2c0-7-2-9.6-6.6-10.3ZM7.7 7.6h2.5c1.8 0 3.3 1.6 3.3 4.6v10c0 3-1.5 4.7-3.3 4.7H7.7V7.6ZM14 48.4c0 3-1.4 4.7-3.2 4.7h-3V33.8h3c1.8 0 3.2 1.6 3.2 4.6v10ZM122 29.9 126 .7h-7.9l-3 26.2h-2.8V.7h-7.7V60h7.7V33.8h2.8l3 26.2h7.9l-4.1-29v-1.1Zm-72 30h-8l-2.2-15.7h7.7L49.9 60Zm-1.3-47.3v3.9h-7.7v-4.3c0-3-1.5-4.6-3.3-4.6h-3V60h-7.8V.7h11.3c6.6 0 10.5 3.2 10.5 11.9ZM66.9.6 63.7 27h-.8L59.8.7h-8.3l7.9 42V60h7.8V42.6L75 .6h-8.2Z"></path></g></svg>