<svg xmlns="http://www.w3.org/2000/svg" width="217" height="302" fill="none">
  <path fill="var(--color-blue-700)" fill-rule="evenodd" d="M128.7 7.4v7.4l4.9 2.8 5.4-3c2.5-1.5 5-1.5 7.5 0L149 16c1 .6 1.7 1.5 1.7 2.8v175c-.2 1.3-.6 2-1.7 2.8L41.8 258.4c-11 6.5-39 7.1-39.5-8.9v-175l.2-.7c.7-6 7.6-8.8 12.2-11.4C48.7 42.6 83 22.9 117.2 3c2.3-1.3 5-1.3 7.5 0l2.3 1.5c1.1.6 1.7 1.6 1.7 2.8Z" clip-rule="evenodd"/>
  <path fill="var(--color-blue-600)" fill-rule="evenodd" d="M121 4.2c-1 0-2 .2-2.7.8L15.7 64.2l-2.3 1.2c-4 2.2-8.5 4.7-9 8.7v175.4c0 3.5 1.8 6.4 5.4 8.3 8.2 4.5 23.7 3 31-1.2l107.1-61.9c.4-.3.6-.4.6-1v-175c0-.5-.2-.8-.6-1l-2.5-1.5c-1.8-1-3.6-1-5.4 0l-5.4 3.1c-.8.4-1.5.4-2.1 0l-4.7-2.7a2 2 0 0 1-1.1-1.9V7.3a1 1 0 0 0-.6-1L123.6 5a5 5 0 0 0-2.7-.8ZM23 264.8a32 32 0 0 1-15.3-3.3A13.6 13.6 0 0 1 0 249.6L.3 73.4c.7-6 6.4-9.2 11-11.7l2.2-1.1L116.1 1.3c3.1-1.7 6.5-1.7 9.7 0l2.3 1.4a5 5 0 0 1 2.7 4.7v6.2l2.7 1.6 4.3-2.5c3-1.8 6.7-1.8 9.7 0L150 14c1.7 1 2.5 2.7 2.5 4.6v175a5 5 0 0 1-2.5 4.6l-107.2 62a41.2 41.2 0 0 1-19.8 4.5Z" clip-rule="evenodd"/>
  <path fill="var(--color-blue-800" fill-rule="evenodd" d="M23.8 69.8 127 10a3 3 0 0 0 1.7-2.7v12.9L30 77.3c-3 1.8-7.2 2.7-10.5.8-1.7-1-1.8-2.4-1.5-3.7.6-2.2 3.6-3.4 5.8-4.6Z" clip-rule="evenodd"/>
  <path fill="var(--color-blue-600)" fill-rule="evenodd" d="M126.7 12.8 24.9 71.6l-1.2.8C22.2 73 20.4 74 20 75c-.2.8.2 1 .5 1.3 3.5 1.9 7.4-.2 8.7-.9l97.4-56.2V12.8Zm-103 68.5c-1.9 0-3.7-.5-5.3-1.4a5 5 0 0 1-2.4-6c.8-2.8 3.5-4.1 5.6-5.2l1-.7L126.2 8.3c.4-.2.6-.6.6-1 0-1.1.9-2 2-2a2 2 0 0 1 2.1 2v13c0 .7-.3 1.5-1 1.8L31 79.1c-2.3 1.5-5 2.2-7.3 2.2Z" clip-rule="evenodd"/>
  <path fill="var(--color-blue-700)" fill-rule="evenodd" d="M65.6 69.6 47 80.4c-5.8 3.3-9 5.7-15.7 7-7.5 1.5-16.1.5-22.5-3.1-6.3-3.7-8.3-9.5-5-14.3L5 68.7c1.8-2 4.4-3.3 6.9-4.7l1.6-.9 13.5-7.8 90.3-52.2c2.3-1.3 5-1.3 7.5 0l2.3 1.5a3.3 3.3 0 0 1 0 5.6L22.5 70.6c-2 1-4.3 2-4.7 4.5 0 1.1.4 2.3 1.7 3 3.4 2 7.5 1 10.5-.8L139 14.5c2.5-1.4 5-1.4 7.5 0L149 16c.9.6 1.6 1.5 1.6 2.8 0 1.2-.7 2.2-1.6 2.8l-83.4 48Z" clip-rule="evenodd"/>
  <path fill="var(--color-blue-600)" fill-rule="evenodd" d="M121 4.2c-1 0-2 .2-2.7.8l-107 61.6c-1.7 1.1-3.5 2-5 3.5l-.8 1c-1 1.5-1.2 3.3-1 5 .6 2.4 2.4 4.6 5.5 6.3a32.2 32.2 0 0 0 21 3c5.3-1 8-2.7 12.3-5.3l21.4-12.4 83.2-48c.3-.3.5-.6.5-1s-.2-.7-.5-1l-2.6-1.4c-1.7-1-3.5-1-5.4 0L31.1 79.1c-4.3 2.6-9.2 3-12.7.8a5.3 5.3 0 0 1-2.6-5c.4-3.3 3-4.7 4.7-5.8l.9-.4L126 8.3c.4-.3.6-.8.6-1 0-.2-.2-.6-.6-1L123.6 5a5 5 0 0 0-2.7-.8Zm-96.5 86c-6.1 0-12-1.5-16.8-4.2-4-2.3-6.4-5.5-7.3-9-.7-2.9 0-5.7 1.7-8.3l1.2-1.5c1.8-2 4-3.1 6-4.4l16.4-9.4 90.4-52.1c3.1-1.7 6.5-1.7 9.7 0l2.3 1.4a5 5 0 0 1 2.7 4.7 5 5 0 0 1-2.7 4.6L22.5 73c-1.7.9-2.3 1.4-2.5 2.2 0 .5.2.8.5 1 3.4 2 7.3 0 8.6-.8L138 12.7c3-1.8 6.6-1.8 9.6 0l2.6 1.4c1.6 1 2.5 2.7 2.5 4.6 0 2-.9 3.6-2.5 4.7L45.3 83.8c-4.3 2.5-7.7 4.6-13.6 5.7-2.4.4-4.9.6-7.2.6Z" clip-rule="evenodd"/>
  <path fill="var(--color-blue-800" fill-rule="evenodd" d="m133.6 17.6-5-2.8L19.4 77.9l.2.2c3.4 2 7.5 1 10.5-.8l103.6-59.7Z" clip-rule="evenodd"/>
  <path fill="var(--color-blue-600)" fill-rule="evenodd" d="M128.7 17.3 25.4 76.9c1.6-.3 3-1 3.7-1.5l100.3-57.8-.7-.3Zm-105 64c-1.9 0-3.7-.4-5.3-1.4-.6-.4-1.1-1.2-1.1-2 0-.6.2-1.4.9-1.8L127.8 13a2 2 0 0 1 2 0l4.9 2.8a2 2 0 0 1 1 1.9 2 2 0 0 1-1 1.8L31 79c-2.3 1.5-5 2.2-7.3 2.2Z" clip-rule="evenodd"/>
  <path fill="var(--color-blue-800" fill-rule="evenodd" d="M160.5 25.8v7.4l4.9 2.8 5.4-3.2c2.3-1.4 5-1.4 7.5 0l2.4 1.5c1 .6 1.6 1.6 1.6 2.8v175c0 1.3-.6 2-1.6 2.8l-107 61.9c-11.2 6.5-39 7-39.6-8.9V92.2c.2-1.5.8-3 1.8-4.2 2-2.8 5.2-4.3 8.1-6l105.1-60.6a7 7 0 0 1 7.3 0L159 23a3 3 0 0 1 1.6 2.8h-.1Z" clip-rule="evenodd"/>
  <path fill="var(--color-blue-600)" fill-rule="evenodd" d="M152.7 22.5c-.8 0-2 .2-2.6.8L43.3 84.8c-2.1 1.3-4.5 2.4-5.9 4.4-.7 1-1 2-1.2 3.2l-.2.8v174.6c.2 3.5 2 6.4 5.5 8.3 8.3 4.5 23.8 3 31-1.3L179.7 213c.3-.2.5-.4.5-1v-175c0-.3-.2-.6-.5-.9l-2.5-1.4c-1.8-1-3.8-1-5.5 0l-5.4 3c-.7.5-1.4.5-2.1 0l-4.9-2.7c-.5-.4-1-1-1-1.8v-7.5a1 1 0 0 0-.6-1l-2.3-1.4a5 5 0 0 0-2.7-.7ZM54.8 283.2a33 33 0 0 1-15.2-3.3 13.6 13.6 0 0 1-7.8-11.8L32 91.8c.2-1.6 1-3.4 2-5 2-2.6 4.7-4.2 7.3-5.7l1.7-.8 104.9-60.6c3-1.8 6.4-1.8 9.5 0L160 21c1.7 1 2.7 2.7 2.7 4.7v6.1l2.7 1.7 4.3-2.6c3.1-1.8 6.7-1.8 9.7 0l2.4 1.5c1.6 1 2.7 2.6 2.7 4.6v175c-.3 2-1 3.5-2.6 4.5l-107.2 62a41.2 41.2 0 0 1-19.8 4.6Z" clip-rule="evenodd"/>
  <path fill="var(--color-blue-800" fill-rule="evenodd" d="M54 89C89 69 124 48.6 158.8 28.4a3 3 0 0 0 1.7-2.6v13L61.8 95.6c-3 1.7-7.2 2.7-10.6.8-1.6-1-1.8-2.5-1.4-3.7.5-2 2.5-2.7 4-3.8h.2Z" clip-rule="evenodd"/>
  <path fill="var(--color-blue-600)" fill-rule="evenodd" d="m55 90.9-.8.5c-1.5.8-2.2 1.2-2.4 2-.2.8.2 1 .6 1.2 3.2 2 7.3-.1 8.4-.8l97.5-56.3v-6.3L55.1 90.9Zm.6 8.7c-2 0-3.8-.4-5.4-1.3a5.4 5.4 0 0 1-2.6-6c.8-2.6 3-3.8 4.5-4.7l.9-.4 104.8-60.6c.3-.2.5-.5.5-1 0-1 1.1-2 2.2-2a2 2 0 0 1 2.1 2.2v13c0 .7-.3 1.4-1 1.8l-98.7 57c-2.5 1.4-5 2-7.3 2Z" clip-rule="evenodd"/>
  <path fill="var(--color-blue-800" fill-rule="evenodd" d="M97.4 88 77.8 99.2c-4.6 2.5-8 5-13.3 6.2-8 1.8-17.2 1-23.8-3-6-3.3-8.1-8.6-5.8-13.1 1.8-3.7 5.2-5.1 8.4-7l9-5.2L149 21.4a7 7 0 0 1 7.3 0l2.6 1.4a3 3 0 0 1 1.6 2.8 3 3 0 0 1-1.6 2.8L55.6 88c-2.3 1.3-5.8 2.6-5.9 5.2 0 1.1.3 2.3 1.7 3 3.4 2 7.5 1 10.6-.8l108.7-62.7c2.3-1.4 5-1.4 7.6 0l2.3 1.5c1 .6 1.6 1.6 1.6 2.8 0 1.1-.5 2.2-1.6 2.8l-83.2 48Z" clip-rule="evenodd"/>
  <path fill="var(--color-blue-600)" fill-rule="evenodd" d="M152.7 22.5c-1 0-2 .2-2.6.8L43 85c-2.6 1.6-4.9 2.8-6.1 5.3-2 3.6 0 7.7 4.9 10.4a31.6 31.6 0 0 0 22.2 2.6c4.1-1 7.2-2.8 10.8-4.8L96.3 86l83.4-48c.3-.3.5-.6.5-1s-.2-.7-.5-1l-2.5-1.4c-1.8-1-3.8-1-5.5 0L63 97.6c-4.5 2.5-9.2 2.8-12.7.7a5.3 5.3 0 0 1-2.7-5c.4-3.5 3.6-5.1 5.8-6.3l1.2-.7 103.3-59.7c.3-.2.5-.5.5-1a1 1 0 0 0-.5-.9l-2.4-1.4a5 5 0 0 0-2.7-.8Zm-96.4 86c-6.1 0-12-1.5-16.7-4.1-6.9-3.9-9.4-10.3-6.5-16 1.8-3.7 4.9-5.4 7.9-7l10.2-6L148 19.7c3-1.8 6.4-1.8 9.5 0L160 21a5.3 5.3 0 0 1 0 9.2L56.5 90l-1.2.7c-1.7.9-3.5 1.8-3.5 3 0 .4.2.7.6 1 3.2 1.9 7.3-.2 8.4-.9L169.6 31c3.1-1.8 6.7-1.8 9.7 0l2.4 1.4c1.6 1 2.7 2.7 2.7 4.6 0 2-1.1 3.6-2.7 4.7L76.9 102a39.1 39.1 0 0 1-11.8 5.4c-3 .6-6 1-8.8 1Z" clip-rule="evenodd"/>
  <path fill="var(--color-blue-800" fill-rule="evenodd" d="m165.3 36-4.9-2.8-109.3 63 .2.3c3.4 2 7.5 1 10.6-.8L165.3 36Z" clip-rule="evenodd"/>
  <path fill="var(--color-blue-600)" fill-rule="evenodd" d="M160.5 35.6 57.2 95.2c1.6-.3 3-1.1 3.5-1.5L161 36l-.6-.4Zm-104.9 64c-2 0-3.8-.4-5.4-1.3-.6-.4-1.1-1.3-1.1-2 0-.8.2-1.5.9-1.9l109.4-63c.7-.4 1.4-.4 2.1 0l4.9 2.7c.7.4 1 1 1 1.9a2 2 0 0 1-1 1.8L62.9 97.5c-2.5 1.5-5 2.1-7.3 2.1Z" clip-rule="evenodd"/>
  <path fill="var(--color-blue-700)" fill-rule="evenodd" d="M192.1 44.5v7.4l4.9 2.8 5.4-3.1c2.3-1.4 5-1.4 7.5 0l2.4 1.4c1 .7 1.6 1.7 1.6 2.8V231c0 1.4-.3 2-1.6 2.8l-107 62c-11.2 6.4-39 6.9-39.6-9V111c.4-2 1.3-3.8 3-5.5 2-2 5-3.4 7.5-4.9l104.5-60.3c2.4-1.4 5-1.4 7.4 0l2.5 1.5a3 3 0 0 1 1.6 2.8h-.1Z" clip-rule="evenodd"/>
  <path fill="var(--color-blue-600)" fill-rule="evenodd" d="M184.1 41.3c-.8 0-1.7.2-2.6.7L75.3 103.3c-1.7 1-4 2.2-5.4 3.6a7.2 7.2 0 0 0-2.1 4.3l-.2.8.2 174.6c0 3.5 1.8 6.3 5.4 8.3 8.1 4.5 23.5 3 31-1.3l107.2-61.9c.3-.2.3-.4.5-1v-175a1 1 0 0 0-.5-.9l-2.6-1.4c-1.8-1-3.5-1-5.4 0l-5.4 3c-.7.4-1.4.4-2.1 0l-4.9-2.7a2.4 2.4 0 0 1-1-1.9v-7.5a1 1 0 0 0-.6-1L187 42c-.9-.4-1.8-.7-2.9-.7v.1ZM86.5 302a34 34 0 0 1-15.5-3.3 14 14 0 0 1-7.5-11.9l.2-176.2A11 11 0 0 1 67 104c1.8-1.9 4.1-3 6.3-4.3l1.7-1 104.4-60.2c3-1.8 6.4-1.8 9.5 0l2.6 1.4c1.5 1 2.6 2.7 2.6 4.6v6.2l2.7 1.6 4.3-2.5c3.1-1.7 6.5-1.7 9.8 0l2.3 1.5a5 5 0 0 1 2.7 4.6V231c0 2.1-1 3.4-2.6 4.6l-107.2 61.9a41.2 41.2 0 0 1-19.7 4.6Z" clip-rule="evenodd"/>
  <path fill="var(--color-blue-800" fill-rule="evenodd" d="m85.6 107.5 51.2-29.7 53.9-31a2.9 2.9 0 0 0 1.6-2.8v13l-98.6 56.9c-3 1.8-7.2 2.7-10.6.8-1.7-.9-2-2.4-1.4-3.7.5-2 2.3-2.6 4-3.5h-.1Z" clip-rule="evenodd"/>
  <path fill="var(--color-blue-600)" fill-rule="evenodd" d="M190.1 49.5 86.7 109.3l-1 .6c-1.4.7-2 1.1-2 1.8-.4.8.1 1.1.5 1.3 3.2 2 7.3-.2 8.4-.8l97.6-56.4v-6.3ZM87.2 118a11 11 0 0 1-5.2-1.4 5.4 5.4 0 0 1-2.5-6 7.7 7.7 0 0 1 4.3-4.4l.7-.5 105-60.7c.4-.2.6-.5.6-1 0-1.1 1.1-2 2.1-2 1.3 0 2 1 2 2v13c0 .8-.3 1.5-.9 1.9l-98.6 57a15 15 0 0 1-7.5 2v.1Z" clip-rule="evenodd"/>
  <path fill="var(--color-blue-700)" fill-rule="evenodd" d="m129.2 106.2-21.1 12.2c-4.2 2.5-6.5 4-11.4 5.2-7.8 2-17.4 1.1-24.2-2.7-6.3-3.6-8.3-9.3-5.4-14 2-3.3 6-5 9.3-7l13.8-8 90.4-52.2a7.4 7.4 0 0 1 7.5 0l2.6 1.4a3 3 0 0 1 1.6 2.8 3 3 0 0 1-1.6 2.8L87.3 106.3c-2 1.3-5.4 2.5-5.8 5-.3 1.2.2 2.5 1.6 3.4 3.4 2 7.5 1 10.6-.9l108.8-62.7a7 7 0 0 1 7.4 0l2.5 1.5c1 .6 1.6 1.6 1.6 2.8 0 1.1-.5 2.2-1.6 2.8l-83.2 48Z" clip-rule="evenodd"/>
  <path fill="var(--color-blue-600)" fill-rule="evenodd" d="M184.4 40.9a5 5 0 0 0-2.7.8l-106 61.2c-2.7 1.5-5.4 3-6.9 5.2a6.2 6.2 0 0 0-.7 4.8c.6 2.4 2.4 4.6 5.3 6.2 6 3.4 15 4.5 22.8 2.5 4-1 5.9-2.1 9.2-4l22.8-13.2 83.2-48c.3-.3.5-.6.5-1s-.2-.7-.5-1l-2.6-1.4c-1.6-1-3.5-1-5.2 0L94.7 115.8c-4.4 2.5-9.1 2.9-12.7.8a5 5 0 0 1-2.5-5.6c.5-3 3.4-4.5 5.7-5.7l1.1-.7L189.6 45c.3-.2.5-.5.5-1 0-.4-.2-.8-.5-.9l-2.6-1.5c-.9-.5-1.8-.7-2.6-.7Zm-96.5 86c-6.1 0-11.9-1.5-16.5-4.2-4-2.2-6.5-5.2-7.4-8.7a9.8 9.8 0 0 1 1.3-8c2-3.3 5.4-5.2 8.4-6.8l15.4-9L179.7 38a9.5 9.5 0 0 1 9.5 0l2.6 1.4c1.6 1 2.5 2.7 2.5 4.7s-.9 3.6-2.5 4.5L88.4 108.3l-1.2.7c-1.6.9-3.4 1.8-3.6 3-.2.5 0 .8.6 1 3.2 2 7.3-.1 8.4-.7l108.8-63c3.1-1.7 6.5-1.7 9.6 0l2.5 1.5c1.6 1 2.7 2.6 2.7 4.6 0 1.9-1.1 3.6-2.7 4.6l-106.1 61.2c-3.3 2-5.6 3.5-10.1 4.5-3.1.7-6.1 1.2-9.3 1.2h-.1Z" clip-rule="evenodd"/>
  <path fill="var(--color-blue-800" fill-rule="evenodd" d="m197.1 54.2-4.9-2.7-109.4 63 .2.2c3.2 2 7.6 1 10.7-.8L197 54.2Z" clip-rule="evenodd"/>
  <path fill="var(--color-blue-600)" fill-rule="evenodd" d="M192.2 54 89 113.5c1.6-.3 3-1.1 3.6-1.5l100.2-57.9-.6-.3Zm-105 64c-2 0-3.8-.5-5.3-1.4-.7-.4-1.2-1.2-1.2-2 0-.7.3-1.5 1-1.9l109.5-63c.8-.4 1.5-.4 2.1 0l4.9 2.7c.6.4 1.1 1.1 1.1 1.8 0 .8-.5 1.5-1.1 1.9L94.7 115.8a15 15 0 0 1-7.5 2.1Z" clip-rule="evenodd"/>
  <path fill="var(--color-blue-700)" fill-rule="evenodd" d="M213.8 57.3v173.5c0 1.4-.3 2-1.6 2.8l-107 62V120l108.6-62.8Z" clip-rule="evenodd"/>
  <path fill="var(--color-blue-600)" fill-rule="evenodd" d="M107.3 121.3v170.5l104-60c.3-.3.3-.4.5-1.1V61l-104.5 60.3Zm-2.1 176.3c-.4 0-.7 0-1.1-.2-.6-.4-1.1-1.1-1.1-1.9V120.1c0-.7.5-1.5 1-1.8l109-62.8c.5-.4 1.4-.4 2 0a2 2 0 0 1 1 1.8v173.5c0 2.2-.9 3.5-2.5 4.6l-107.2 62c-.4.2-.8.2-1.1.2ZM74 267.6a2 2 0 0 1-2.2-2v-127c0-1.1.9-2 2.1-2 1.1 0 2.1 1 2.1 2v127c0 1-1 2-2 2ZM47.5 180.6c-1 0-2.1-1-2.1-2.1v-55c0-1.1 1-2 2.1-2a2 2 0 0 1 2.1 2v55a2 2 0 0 1-2 2ZM40.7 194.7a2 2 0 0 1-2.2-2v-73.2c0-1.2 1-2 2.2-2a2 2 0 0 1 2 2v73.2a2 2 0 0 1-2 2ZM10.3 212.7c-1.1 0-2.1-1-2.1-2V101.8c0-1.2 1-2 2-2a2 2 0 0 1 2.2 2v108.6a2 2 0 0 1-2.1 2.2Z" clip-rule="evenodd"/>
</svg>