<svg width="217" height="302" viewBox="0 0 217 302" fill="none" xmlns="http://www.w3.org/2000/svg">
<path fill-rule="evenodd" clip-rule="evenodd" d="M128.686 7.38533V14.7879L133.554 17.5982L138.97 14.5138C141.506 13.0744 143.975 13.0744 146.511 14.5138L149.048 15.9532C149.939 16.57 150.693 17.5296 150.693 18.7634V193.753C150.488 195.055 150.145 195.809 149.048 196.563L41.8219 258.389C30.8525 264.9 2.8805 265.517 2.33203 249.547V74.4886L2.53771 73.8032C3.2233 67.84 10.0792 65.0297 14.7412 62.3566C48.7463 42.6163 82.8886 22.876 117.168 3.13568C119.499 1.76483 122.173 1.76483 124.71 3.13568L127.041 4.57508C128.137 5.19196 128.686 6.22011 128.686 7.38533Z" fill="#291AD8"/>
<path fill-rule="evenodd" clip-rule="evenodd" d="M120.938 4.16397C120.046 4.16397 118.95 4.43814 118.264 4.98648L15.7 64.2074C14.9458 64.5501 14.2602 64.9613 13.369 65.4411C9.39256 67.5659 4.93623 70.102 4.38776 74.0775V249.547C4.38776 253.042 6.17029 255.853 9.80391 257.772C18.031 262.296 33.5253 260.788 40.7239 256.607L147.95 194.713C148.293 194.438 148.498 194.301 148.498 193.616V18.6265C148.498 18.2152 148.293 17.941 147.95 17.6669L145.413 16.2275C143.631 15.1993 141.848 15.1993 139.997 16.2275L134.581 19.3119C133.827 19.7232 133.141 19.7232 132.456 19.3119L127.794 16.5702C127.039 16.1589 126.697 15.4735 126.697 14.7195V7.31693C126.697 6.90567 126.491 6.56296 126.148 6.35733L123.612 4.91794C122.72 4.3696 121.829 4.09542 120.938 4.09542V4.16397ZM23.0358 264.832C17.4825 264.832 11.8607 263.804 7.74715 261.473C2.87947 258.869 0.205676 254.756 0 249.615L0.274235 73.3921C1.02838 67.3603 6.71876 64.2074 11.3808 61.7398C12.1349 61.3286 12.8205 60.9858 13.5061 60.5746L116.139 1.28518C119.224 -0.428392 122.583 -0.428392 125.805 1.28518L128.136 2.72457C129.919 3.68417 130.81 5.39774 130.81 7.38547V13.5543L133.484 15.1993L137.803 12.6633C140.82 10.8811 144.453 10.8811 147.47 12.6633L150.007 14.1027C151.652 15.0623 152.543 16.7758 152.543 18.695V193.753C152.543 195.878 151.652 197.249 150.007 198.277L42.7807 260.239C37.913 263.118 30.3716 264.832 23.0358 264.832Z" fill="#0092FF"/>
<path fill-rule="evenodd" clip-rule="evenodd" d="M23.7884 69.7596C58.2735 49.8822 92.5529 30.0048 127.038 10.1274C128.135 9.51056 128.683 8.48242 128.683 7.38574V20.2718L30.0273 77.2993C26.9421 79.0814 22.8286 80.041 19.4692 78.1218C17.8238 77.1622 17.6867 75.6542 18.0295 74.4205C18.578 72.1586 21.5946 70.9933 23.7884 69.7596Z" fill="#002298"/>
<path fill-rule="evenodd" clip-rule="evenodd" d="M126.697 12.8003L24.8872 71.6099C24.5444 71.8156 23.9959 72.0897 23.6532 72.3639C22.2134 73.1179 20.4309 74.0775 20.0881 74.9685C19.8824 75.791 20.2938 75.9967 20.6366 76.2708C24.0645 78.19 27.9724 76.1337 29.275 75.4483L126.697 19.1748V12.8689V12.8003ZM23.7903 81.2744C21.8021 81.2744 20.0195 80.7946 18.3741 79.9036C16.2488 78.6698 15.289 76.3394 16.0431 73.8718C16.7973 71.1301 19.4711 69.7593 21.5964 68.6626L22.6933 67.9772L126.149 8.2765C126.491 8.07087 126.697 7.72816 126.697 7.3169C126.697 6.15168 127.588 5.26062 128.685 5.26062C129.919 5.26062 130.811 6.22022 130.811 7.38544V20.2715C130.811 21.0254 130.468 21.7794 129.714 22.1221L31.1261 79.1496C28.7951 80.589 26.1213 81.2744 23.7903 81.2744Z" fill="#0092FF"/>
<path fill-rule="evenodd" clip-rule="evenodd" d="M65.6109 69.5535L46.9629 80.3833C41.204 83.7419 37.9817 86.1409 31.3315 87.4432C23.7901 88.8826 15.1517 87.8544 8.84424 84.2902C2.53683 80.5889 0.548625 74.7628 3.83945 69.9648C4.18224 69.5535 4.5936 69.1423 4.93639 68.6625C6.71892 66.6062 9.2556 65.441 11.7923 64.0016L13.3691 63.1105L26.8752 55.2967L117.167 3.13568C119.498 1.76483 122.172 1.76483 124.709 3.13568L127.04 4.57508C129.165 5.80885 129.165 8.89327 127.04 10.1956C92.2118 30.2786 57.3839 50.4301 22.4874 70.5817C20.4992 71.6784 18.1682 72.6379 17.8254 75.1055C17.8254 76.2022 18.1682 77.3674 19.4709 78.1214C22.8988 80.0406 27.0123 79.081 30.0289 77.2989L138.9 14.5138C141.437 13.0744 143.905 13.0744 146.442 14.5138L148.978 15.9532C149.87 16.57 150.624 17.5296 150.624 18.7634C150.624 19.9972 149.87 20.9568 148.978 21.5737L65.6109 69.6906V69.5535Z" fill="#291AD8"/>
<path fill-rule="evenodd" clip-rule="evenodd" d="M120.938 4.16385C120.047 4.16385 118.95 4.43802 118.264 4.98636L11.3808 66.6062C9.59832 67.7029 7.81579 68.6625 6.37605 70.1019C6.03326 70.3761 5.82758 70.7188 5.48479 71.13C4.59352 72.638 4.25073 74.4201 4.59352 76.0651C5.142 78.4641 6.92452 80.726 10.0097 82.371C15.5629 85.5925 23.6529 86.6892 31.0572 85.3184C36.2677 84.3588 38.9415 82.7137 43.2607 80.1091L64.6511 67.7029L147.881 19.6545C148.224 19.4489 148.43 19.1061 148.43 18.6949C148.43 18.2836 148.224 18.0095 147.881 17.7353L145.345 16.2959C143.562 15.2678 141.78 15.2678 139.929 16.2959L31.1258 79.1495C26.8066 81.6856 21.9389 82.0283 18.3738 79.9035C16.5913 78.8068 15.7001 76.9562 15.8372 74.8313C16.18 71.6098 18.7166 70.1704 20.4992 69.1423L21.3904 68.731L126.148 8.27641C126.491 8.00223 126.697 7.52244 126.697 7.31681C126.697 7.11118 126.491 6.69992 126.148 6.35721L123.612 4.91781C122.72 4.36947 121.829 4.0953 120.938 4.0953V4.16385ZM24.4756 90.1164C18.3738 90.1164 12.4092 88.677 7.74723 86.0038C3.77082 83.7419 1.3027 80.5204 0.411436 77.0247C-0.342711 74.1459 0.411436 71.2671 2.05685 68.731C2.39964 68.1827 2.81099 67.7029 3.29091 67.1546C5.07344 65.2354 7.26732 64.0701 9.39264 62.8364L25.7096 53.446L116.139 1.28505C119.224 -0.428514 122.583 -0.428514 125.806 1.28505L128.137 2.72445C129.919 3.68405 130.81 5.39761 130.81 7.38535C130.81 9.37309 129.919 11.0181 128.137 11.9777L22.4874 72.9121C20.842 73.8717 20.1564 74.3515 19.9507 75.2426C19.9507 75.7224 20.1564 75.9966 20.4992 76.2707C23.9271 78.1899 27.835 76.1337 29.1376 75.4482L137.872 12.6631C140.888 10.881 144.522 10.881 147.539 12.6631L150.075 14.1025C151.721 15.0621 152.612 16.7757 152.612 18.6949C152.612 20.6141 151.721 22.3277 150.075 23.3558L45.3175 83.8104C40.9983 86.3465 37.5703 88.4028 31.6743 89.4995C29.3433 89.9107 26.8066 90.1164 24.4756 90.1164Z" fill="#0092FF"/>
<path fill-rule="evenodd" clip-rule="evenodd" d="M133.554 17.5982L128.686 14.788L19.2666 77.9158L19.4723 78.1214C22.9002 80.1091 27.0137 79.081 30.0303 77.2989L133.554 17.5982Z" fill="#002298"/>
<path fill-rule="evenodd" clip-rule="evenodd" d="M128.686 17.2556L25.3683 76.8878C27.0137 76.6136 28.4534 75.8596 29.139 75.4484L129.372 17.5984L128.686 17.2556ZM23.7914 81.2745C21.8032 81.2745 20.0207 80.8633 18.3753 79.9037C17.8268 79.4924 17.2783 78.7384 17.2783 77.9845C17.2783 77.299 17.484 76.4765 18.1696 76.1338L127.795 12.9375C128.344 12.5947 129.235 12.5947 129.783 12.9375L134.651 15.7477C135.337 16.0904 135.748 16.8444 135.748 17.5984C135.748 18.2838 135.405 19.0378 134.651 19.3805L31.1272 79.1497C28.7962 80.5891 26.1224 81.2745 23.7914 81.2745Z" fill="#0092FF"/>
<path fill-rule="evenodd" clip-rule="evenodd" d="M160.495 25.7556V33.1582L165.362 35.9685L170.778 32.8155C173.109 31.4447 175.783 31.4447 178.32 32.8155L180.651 34.2549C181.748 34.8718 182.296 35.8999 182.296 37.0652V212.123C182.296 213.425 181.748 214.179 180.651 214.865L73.6305 276.759C62.524 283.339 34.6205 283.819 34.1406 267.917V92.1735C34.3463 90.7341 34.8948 89.2947 35.9232 87.9924C37.9114 85.1821 41.1336 83.7427 44.0131 82.0292C79.0467 61.8776 114.08 41.6575 149.114 21.4374C151.445 20.0666 154.119 20.0666 156.45 21.4374L158.986 22.8768C160.083 23.4937 160.632 24.4533 160.632 25.6871L160.495 25.7556Z" fill="#002298"/>
<path fill-rule="evenodd" clip-rule="evenodd" d="M152.747 22.5323C151.856 22.5323 150.759 22.7379 150.074 23.2862L43.3275 84.769C41.2021 86.0713 38.8026 87.2365 37.4314 89.2243C36.7458 90.2524 36.3345 91.2805 36.1973 92.3772L35.9917 93.1998V267.846C36.1973 271.342 37.9799 274.152 41.5449 276.072C49.772 280.595 65.2663 279.087 72.465 274.838L179.691 212.944C180.034 212.67 180.239 212.533 180.239 211.847V36.9948C180.239 36.5835 180.034 36.3093 179.691 36.0352L177.154 34.5958C175.372 33.5676 173.384 33.5676 171.738 34.5958L166.322 37.6802C165.568 38.0914 164.882 38.0914 164.197 37.6802L159.329 34.8699C158.78 34.5272 158.232 33.8418 158.232 33.0878V25.6167C158.232 25.2054 158.026 24.8627 157.684 24.6571L155.353 23.2177C154.461 22.6693 153.57 22.4637 152.679 22.4637L152.747 22.5323ZM54.8453 283.2C49.2921 283.2 43.7388 282.172 39.5567 279.91C34.689 277.305 32.0152 273.193 31.8096 268.052L32.0152 91.8289C32.2209 90.1839 32.9065 88.4018 34.0035 86.8253C35.9917 84.1521 38.6655 82.6442 41.3392 81.1362L42.9847 80.3137L147.88 19.6535C150.896 17.9399 154.324 17.9399 157.409 19.6535L159.946 21.0929C161.591 22.0525 162.62 23.766 162.62 25.7538V31.9226L165.294 33.5676L169.613 31.0315C172.698 29.2494 176.263 29.2494 179.348 31.0315L181.679 32.4709C183.325 33.4305 184.353 35.1441 184.353 37.0633V212.121C184.147 214.178 183.462 215.617 181.816 216.645L74.5903 278.608C69.7226 281.486 62.1811 283.2 54.8453 283.2Z" fill="#0092FF"/>
<path fill-rule="evenodd" clip-rule="evenodd" d="M53.9547 89.019C88.9883 68.8675 124.022 48.6474 158.85 28.4273C159.947 27.879 160.495 26.8508 160.495 25.7542V38.7087L61.839 95.6677C58.7539 97.4498 54.6403 98.4094 51.2124 96.4902C49.567 95.5306 49.4299 94.0227 49.7727 92.7889C50.3211 90.8012 52.3093 90.1157 53.8862 89.019H53.9547Z" fill="#002298"/>
<path fill-rule="evenodd" clip-rule="evenodd" d="M55.0502 90.8706L54.1589 91.419C52.7192 92.1729 52.0336 92.5842 51.8279 93.3381C51.6223 94.1607 52.0336 94.4348 52.3764 94.6405C55.5987 96.5597 59.7122 94.5034 60.8091 93.8179L158.3 37.4759V31.1699L55.0502 90.8706ZM55.5987 99.6441C53.6105 99.6441 51.8279 99.1643 50.1825 98.2732C48.0572 97.0395 47.0974 94.709 47.6459 92.2415C48.4 89.7054 50.5253 88.5402 52.1022 87.6491L52.9934 87.2378L157.751 26.6461C158.094 26.4405 158.3 26.0978 158.3 25.6865C158.3 24.5213 159.397 23.6302 160.494 23.6302C161.728 23.6302 162.619 24.5898 162.619 25.7551V38.7096C162.619 39.4636 162.276 40.2176 161.522 40.5603L62.9345 97.5192C60.3978 98.9586 57.9297 99.6441 55.5987 99.6441Z" fill="#0092FF"/>
<path fill-rule="evenodd" clip-rule="evenodd" d="M97.4222 87.9235L77.8143 99.3016C73.1523 101.838 69.7244 104.237 64.5139 105.47C56.424 107.321 47.3057 106.43 40.6555 102.592C34.6908 99.1645 32.5655 93.8867 34.8965 89.3629C36.6791 85.7302 40.107 84.2908 43.3293 82.4401L52.3105 77.1623C84.4645 58.5873 116.824 40.0122 148.978 21.3686C151.309 19.9977 153.983 19.9977 156.314 21.3686L158.851 22.808C159.948 23.4249 160.496 24.3845 160.496 25.6182C160.496 26.7835 159.948 27.8116 158.851 28.3599C124.366 48.3059 90.0864 68.1832 55.6013 88.1292C53.2703 89.4315 49.8423 90.6652 49.7052 93.3384C49.7052 94.4351 50.048 95.6003 51.3506 96.3543C54.7786 98.2735 58.8921 97.3139 61.9773 95.5318L170.712 32.8152C173.043 31.4444 175.716 31.4444 178.253 32.8152L180.584 34.2546C181.681 34.8715 182.229 35.8996 182.229 37.0649C182.229 38.2301 181.681 39.2582 180.584 39.8751L97.4222 87.9921V87.9235Z" fill="#002298"/>
<path fill-rule="evenodd" clip-rule="evenodd" d="M152.747 22.5323C151.65 22.5323 150.759 22.7379 150.073 23.2862L42.9845 85.0432C40.4478 86.5511 38.1168 87.7849 36.8827 90.321C34.8945 93.8852 36.8827 97.9977 41.7504 100.739C47.6465 104.167 56.1478 105.195 64.032 103.344C68.1455 102.384 71.2307 100.534 74.7957 98.4775L96.3232 86.0028L179.691 37.9544C180.034 37.7487 180.239 37.406 180.239 36.9948C180.239 36.5835 180.034 36.3093 179.691 36.0352L177.154 34.5958C175.372 33.5676 173.383 33.5676 171.738 34.5958L62.9351 97.5179C58.4102 100.054 53.7482 100.397 50.1831 98.2719C48.4006 97.1752 47.3037 95.3246 47.5093 93.2683C47.8521 89.8412 51.0744 88.1961 53.2683 87.0309L54.5023 86.3455L157.752 26.6448C158.095 26.4392 158.3 26.0965 158.3 25.6852C158.3 25.274 158.095 24.9312 157.752 24.7256L155.421 23.2862C154.53 22.7379 153.638 22.5323 152.747 22.5323ZM56.2849 108.485C50.1831 108.485 44.2185 107.045 39.5565 104.372C32.7006 100.534 30.2325 94.0908 33.112 88.4018C34.8945 84.7005 37.9797 82.9869 40.9963 81.3419L51.2115 75.3787L147.879 19.6535C150.896 17.9399 154.324 17.9399 157.409 19.6535L159.946 21.0929C161.591 22.0525 162.62 23.766 162.62 25.7538C162.62 27.7415 161.523 29.3865 159.946 30.3461L56.4905 90.0468C56.1478 90.2524 55.7364 90.5266 55.2565 90.7322C53.6111 91.5547 51.8286 92.5143 51.8286 93.611C51.8286 94.0908 52.0342 94.365 52.377 94.6391C55.5993 96.5583 59.7128 94.5021 60.8098 93.8166L169.613 30.963C172.698 29.1809 176.263 29.1809 179.348 30.963L181.679 32.4024C183.324 33.362 184.353 35.0756 184.353 36.9948C184.353 38.914 183.256 40.6275 181.679 41.6557L76.9211 102.11C73.356 104.304 69.7224 106.36 65.0604 107.457C62.1809 108.074 59.1643 108.485 56.2849 108.485Z" fill="#0092FF"/>
<path fill-rule="evenodd" clip-rule="evenodd" d="M165.295 35.9677L160.427 33.1575L51.0762 96.2853L51.2818 96.4909C54.7098 98.4786 58.8233 97.4505 61.9085 95.6684L165.295 35.9677Z" fill="#002298"/>
<path fill-rule="evenodd" clip-rule="evenodd" d="M160.495 35.5566L57.1769 95.1887C58.8223 94.9146 60.262 94.0921 60.7419 93.7493L160.975 35.9679L160.426 35.6251L160.495 35.5566ZM55.6 99.644C53.6118 99.644 51.8293 99.2328 50.1839 98.2732C49.6354 97.8619 49.0869 97.0394 49.0869 96.354C49.0869 95.5315 49.2926 94.846 49.9782 94.4348L159.398 31.307C160.084 30.9642 160.838 30.9642 161.523 31.307L166.391 34.1172C167.145 34.4599 167.488 35.1454 167.488 35.9679C167.488 36.6533 167.145 37.4073 166.391 37.75L62.9358 97.5192C60.3991 98.9586 57.931 99.644 55.6 99.644Z" fill="#0092FF"/>
<path fill-rule="evenodd" clip-rule="evenodd" d="M192.101 44.4664V51.869L196.969 54.6793L202.385 51.5948C204.716 50.224 207.39 50.224 209.926 51.5948L212.257 53.0342C213.354 53.6511 213.903 54.6793 213.903 55.8445V230.902C213.903 232.273 213.56 232.959 212.257 233.713L105.237 295.607C94.1304 302.118 66.227 302.598 65.7471 286.765V110.884C66.0899 108.965 66.9811 107.114 68.6265 105.401C70.7519 103.345 73.6313 101.974 76.168 100.534C110.996 80.4513 145.892 60.2998 180.72 40.2168C183.051 38.7774 185.725 38.7774 188.056 40.2168L190.593 41.6562C191.69 42.273 192.238 43.2326 192.238 44.4664H192.101Z" fill="#291AD8"/>
<path fill-rule="evenodd" clip-rule="evenodd" d="M184.149 41.3146C183.258 41.3146 182.366 41.5202 181.475 42L75.346 103.346C73.5635 104.374 71.3696 105.539 69.9299 106.91C68.6958 108.212 67.9417 109.652 67.8046 111.16L67.5989 111.982L67.8046 286.629C67.8046 290.124 69.5871 292.935 73.2207 294.854C81.3106 299.378 96.7364 297.87 104.141 293.62L211.367 231.726C211.71 231.452 211.71 231.315 211.915 230.629V55.7771C211.915 55.2973 211.71 55.0231 211.367 54.8175L208.83 53.3781C207.048 52.3499 205.265 52.3499 203.414 53.3781L197.998 56.4625C197.312 56.8052 196.558 56.8052 195.872 56.4625L191.005 53.6522C190.456 53.3095 189.908 52.5556 189.908 51.8016V44.3304C189.908 43.9192 189.702 43.5765 189.359 43.3708L187.028 41.9314C186.137 41.4516 185.246 41.246 184.149 41.246V41.3146ZM86.4526 301.914C80.8993 301.914 75.346 300.886 71.0268 298.624C66.3648 295.951 63.691 291.838 63.4854 286.697L63.691 110.543C63.8967 108.212 65.1308 105.882 67.119 103.894C68.9015 102.043 71.2325 100.878 73.4264 99.5758L75.0718 98.6848L179.487 38.3672C182.572 36.5851 185.931 36.5851 189.017 38.3672L191.553 39.8066C193.13 40.7662 194.227 42.4798 194.227 44.399V50.6364L196.901 52.2128L201.22 49.7453C204.305 47.9632 207.665 48.0317 210.955 49.7453L213.286 51.1847C215.069 52.1443 215.96 53.8579 215.96 55.8456V230.904C215.96 233.028 215.069 234.331 213.423 235.496L106.197 297.39C101.33 300.269 93.7884 301.982 86.4526 301.982V301.914Z" fill="#0092FF"/>
<path fill-rule="evenodd" clip-rule="evenodd" d="M85.5603 107.458L136.774 77.8473L190.661 46.7289C191.758 46.1805 192.306 45.221 192.306 43.9872V56.9418L93.7188 113.901C90.6336 115.683 86.5201 116.642 83.0922 114.723C81.4468 113.832 81.104 112.324 81.6524 111.022C82.2009 109.034 83.9834 108.417 85.6288 107.458H85.5603Z" fill="#002298"/>
<path fill-rule="evenodd" clip-rule="evenodd" d="M190.114 49.5384L86.659 109.308L85.7677 109.856C84.328 110.61 83.7795 111.021 83.6424 111.707C83.2996 112.529 83.8481 112.803 84.1909 113.009C87.4131 114.928 91.5267 112.803 92.6236 112.186L190.183 55.8443V49.5384H190.114ZM87.2075 118.012C85.4249 118.012 83.6424 117.533 81.997 116.642C79.8717 115.408 78.9118 113.009 79.4603 110.61C80.3516 108.074 82.1341 106.977 83.7795 106.155L84.5337 105.743L189.566 45.0145C189.909 44.8089 190.114 44.4662 190.114 44.0549C190.114 42.8897 191.211 41.9987 192.24 41.9987C193.474 41.9987 194.228 42.9583 194.228 44.0549V57.0095C194.228 57.7635 193.885 58.5174 193.337 58.8602L94.7489 115.819C92.2122 117.259 89.7441 117.944 87.2075 117.944V118.012Z" fill="#0092FF"/>
<path fill-rule="evenodd" clip-rule="evenodd" d="M129.236 106.224L108.051 118.425C103.937 120.892 101.606 122.469 96.7388 123.634C88.8545 125.622 79.3249 124.731 72.469 120.892C66.1616 117.328 64.2419 111.639 67.0528 106.91C69.041 103.551 73.1546 101.837 76.3768 99.8497L90.2257 91.8302L180.586 39.6693C183.123 38.2984 185.797 38.2984 188.128 39.6693L190.664 41.1086C191.761 41.7255 192.31 42.6851 192.31 43.9189C192.31 45.0841 191.761 46.0437 190.664 46.6606C156.179 66.538 121.9 86.4154 87.3462 106.293C85.2209 107.595 81.9301 108.829 81.4502 111.296C81.2445 112.462 81.6559 113.764 83.0956 114.655C86.5235 116.643 90.6371 115.683 93.7222 113.832L202.525 51.1159C204.856 49.745 207.53 49.745 209.861 51.1159L212.398 52.5553C213.494 53.1722 214.043 54.2003 214.043 55.3655C214.043 56.5308 213.494 57.5589 212.398 58.1758L129.236 106.224Z" fill="#291AD8"/>
<path fill-rule="evenodd" clip-rule="evenodd" d="M184.354 40.9027C183.462 40.9027 182.571 41.1083 181.68 41.6566L75.688 102.865C73.0142 104.373 70.2718 105.813 68.8321 108.143C67.9408 109.651 67.7352 111.296 68.1465 112.941C68.695 115.271 70.4775 117.465 73.357 119.11C79.4587 122.537 88.4399 123.565 96.1871 121.577C100.163 120.618 102.083 119.453 105.374 117.602L128.204 104.373L211.366 56.3248C211.709 56.1192 211.914 55.7764 211.914 55.3652C211.914 54.9539 211.709 54.6798 211.366 54.4056L208.829 52.9662C207.184 51.938 205.264 51.938 203.619 52.9662L94.7473 115.82C90.291 118.287 85.5604 118.699 81.9954 116.574C80.0072 115.409 78.9102 113.284 79.4587 111.022C80.0072 108.006 82.8867 106.498 85.2177 105.264L86.3146 104.579L189.564 45.0152C189.907 44.8096 190.113 44.4669 190.113 44.0556C190.113 43.5758 189.907 43.2331 189.564 43.096L187.028 41.5881C186.136 41.1083 185.245 40.9027 184.354 40.9027ZM87.8914 126.855C81.7897 126.855 76.0308 125.416 71.3688 122.743C67.3924 120.549 64.9242 117.465 64.033 113.969C63.2788 111.159 63.6902 108.417 65.267 105.95C67.2552 102.66 70.6832 100.809 73.6998 99.1639L89.1255 90.1849L179.692 37.9553C182.571 36.2418 186.136 36.2418 189.221 37.9553L191.758 39.3947C193.403 40.3543 194.295 42.0679 194.295 44.0556C194.295 46.0434 193.403 47.6884 191.758 48.648L88.4399 108.28C88.0971 108.486 87.5487 108.76 87.2059 109.034C85.5604 109.857 83.7779 110.816 83.6408 111.913C83.4351 112.53 83.6408 112.804 84.1893 113.078C87.4115 114.997 91.5251 112.872 92.622 112.256L201.425 49.3334C204.51 47.5513 207.869 47.5513 210.955 49.3334L213.491 50.7728C215.137 51.7324 216.165 53.446 216.165 55.3652C216.165 57.2844 215.068 58.9979 213.491 59.9575L107.362 121.235C104.14 123.222 101.809 124.662 97.284 125.69C94.1989 126.444 91.1823 126.855 87.96 126.855H87.8914Z" fill="#0092FF"/>
<path fill-rule="evenodd" clip-rule="evenodd" d="M197.107 54.1998L192.239 51.4581L82.8193 114.586L83.025 114.723C86.2473 116.779 90.5665 115.751 93.6516 113.901L197.107 54.1998Z" fill="#002298"/>
<path fill-rule="evenodd" clip-rule="evenodd" d="M192.239 53.9258L88.989 113.558C90.6344 113.284 92.0741 112.461 92.554 112.119L192.787 54.2L192.239 53.9258ZM87.1379 117.945C85.1497 117.945 83.3671 117.465 81.9274 116.574C81.2418 116.163 80.6934 115.409 80.6934 114.655C80.6934 113.901 81.0362 113.147 81.7903 112.735L191.21 49.6076C191.964 49.2649 192.65 49.2649 193.335 49.6076L198.203 52.4179C198.752 52.7606 199.3 53.5146 199.3 54.2C199.3 54.954 198.752 55.7079 198.203 56.0506L94.7479 115.82C92.2112 117.259 89.7431 117.945 87.2064 117.945H87.1379Z" fill="#0092FF"/>
<path fill-rule="evenodd" clip-rule="evenodd" d="M213.836 57.2838V230.834C213.836 232.205 213.493 232.89 212.19 233.644L105.17 295.538V120.137L213.836 57.2838Z" fill="#291AD8"/>
<path fill-rule="evenodd" clip-rule="evenodd" d="M107.295 121.303V291.837L211.299 231.794C211.641 231.52 211.641 231.383 211.847 230.697V60.9856L107.295 121.303ZM105.169 297.595C104.827 297.595 104.484 297.595 104.073 297.389C103.524 296.978 102.976 296.293 102.976 295.539V120.138C102.976 119.384 103.524 118.63 104.073 118.287L212.944 55.5022C213.492 55.0909 214.384 55.0909 214.932 55.5022C215.618 55.8449 216.029 56.5303 216.029 57.2843V230.834C216.029 232.959 215.138 234.261 213.492 235.427L106.266 297.321C105.924 297.595 105.512 297.595 105.169 297.595Z" fill="#0092FF"/>
<path fill-rule="evenodd" clip-rule="evenodd" d="M73.9056 267.642C72.6715 267.642 71.7803 266.683 71.7803 265.586V138.645C71.7803 137.48 72.6715 136.589 73.9056 136.589C75.0025 136.589 76.0309 137.548 76.0309 138.645V265.517C76.0309 266.683 74.934 267.574 73.9056 267.574V267.642Z" fill="#0092FF"/>
<path fill-rule="evenodd" clip-rule="evenodd" d="M47.5111 180.593C46.4141 180.593 45.3857 179.634 45.3857 178.469V123.566C45.3857 122.401 46.4827 121.441 47.5111 121.441C48.7451 121.441 49.6364 122.401 49.6364 123.566V178.469C49.6364 179.702 48.7451 180.593 47.5111 180.593Z" fill="#0092FF"/>
<path fill-rule="evenodd" clip-rule="evenodd" d="M40.6536 194.713C39.4196 194.713 38.5283 193.753 38.5283 192.657V119.521C38.5283 118.288 39.4196 117.465 40.6536 117.465C41.7506 117.465 42.6418 118.356 42.6418 119.521V192.657C42.6418 193.753 41.7506 194.713 40.6536 194.713Z" fill="#0092FF"/>
<path fill-rule="evenodd" clip-rule="evenodd" d="M10.2845 212.739C9.18756 212.739 8.15918 211.78 8.15918 210.615V101.906C8.15918 100.741 9.25612 99.8496 10.2845 99.8496C11.5186 99.8496 12.4098 100.741 12.4098 101.906V210.546C12.4098 211.711 11.5186 212.671 10.2845 212.671V212.739Z" fill="#0092FF"/>
</svg>
