<svg width="79" height="42" viewBox="0 0 79 42" fill="none" xmlns="http://www.w3.org/2000/svg">
<g clip-path="url(#clip0_1181_377)">
<rect width="79" height="42" rx="6" fill="white"/>
<path d="M79.5792 0.00390625H0V41.9319H79.5792V0.00390625Z" fill="white"/>
<path d="M79.585 16.7809H44.5452V0.00634766H34.9804V16.7809H0.0332031V25.1636H34.9804V41.9313H44.5452V25.1636H79.585V16.7809Z" fill="#CE1124"/>
<path d="M0 4.88623V14.0151H17.3574L0 4.88623Z" fill="#00247D"/>
<path d="M9.57561 0.00195312L9.32129 0.0135131L31.8276 11.9132V0.00195312H9.57561Z" fill="#00247D"/>
<path d="M26.711 13.9575L0 0.00439453V3.29311L20.346 13.9575H26.711Z" fill="#CE1124"/>
<path d="M52.8877 27.9741L79.5987 41.9272V38.6385L59.2527 27.9741H52.8877Z" fill="#CE1124"/>
<path d="M0 37.1157V27.9868H17.3574L0 37.1157Z" fill="#00247D"/>
<path d="M9.57561 41.9995L9.32129 41.9879L31.8276 30.0884V41.9995H9.57561Z" fill="#00247D"/>
<path d="M26.5745 27.9731L0.0175781 41.92L6.2285 41.9262L31.8535 28.5403V27.9731H26.5745Z" fill="#CE1124"/>
<path d="M79.6004 4.88428V14.0131H62.2432L79.6004 4.88428Z" fill="#00247D"/>
<path d="M70.0244 0L70.2787 0.01152L47.7725 11.9111V0H70.0244Z" fill="#00247D"/>
<path d="M79.5744 0.019523L73.6005 0.019043L47.7949 13.4992V13.9721H53.2546L79.5744 0.019523Z" fill="#CE1124"/>
<path d="M79.6004 37.1123V27.9834H62.2432L79.6004 37.1123Z" fill="#00247D"/>
<path d="M70.0244 41.9966L70.2787 41.985L47.7725 30.0854V41.9966H70.0244Z" fill="#00247D"/>
</g>
<defs>
<clipPath id="clip0_1181_377">
<rect width="79" height="42" rx="6" fill="white"/>
</clipPath>
</defs>
</svg>
