<svg xmlns="http://www.w3.org/2000/svg" width="318" height="254" fill="none">
  <path fill="#291AD8" fill-rule="evenodd" d="m120.8 81.2 3.2 5.5c-28 48.1-14 125-51.8 158.2l-10.6 6-2.8-5c27-43.4 11.5-138.8 62.1-164.7Z" clip-rule="evenodd"/>
  <path fill="#0092FF" fill-rule="evenodd" d="m61.2 246 1.1 2 8.7-5c20.1-17.7 25-49 30.1-82.2 4.1-25.8 8.2-52.7 20.3-74.1l-1.5-2.6C92 100 86 139.3 79.8 177.5c-4.3 26.1-8 50.8-18.6 68.4Zm.3 7.1H61c-.6-.2-1.2-.6-1.3-1l-3-5c-.4-.7-.4-1.6 0-2.3 10.6-17 14.5-41.7 18.8-68 6.3-40 13-81.4 44.4-97.5 1-.6 2.2-.1 2.8.9l3.2 5.4c.3.7.3 1.5 0 2.2-12.3 21-16.4 47.8-20.5 73.8-5.1 33.9-10.2 66-31.7 84.9l-11 6.3c-.3.2-.8.3-1.1.3Z" clip-rule="evenodd"/>
  <path fill="#291AD8" fill-rule="evenodd" d="m196.7 172.8-3.2-5.5c27.9-48.1 13.9-125 51.8-158l11.2-6.6 2.6 4.8c-27.5 43.2-11.7 139.4-62.4 165.3Z" clip-rule="evenodd"/>
  <path fill="#0092FF" fill-rule="evenodd" d="m195.9 167.3 1.5 2.6c27.9-15.8 34.2-55.2 40.3-93.4C242 50 246 25 256.7 7.4l-1-1.7-9.2 5.3c-20.3 17.7-25.1 49-30.1 82-4.1 26-8.4 52.8-20.4 74.2l-.1.1Zm.8 7.7c-.8 0-1.5-.4-2-1l-3-5.6c-.4-.7-.4-1.5 0-2.2 12-20.8 16.1-47.7 20.2-73.7 5.4-34 10.2-66 32-85L255.4.8c.6-.3 1.1-.3 1.7-.2.6.2 1 .5 1.3 1l2.8 4.7c.3.7.3 1.6-.3 2.3-10.7 16.8-14.6 42-18.9 68.5-6.3 40-13 81.5-44.4 97.6l-1 .2Z" clip-rule="evenodd"/>
  <path fill="#291AD8" fill-rule="evenodd" d="M213.8 95.1c5.1-33.9 10-67 31.5-85.9l11.2-6.5 2.6 4.8a96 96 0 0 0-40 65.3l-5.3 22.4Z" clip-rule="evenodd"/>
  <path fill="#0092FF" fill-rule="evenodd" d="m255.8 5.7-9.3 5.4a68.5 68.5 0 0 0-18 27.3 91.5 91.5 0 0 1 27.8-31.6l-.5-1Zm-42 91.6h-.4c-1.1-.2-2-1.4-1.8-2.5l.3-2.3c5.4-34 10.2-66 32-85L255.4.8c.6-.3 1.1-.3 1.7-.2.6.2 1 .5 1.3 1l2.8 4.7c.5 1 .2 2.3-.8 3a93.7 93.7 0 0 0-39 63.7L216 95.6c-.4 1-1.3 1.7-2.2 1.7Z" clip-rule="evenodd"/>
  <path fill="#291AD8" fill-rule="evenodd" d="M117 91.7A97.4 97.4 0 0 0 84 152l-5.6 22.3c.8-3.7 1.1-7.4 1.5-11.3 5.7-34.7 14.1-68 40.9-81.8 23.4-12.1 55.7.1 89.2 12.8-28.6-8.7-45-16.8-74.6-10.4-8.7 2-11.5 2.5-18.3 8.1Z" clip-rule="evenodd"/>
  <path fill="#0092FF" fill-rule="evenodd" d="M143.3 78.3c-7.8 0-15 1.4-21.5 4.8a61.5 61.5 0 0 0-28 33.4 90.9 90.9 0 0 1 22-26.4c7.2-6 10.4-6.7 19-8.5 7-1.6 13.5-2.3 19.2-2.4-3.5-.5-7.2-.9-10.8-.9h.1Zm-64.8 98.2H78c-1.1-.2-1.8-1.3-1.7-2.4.6-3.5 1-7.1 1.3-11.2 5.7-34.4 13.8-69.1 42.2-83.6 24.2-12.6 56.5-.3 90.9 12.7 1.1.4 1.6 1.6 1.3 2.7-.4 1.2-1.7 1.7-2.8 1.4a310 310 0 0 1-12-3.9c-21.4-6.8-36.9-11.8-61.2-6.4-9 1.9-11.2 2.4-17.7 7.6a95 95 0 0 0-32.1 58.8l-5.6 22.6c-.2 1-1.2 1.7-2.2 1.7Z" clip-rule="evenodd"/>
  <path fill="#291AD8" fill-rule="evenodd" d="m61.7 251.4-3-5.5a96 96 0 0 0 40-65.2l5.4-22.4c-.6 3.7-1.1 7.4-1.3 11.3-6 34.7-14.1 68-41 81.8Z" clip-rule="evenodd"/>
  <path fill="#0092FF" fill-rule="evenodd" d="m61.5 246.6 1.2 1.9a61.7 61.7 0 0 0 26.1-32.6 92.1 92.1 0 0 1-27.3 30.7Zm.2 7c-.7 0-1.2-.4-1.8-1l-3.2-5.5c-.6-1-.2-2.3.8-3a93.6 93.6 0 0 0 39-63.7l5.4-22.6a2.3 2.3 0 0 1 2.6-1.6c1.1.2 1.9 1.3 1.7 2.4-.3 3.5-1 7.1-1.3 11.2-5.7 34.4-13.7 69.1-42 83.6l-1.1.2Z" clip-rule="evenodd"/>
  <path fill="#291AD8" fill-rule="evenodd" d="M174.3 171.8c-24.7 4.5-40.8-3.9-66.9-11.7 33.5 12.7 65.8 24.9 89.3 12.7 26.7-13.7 35-47 40.8-81.8l1.3-11.3-5.4 22.4a99.3 99.3 0 0 1-24.9 52.4 57 57 0 0 1-34.2 17.4v-.1Z" clip-rule="evenodd"/>
  <path fill="#0092FF" fill-rule="evenodd" d="M165.2 175.1c11.2 1.4 21.6.4 30.3-4.2a61.4 61.4 0 0 0 28.1-33.4 89.8 89.8 0 0 1-13.4 18.4 58.5 58.5 0 0 1-35.5 18c-3.3.6-6.5 1-9.5 1.2Zm9 5c-20.1 0-43.3-8.8-67.5-18a2.1 2.1 0 0 1-1.3-2.7c.4-1.1 1.5-1.8 2.8-1.4 5 1.5 9.7 3 14 4.5 18 6 32.3 10.8 51.8 7.2 10.2-1.9 22.1-4.9 33-16.6a97.7 97.7 0 0 0 24.2-51.3l5.6-22.6c.2-1.1 1.3-1.8 2.6-1.6 1.2.2 1.9 1.4 1.8 2.5-.6 3.3-1 7-1.3 11.1-5.8 34.5-13.8 69.1-42.2 83.6-7.1 3.8-15 5.4-23.4 5.4l-.1-.1Z" clip-rule="evenodd"/>
  <path fill="#002298" fill-rule="evenodd" d="M72.3 230.8h.2c.2.6.2 1.4-.3 2.3-.4 1-1.3 1.7-2.2 2.3-1.2.6-2.2 1-3.4 1-.9 0-1.6-.4-2-1-4.1-7.6-44.7-76.8-44.7-77.9-.5-3.2 6.4-6.5 7.9-4l44.6 77.3h-.1Z" clip-rule="evenodd"/>
  <path fill="#0092FF" fill-rule="evenodd" d="M25.8 154.6s-1.5.3-2.7 1.2a4 4 0 0 0-1.2 1.4c.7 1.5 18.4 32 30.1 52.2 7.1 12.1 12.9 22.2 14.3 24.9 1-.2 1.7-.4 2.5-.8.5-.4 1.2-1 1.4-1.5l2.1-1.2-1.8 1-44.7-77.2Zm40.8 84c-1.7 0-3.2-.8-4-2.1-1.4-2.7-7.4-12.9-14.3-25-30.5-52.6-30.6-53-30.6-53.8-.4-3 2.4-5.7 5.6-6.8 2.7-1 5.2-.4 6.5 1.4l44.6 77.4c.7 1.3.6 3-.2 4.4a8.2 8.2 0 0 1-3.3 3 8.2 8.2 0 0 1-4.3 1.3v.1Z" clip-rule="evenodd"/>
  <path fill="#002298" fill-rule="evenodd" d="M87.6 205.4h.2c.2.6.2 1.4-.4 2.3A5 5 0 0 1 85 210c-1 .6-2 1-3.2 1-1 0-1.7-.4-2-1-3-5.4-30.3-51.9-30.3-53-.4-3.1 6.3-6.5 8-3.9l30 52.3Z" clip-rule="evenodd"/>
  <path fill="#0092FF" fill-rule="evenodd" d="M55.6 154.2s-1.5.3-2.8 1.2c-1 .6-1.3 1.3-1.3 1.4L73.1 194l8.6 14.8c.9-.2 1.7-.4 2.2-.8a6 6 0 0 0 1.7-1.5l2-1.2-1.8 1-30.1-52.2h-.1Zm26.1 59c-1.7 0-3.2-.9-3.9-2.1-.9-1.8-4.2-7.6-8.5-14.9-21.9-37.8-21.9-38-22.1-39-.4-3 2.6-5.7 5.6-6.8 2.8-1 5.4-.4 6.5 1.4l30.1 52.4h.2c.6 1.3.6 3-.3 4.4a8.8 8.8 0 0 1-3.2 3 8.2 8.2 0 0 1-4.3 1.3v.2Z" clip-rule="evenodd"/>
  <path fill="#002298" fill-rule="evenodd" d="M208.5 152.2c.4.6.2 1.4-.2 2.3a6.8 6.8 0 0 1-5.6 3.2c-1 0-1.7-.3-2-1-4.3-7.5-44.7-76.8-44.8-77.8-.4-3.2 6.3-6.6 8-4l44.6 77.3Z" clip-rule="evenodd"/>
  <path fill="#0092FF" fill-rule="evenodd" d="M162 75.9s-1.4.3-2.7 1.2c-1 .6-1.3 1.3-1.3 1.4a11980.7 11980.7 0 0 1 44.6 77c.8 0 1.5-.3 2.2-.7.7-.4 1.3-1 1.5-1.4 0 0 .4 0 .2-.2L162.1 76Zm40.8 84c-1.7 0-3.2-.8-4-2l-14-24.5c-31-53.1-31-53.5-31.1-54.3-.4-3 2.6-5.8 5.6-6.9 2.7-1 5.4-.4 6.5 1.4l44.6 77.4c.8 1.4.8 3-.2 4.5a9.4 9.4 0 0 1-3.2 3c-1.5.9-3 1.3-4.2 1.3Z" clip-rule="evenodd"/>
  <path fill="#002298" fill-rule="evenodd" d="M223.8 126.7c.3.6.2 1.4-.2 2.3-.6.9-1.5 1.7-2.5 2.2-1 .6-2.2 1-3.1 1-1.2 0-1.7-.4-2.1-1-3.2-5.4-30.3-51.8-30.5-52.9-.4-3.2 6.5-6.5 8-4l30.3 52.3Z" clip-rule="evenodd"/>
  <path fill="#0092FF" fill-rule="evenodd" d="M191.6 75.5s-1.5.3-2.7 1.2c-1 .6-1.2 1.3-1.2 1.3.6 1.3 13.6 23.6 21.2 37a447 447 0 0 1 9 15.2c.7-.2 1.5-.4 2.2-.8.7-.4 1.3-1 1.5-1.4l.2-.2-30.1-52.3Zm26.4 59c-1.8 0-3.2-.8-3.9-2.1l-9-15.2c-21.7-37.5-21.7-37.7-21.7-38.6-.6-3 2.4-5.8 5.6-6.9 2.8-1 5.2-.4 6.3 1.4l30.3 52.4c.7 1.4.6 3-.2 4.4a8.8 8.8 0 0 1-3.2 3.1c-1.5.8-3 1.2-4.2 1.2v.2Z" clip-rule="evenodd"/>
  <path fill="#002298" fill-rule="evenodd" d="M188 169.6c.4.6.3 1.4-.1 2.3-.6.9-1.5 1.7-2.4 2.2-1.2.6-2.3 1-3.2 1-1.2 0-1.9-.4-2.2-1-4.9-8.8-52.2-90-52.5-91.1-.3-3.2 6.6-6.5 8.2-4l52.2 90.6Z" clip-rule="evenodd"/>
  <path fill="#0092FF" fill-rule="evenodd" d="M133.8 80.2s-1.5.2-2.8 1.2a5 5 0 0 0-1 1.3 15543.9 15543.9 0 0 0 52 90.3c1-.2 1.7-.4 2.4-.8.6-.4 1.3-1 1.5-1.5l.2-.1L133.9 80Zm48.5 97.1c-1.8 0-3.3-.8-4-2L160.8 145c-35.1-60.6-35.1-61-35.3-61.7-.4-3.1 2.4-5.8 5.6-7 2.8-1 5.2-.4 6.5 1.5l52.2 90.5c.8 1.5.6 3-.2 4.5a8.7 8.7 0 0 1-3.3 3 8.1 8.1 0 0 1-4.1 1.3v.1Z" clip-rule="evenodd"/>
  <path fill="#002298" fill-rule="evenodd" d="M154.8 183.1c.4.7 1.1 1 2 1 1.2 0 2.3-.3 3.3-.9 1.1-.6 2-1.3 2.4-2.3.5-.8.5-1.7.2-2.2-4.5-7.6-44-77.2-45-77.8-2.6-2-8.7 2.3-7.4 5l44.6 77.3Z" clip-rule="evenodd"/>
  <path fill="#0092FF" fill-rule="evenodd" d="m116 102.3-1.5.7c-1.3.6-2.2 1.7-2.2 2l44.4 77 .2.1c.8-.2 1.5-.4 2.1-.8.7-.4 1.3-1 1.7-1.5-1.3-2.7-7-12.6-14-24.6-11.4-20.2-29-50.6-30.6-52.9Zm40.9 84c-1.7 0-3.2-.7-4-2l2-1.2-2 1.1-44.6-77.3c-1-2-.3-4.5 2.1-6.4 2.4-2.2 6.1-3.3 8.5-1.4.8.4 1 .7 31.6 53.9 6.7 11.9 12.5 21.8 13.9 24.5 1 1.3.7 3-.2 4.5a7 7 0 0 1-3.2 3 8.2 8.2 0 0 1-4.3 1.3h.2Z" clip-rule="evenodd"/>
  <path fill="#002298" fill-rule="evenodd" d="M125.3 183.6c.4.7 1.1 1 2 1 1 0 2.1-.3 3.2-.9 1-.6 1.9-1.3 2.5-2.3.5-.9.5-1.7.2-2.2-3.2-5.4-29.8-52.2-30.7-52.8-2.4-2-8.7 2.3-7.4 5l30.3 52.2h-.1Z" clip-rule="evenodd"/>
  <path fill="#0092FF" fill-rule="evenodd" d="m100.9 127.8-1.5.7c-1.5.6-2.4 1.7-2.4 2l30 52v.1a14 14 0 0 0 2.3-.8c.7-.4 1.3-1 1.7-1.5l-8.8-15.5c-7.5-13.1-20-35-21.3-37Zm26.4 59c-1.7 0-3.2-.7-4-2l-30.2-52.4c-1.1-2-.4-4.4 2-6.3 2.5-2.1 6.4-3.3 8.6-1.4.7.5.9.7 22.5 38 4.2 7.6 7.5 13.6 8.7 15.4.7 1.4.7 3-.2 4.5a9.4 9.4 0 0 1-3.2 3.1c-1.5.8-3 1.2-4.3 1.2v-.1Z" clip-rule="evenodd"/>
  <path fill="#002298" fill-rule="evenodd" d="M288.8 101.8h.2c.3.6 1 1 2.1 1 1 0 2-.4 3.2-1 1-.5 1.8-1.3 2.2-2.3.6-.8.6-1.7.3-2.2h-.2c-4.2-7.6-44-77.2-44.7-77.8-2.7-2-9 2.4-7.6 5l44.6 77.3Z" clip-rule="evenodd"/>
  <path fill="#0092FF" fill-rule="evenodd" d="M250.2 21s-.6.1-1.5.6c-1.5.6-2.4 1.7-2.4 2l44.6 77v.2l2.3-.9c.7-.4 1.2-1 1.4-1.4-1.2-2.7-7-12.7-13.9-24.8A4228 4228 0 0 0 250.2 21Zm40.8 84c-1.8 0-3.3-.8-4-2.1l-44.7-77.4c-1-2-.2-4.4 2-6.3 2.5-2.2 6.1-3.3 8.8-1.5.5.5.9.7 31.2 53.8 7 12 12.6 22 14.3 24.6.7 1.3.6 3-.2 4.5a9.4 9.4 0 0 1-3.2 3c-1.5.9-3 1.3-4.2 1.3Z" clip-rule="evenodd"/>
  <path fill="#002298" fill-rule="evenodd" d="M261 105.2c.3.6 1 1 2 1 1.1 0 2.2-.4 3.2-1 1.1-.5 2-1.3 2.4-2.2.6-.9.6-1.7.4-2.3h-.3c-3-5.3-29.7-52.1-30.5-52.8-2.6-1.9-8.9 2.3-7.4 5l30 52.3h.1Z" clip-rule="evenodd"/>
  <path fill="#0092FF" fill-rule="evenodd" d="m236.6 49.3-1.5.7a5.2 5.2 0 0 0-2.4 2l30 52h.3a9 9 0 0 0 2.2-.7c.6-.4 1.3-1 1.5-1.5-.8-1.8-4.3-7.7-8.4-15a1671 1671 0 0 0-21.8-37.5h.1Zm26.4 59c-1.7 0-3.2-.7-3.9-2l-30-52.3c-1.2-2-.4-4.5 1.8-6.4 2.4-2.2 6.3-3.3 8.7-1.5.8.5 1 .8 22.5 38.5l8.6 15c.9 1.3.7 3-.2 4.5a7 7 0 0 1-3.2 3 8.2 8.2 0 0 1-4.3 1.3Z" clip-rule="evenodd"/>
  <path fill="#291AD8" fill-rule="evenodd" d="M9.7 161c26.4-4.5 42.5 3.2 69.3 11.3-26.2-10-51.9-19.7-72.9-17.5l3.6 6.1Z" clip-rule="evenodd"/>
  <path fill="#0092FF" fill-rule="evenodd" d="m9.7 156.7 1 1.8c4.4-.6 8.7-1 12.6-1-4.7-.7-9.1-1-13.6-.8ZM79 174.4h-.6l-12.3-3.9c-19.8-6.5-34.5-11-56-7.4-1 .2-2-.3-2.3-1l-3.5-6.2a3 3 0 0 1-.2-2c.3-.7 1-1.2 1.8-1.2 21.6-2.3 47 7.4 74 17.6a2 2 0 0 1 1.3 2.7c-.4 1-1.3 1.5-2.2 1.5Z" clip-rule="evenodd"/>
  <path fill="#291AD8" fill-rule="evenodd" d="m3 149.3 3.2 5.5c55.5-.2 115.2 50.3 162.7 34.1l27.8-16C147 198.6 57.4 114 3 149.2Z" clip-rule="evenodd"/>
  <path fill="#0092FF" fill-rule="evenodd" d="M7.5 152.7c24.5.2 49.8 10 74.1 19.4 31.2 12.1 60.8 23.5 86.4 14.7l12.3-7c-21.4 2-46.8-7.7-73.7-17.9C70.7 148.1 33.4 133.8 6 150.1l1.5 2.6Zm140.9 41.6c-21.6 0-44.5-8.9-68.3-18.1C55.8 166.7 30.5 157 6.5 157h-.3c-.8 0-1.5-.4-1.9-1l-3.2-5.5a2 2 0 0 1 .6-3c29.7-19.2 68.8-4.2 106.7 10.4 33.3 12.7 64.7 24.8 87.2 13.1 1.1-.6 2.4-.1 3 1 .6 1 .2 2.3-.7 2.8l-28 16c-7 2.5-14.2 3.6-21.5 3.6v-.1Z" clip-rule="evenodd"/>
  <path fill="#291AD8" fill-rule="evenodd" d="m315 104.3-3.1-5.5c-55.6.3-115.2-50.2-162.8-34l-28.3 16.4c49.5-25.8 139.8 58.4 194.3 23.1Z" clip-rule="evenodd"/>
  <path fill="#0092FF" fill-rule="evenodd" d="M143.3 74c20.1 0 43.3 8.8 67.7 18 36 13.7 73.4 28 101.1 11.6l-1.5-2.6c-24.5-.2-49.8-10-74.3-19.4-31.3-12-60.6-23.5-86.5-14.8L137 74.3c2.2-.2 4.1-.3 6.3-.3ZM283 115.3c-22.8 0-48.5-9.7-73.6-19.2-33.5-12.7-65-24.6-87.5-12.9-1 .6-2.2.2-2.8-.8-.6-1.1-.4-2.4.8-3L148 62.9c27.7-9.5 58 2.2 90 14.6 24.3 9.5 49.4 19.2 73.5 19.2h.4c.8 0 1.5.4 1.8 1l3.2 5.5c.6 1 .4 2.3-.7 3a59.3 59.3 0 0 1-33.3 9.1Z" clip-rule="evenodd"/>
  <path fill="#291AD8" fill-rule="evenodd" d="M308.8 93.2c-24.8 3.4-40.8-3.9-66.6-11.8h.2c5.4 2.2 10.8 4.2 16.2 6.1A159.7 159.7 0 0 0 312 98.8l-3.2-5.6Z" clip-rule="evenodd"/>
  <path fill="#0092FF" fill-rule="evenodd" d="M301.9 96.1c2 .3 4 .4 6 .5l-.5-1-5.6.5Zm9.6 5c-19.3 0-38.9-6.2-53.7-11.4l-16.4-6a2.1 2.1 0 0 1-1.2-2.8c.4-1.2 1.7-1.8 2.6-1.4l12.3 3.8c19.3 6.2 33.2 10.7 53.3 7.9 1-.2 1.7.3 2.2 1l3.2 5.6c.4.7.4 1.5 0 2.2-.4.8-1.5 1.1-2.2 1.1Z" clip-rule="evenodd"/>
</svg>