<svg width="318" height="254" viewBox="0 0 318 254" fill="none" xmlns="http://www.w3.org/2000/svg">
<path fill-rule="evenodd" clip-rule="evenodd" d="M120.83 81.2259L124.023 86.6947C95.929 134.848 109.905 211.766 72.1627 244.863L61.592 250.971L58.8252 245.928C85.784 202.533 70.3182 107.078 120.901 81.2259H120.83Z" fill="#291AD8"/>
<path fill-rule="evenodd" clip-rule="evenodd" d="M61.1652 245.928L62.3003 247.917L71.0265 242.945C91.1037 225.261 95.9279 193.94 101.107 160.843C105.222 134.99 109.265 108.144 121.397 86.6948L119.907 84.138C92.0259 99.9051 85.9248 139.323 79.7526 177.462C75.496 203.599 71.7359 228.315 61.1652 245.928ZM61.5199 253.102C61.5199 253.102 61.1652 253.102 60.9524 253.031C60.3848 252.889 59.8173 252.534 59.6754 252.036L56.6957 247.065C56.341 246.355 56.341 245.502 56.6957 244.792C67.2664 227.889 71.1684 203.102 75.4959 176.894C81.81 136.837 88.4787 95.4307 119.907 79.3084C120.829 78.7403 122.106 79.1664 122.674 80.1607L125.866 85.6295C126.221 86.3397 126.221 87.121 125.866 87.8312C113.593 108.712 109.478 135.559 105.434 161.553C100.255 195.502 95.2184 227.533 73.6514 246.497L62.726 252.818C62.3713 253.031 61.9456 253.102 61.5909 253.102H61.5199Z" fill="#0092FF"/>
<path fill-rule="evenodd" clip-rule="evenodd" d="M196.67 172.774L193.478 167.306C221.359 119.152 207.383 42.2342 245.338 9.20852L256.476 2.74542L259.101 7.50396C231.575 50.6859 247.395 146.851 196.67 172.846V172.774Z" fill="#291AD8"/>
<path fill-rule="evenodd" clip-rule="evenodd" d="M195.889 167.306L197.379 169.863C225.26 154.096 231.574 114.678 237.746 76.4675C242.003 49.976 245.905 24.9759 256.688 7.36215L255.766 5.6576L246.472 10.9843C226.182 28.6691 221.358 59.9902 216.392 93.0869C212.277 119.01 208.02 145.786 195.96 167.235L195.889 167.306ZM196.669 174.976C195.889 174.976 195.179 174.55 194.612 173.911L191.632 168.442C191.278 167.732 191.278 166.88 191.632 166.241C203.693 145.36 207.808 118.513 211.922 92.5187C217.314 58.5697 222.138 26.5384 243.918 7.5042L255.411 0.828037C255.979 0.543945 256.546 0.472922 257.114 0.614968C257.681 0.757014 258.036 1.11213 258.391 1.60929L261.158 6.29681C261.512 7.00704 261.512 7.93034 260.945 8.56954C250.161 25.402 246.259 50.5441 242.003 77.1067C235.689 117.164 229.02 158.57 197.592 174.692C197.237 174.834 196.811 174.905 196.669 174.905V174.976Z" fill="#0092FF"/>
<path fill-rule="evenodd" clip-rule="evenodd" d="M213.767 95.1463C218.946 61.1973 223.841 28.0296 245.337 9.20852L256.475 2.74542L259.1 7.50396C238.1 21.4955 223.628 45.2172 219.158 72.7741L213.767 95.2174V95.1463Z" fill="#291AD8"/>
<path fill-rule="evenodd" clip-rule="evenodd" d="M255.765 5.72862L246.471 11.0553C238.313 18.2287 232.708 27.5327 228.452 38.3992C235.333 25.6861 244.84 14.8196 256.333 6.79397L255.765 5.72862ZM213.766 97.2773C213.766 97.2773 213.553 97.2773 213.411 97.2773C212.276 97.0642 211.354 95.9278 211.567 94.7915L211.922 92.5187C217.313 58.5697 222.138 26.5384 243.917 7.5042L255.41 0.828037C255.978 0.543945 256.546 0.472922 257.113 0.614968C257.681 0.757014 258.035 1.11213 258.39 1.60929L261.157 6.29681C261.724 7.29113 261.37 8.56954 260.376 9.20875C239.945 22.8452 225.614 46.0697 221.357 72.9874L215.965 95.5727C215.611 96.567 214.688 97.2773 213.766 97.2773Z" fill="#0092FF"/>
<path fill-rule="evenodd" clip-rule="evenodd" d="M117.069 91.7376C99.7585 106.013 87.9108 127.462 84.0089 151.965L78.4043 174.337C79.1847 170.644 79.5394 166.88 79.8941 163.045C85.6406 128.314 94.012 95.0047 120.758 81.2262C144.17 69.0813 176.52 81.2973 210.006 94.0104C181.415 85.3456 165.027 77.249 135.443 83.641C126.717 85.5586 123.95 86.1268 117.069 91.7376Z" fill="#291AD8"/>
<path fill-rule="evenodd" clip-rule="evenodd" d="M143.319 78.3144C135.515 78.3144 128.279 79.7348 121.752 83.1439C108.343 90.0332 99.83 102.036 93.8707 116.525C99.6171 106.297 106.853 97.3485 115.792 90.1042C123.029 84.1382 126.221 83.428 134.735 81.5814C141.829 80.0189 148.285 79.3087 154.031 79.1666C150.484 78.6695 146.795 78.3144 143.248 78.3144H143.319ZM78.4758 176.539C78.4758 176.539 78.2629 176.539 78.121 176.539C76.9859 176.326 76.2765 175.19 76.4184 174.053C76.9859 170.644 77.3407 166.951 77.6954 162.903C83.4419 128.457 91.4585 93.7974 119.907 79.3087C144.099 66.6666 176.379 78.9536 210.787 91.9508C211.922 92.3769 212.418 93.5843 212.064 94.7207C211.709 95.857 210.361 96.4252 209.297 96.0701C205.04 94.7917 200.925 93.5133 197.236 92.2349C175.882 85.4167 160.416 80.445 136.082 85.7718C127.143 87.6894 124.944 88.1866 118.417 93.4423C101.533 107.505 89.9687 128.386 86.2796 152.249L80.675 174.835C80.4622 175.829 79.5399 176.539 78.4758 176.539Z" fill="#0092FF"/>
<path fill-rule="evenodd" clip-rule="evenodd" d="M61.7326 251.397L58.7529 245.928C79.7524 231.937 94.225 208.215 98.6945 180.658L104.086 158.286C103.519 161.979 102.951 165.743 102.809 169.579C96.85 204.309 88.6914 237.69 61.7326 251.397Z" fill="#291AD8"/>
<path fill-rule="evenodd" clip-rule="evenodd" d="M61.5209 246.568L62.656 248.485C75.1421 241.454 83.3007 229.806 88.8344 215.886C81.9528 228.244 72.6591 238.826 61.5209 246.639V246.568ZM61.7337 253.599C60.9533 253.599 60.4567 253.173 59.8891 252.534L56.6966 247.065C56.1291 246.07 56.4838 244.792 57.477 244.153C77.909 230.587 92.2397 207.292 96.4964 180.374L101.888 157.789C102.243 156.653 103.378 155.942 104.513 156.155C105.648 156.368 106.358 157.505 106.216 158.641C105.861 162.05 105.293 165.743 104.939 169.792C99.1922 204.238 91.1755 238.897 62.9397 253.386C62.585 253.528 62.1593 253.599 61.8046 253.599H61.7337Z" fill="#0092FF"/>
<path fill-rule="evenodd" clip-rule="evenodd" d="M174.322 171.78C149.563 176.326 133.458 167.945 107.422 160.062C140.908 172.775 173.187 184.991 196.67 172.846C223.416 159.138 231.645 125.758 237.534 91.0273C237.888 87.1921 238.314 83.4279 238.811 79.7347L233.419 102.107C230.226 122.491 221.358 140.743 208.517 154.522C197.024 166.88 184.538 169.934 174.322 171.852V171.78Z" fill="#291AD8"/>
<path fill-rule="evenodd" clip-rule="evenodd" d="M165.241 175.118C176.38 176.467 186.808 175.544 195.534 170.857C209.085 163.967 217.669 151.965 223.628 137.547C219.939 144.223 215.47 150.402 210.22 155.942C198.301 168.726 185.673 171.922 174.748 173.911C171.413 174.479 168.221 174.905 165.241 175.118ZM174.18 180.09C154.103 180.09 130.904 171.283 106.712 162.121C105.577 161.695 105.01 160.487 105.435 159.351C105.79 158.286 106.925 157.646 108.202 158.002C113.239 159.493 117.851 161.056 122.107 162.547C140.127 168.513 154.458 173.271 173.967 169.72C184.183 167.803 196.102 164.82 207.027 153.101C219.655 139.465 228.027 121.709 231.219 101.822L236.824 79.237C237.037 78.1006 238.101 77.3904 239.449 77.6035C240.584 77.8165 241.293 78.9529 241.152 80.0893C240.584 83.4274 240.229 87.1206 239.875 91.2399C234.128 125.686 226.111 160.345 197.663 174.834C190.568 178.598 182.623 180.161 174.251 180.161L174.18 180.09Z" fill="#0092FF"/>
<path fill-rule="evenodd" clip-rule="evenodd" d="M72.3031 230.8H72.5159C72.7288 231.44 72.7288 232.221 72.1612 233.144C71.8065 234.068 70.8842 234.849 69.9619 235.417C68.8268 235.985 67.7627 236.34 66.6276 236.34C65.7053 236.34 64.9958 235.985 64.5702 235.417C60.4554 227.818 19.9463 158.57 19.9463 157.505C19.3787 154.309 26.2603 150.971 27.7501 153.527L72.3741 230.8H72.3031Z" fill="#002298"/>
<path fill-rule="evenodd" clip-rule="evenodd" d="M25.8348 154.593C25.8348 154.593 24.345 154.948 23.068 155.8C22.3586 156.439 21.9329 157.079 21.9329 157.221C22.6423 158.712 40.3075 189.181 52.0133 209.351C59.1077 221.496 64.8542 231.582 66.344 234.281C67.2663 234.139 67.9757 233.925 68.7561 233.499C69.3237 233.144 70.0331 232.576 70.2459 232.008L72.3033 230.8L70.4588 231.866L25.8348 154.593ZM66.5568 238.542C64.9251 238.542 63.3643 237.761 62.6549 236.482C61.1651 233.783 55.2057 223.627 48.3242 211.553C17.8181 158.925 17.6763 158.57 17.6763 157.718C17.3215 154.664 20.0884 151.965 23.2808 150.9C26.0477 149.905 28.4598 150.473 29.8077 152.32L74.4316 229.664C75.1411 231.013 74.9992 232.647 74.2188 234.138C73.5094 235.346 72.3743 236.411 70.8844 237.192C69.6074 237.974 68.1176 238.4 66.6278 238.4L66.5568 238.542Z" fill="#0092FF"/>
<path fill-rule="evenodd" clip-rule="evenodd" d="M87.557 205.374H87.7698C87.9826 206.014 87.9826 206.795 87.4151 207.718C87.0604 208.57 86.1381 209.423 85.003 209.991C84.0807 210.559 82.9456 210.914 81.8105 210.914C80.8882 210.914 80.1078 210.559 79.7531 209.991C76.7735 204.593 49.4599 158.144 49.4599 157.079C49.1052 153.883 55.774 150.545 57.4766 153.101L87.557 205.374Z" fill="#002298"/>
<path fill-rule="evenodd" clip-rule="evenodd" d="M55.5624 154.167C55.5624 154.167 54.0725 154.451 52.7955 155.374C51.8733 156.013 51.5185 156.653 51.5185 156.795C52.228 158.073 65.2817 180.587 73.0856 194.011C77.3422 201.255 80.6766 207.079 81.6698 208.784C82.5921 208.641 83.3725 208.428 83.8691 208.002C84.6495 207.576 85.1461 207.008 85.5718 206.511L87.6291 205.303L85.7846 206.369L55.7042 154.096L55.5624 154.167ZM81.7408 213.116C80.0381 213.116 78.5483 212.335 77.8388 211.056C76.9166 209.281 73.5822 203.457 69.3255 196.212C47.4038 158.428 47.4038 158.144 47.1909 157.292C46.8362 154.238 49.8159 151.539 52.7955 150.403C55.5624 149.408 58.1873 149.976 59.3224 151.823L89.4027 204.167L89.6156 204.238C90.1831 205.516 90.1831 207.15 89.2609 208.641C88.4805 209.778 87.5582 210.914 86.0684 211.695C84.7914 212.477 83.3015 212.903 81.8117 212.903L81.7408 213.116Z" fill="#0092FF"/>
<path fill-rule="evenodd" clip-rule="evenodd" d="M208.518 152.178C208.872 152.817 208.73 153.598 208.305 154.522C207.737 155.374 206.815 156.226 205.893 156.794C204.757 157.363 203.835 157.718 202.7 157.718C201.778 157.718 200.997 157.363 200.643 156.794C196.386 149.195 156.019 79.9475 155.877 78.8822C155.522 75.6862 162.191 72.3481 163.894 74.9049L208.518 152.249V152.178Z" fill="#002298"/>
<path fill-rule="evenodd" clip-rule="evenodd" d="M162.049 75.8993C162.049 75.8993 160.559 76.1833 159.282 77.1066C158.36 77.7459 158.005 78.3851 158.005 78.4561C158.927 80.0186 176.805 110.772 188.511 131.155C195.392 143.016 201.139 152.959 202.629 155.587C203.409 155.445 204.119 155.232 204.828 154.806C205.537 154.38 206.105 153.883 206.318 153.385C206.318 153.385 206.673 153.314 206.531 153.243L162.12 75.8993H162.049ZM202.771 159.848C201.068 159.848 199.578 159.138 198.869 157.86C197.166 155.161 191.632 145.289 184.751 133.428C153.89 80.3027 153.89 79.9476 153.677 79.0953C153.323 76.0413 156.302 73.3424 159.282 72.2061C162.049 71.2117 164.674 71.7799 165.809 73.6265L210.433 150.971C211.213 152.391 211.213 153.954 210.22 155.516C209.51 156.652 208.375 157.789 207.027 158.57C205.537 159.351 204.048 159.777 202.771 159.777V159.848Z" fill="#0092FF"/>
<path fill-rule="evenodd" clip-rule="evenodd" d="M223.77 126.681C224.125 127.32 223.983 128.101 223.557 128.953C222.99 129.877 222.067 130.658 221.145 131.226C220.01 131.794 218.946 132.149 217.953 132.149C216.818 132.149 216.321 131.794 215.895 131.226C212.703 125.828 185.602 79.3794 185.389 78.314C185.034 75.118 191.916 71.7799 193.406 74.3367L223.699 126.61L223.77 126.681Z" fill="#002298"/>
<path fill-rule="evenodd" clip-rule="evenodd" d="M191.632 75.4733C191.632 75.4733 190.143 75.7574 188.866 76.6807C187.943 77.3199 187.731 77.9591 187.731 78.0301C188.298 79.3085 201.281 101.61 208.943 114.962C213.412 122.348 216.96 128.385 217.882 130.161C218.591 130.019 219.372 129.806 220.081 129.38C220.791 128.954 221.358 128.456 221.571 127.959C221.571 127.959 221.784 127.888 221.784 127.817L191.703 75.5443L191.632 75.4733ZM218.024 134.422C216.179 134.422 214.831 133.712 214.122 132.363C212.987 130.587 209.51 124.55 205.183 117.164C183.403 79.7346 183.403 79.4506 183.403 78.5983C182.835 75.5443 185.815 72.8454 189.008 71.7091C191.774 70.7147 194.186 71.2829 195.322 73.1295L225.615 125.473C226.324 126.894 226.182 128.456 225.402 129.948C224.692 131.155 223.557 132.221 222.209 133.002C220.72 133.783 219.23 134.209 217.953 134.209L218.024 134.422Z" fill="#0092FF"/>
<path fill-rule="evenodd" clip-rule="evenodd" d="M188.085 169.579C188.439 170.218 188.297 170.999 187.872 171.852C187.304 172.775 186.382 173.556 185.46 174.124C184.325 174.692 183.19 175.048 182.267 175.048C181.132 175.048 180.423 174.692 180.068 174.124C175.244 165.317 127.853 84.1381 127.64 83.0018C127.285 79.8057 134.167 76.4677 135.799 79.0245L188.014 169.579H188.085Z" fill="#002298"/>
<path fill-rule="evenodd" clip-rule="evenodd" d="M133.815 80.1604C133.815 80.1604 132.325 80.4445 131.048 81.3678C130.339 82.007 129.913 82.6462 129.913 82.7173C130.835 84.3508 151.125 119.578 164.676 142.874C173.26 157.504 180.283 169.862 181.986 172.988C182.908 172.845 183.689 172.632 184.398 172.206C184.966 171.78 185.675 171.283 185.888 170.715C185.888 170.715 186.101 170.715 186.101 170.573L133.886 80.0894L133.815 80.1604ZM182.341 177.32C180.496 177.32 179.006 176.539 178.226 175.26C176.523 172.064 169.287 159.706 160.916 145.075C125.798 84.4928 125.798 84.1377 125.585 83.3565C125.231 80.3025 127.998 77.6036 131.19 76.4672C133.957 75.4729 136.369 76.0411 137.717 77.8877L189.932 168.442C190.712 169.862 190.499 171.425 189.719 172.916C188.939 174.124 187.874 175.189 186.385 175.97C185.108 176.752 183.618 177.178 182.27 177.178L182.341 177.32Z" fill="#0092FF"/>
<path fill-rule="evenodd" clip-rule="evenodd" d="M154.812 183.144C155.167 183.783 155.948 184.138 156.87 184.138C158.005 184.138 159.069 183.783 160.062 183.215C161.197 182.647 162.12 181.865 162.474 180.942C163.042 180.09 163.042 179.238 162.687 178.669C158.218 171.141 118.631 101.538 117.709 100.899C115.084 98.9816 108.983 103.243 110.26 105.871L154.883 183.215L154.812 183.144Z" fill="#002298"/>
<path fill-rule="evenodd" clip-rule="evenodd" d="M116.005 102.32C116.005 102.32 115.65 102.533 114.515 102.959C113.238 103.598 112.316 104.663 112.316 105.018L156.727 182.007L156.94 182.149C157.72 181.936 158.43 181.652 158.997 181.297C159.707 180.871 160.274 180.374 160.7 179.806C159.423 177.107 153.606 167.164 146.795 155.161C135.302 134.99 117.779 104.592 116.147 102.32H116.005ZM156.869 186.34C155.166 186.34 153.677 185.63 152.967 184.28L154.812 183.144L152.967 184.209L108.343 106.865C107.208 104.805 107.988 102.391 110.401 100.473C112.813 98.3423 116.502 97.2059 118.914 99.0525C119.694 99.5497 119.836 99.7628 150.484 152.959C157.153 164.891 162.97 174.834 164.389 177.462C165.311 178.811 165.099 180.445 164.176 182.007C163.609 183.215 162.474 184.28 160.984 185.061C159.707 185.843 158.217 186.269 156.727 186.269L156.869 186.34Z" fill="#0092FF"/>
<path fill-rule="evenodd" clip-rule="evenodd" d="M125.299 183.641C125.654 184.281 126.434 184.636 127.357 184.636C128.279 184.636 129.414 184.281 130.549 183.712C131.471 183.144 132.394 182.363 132.961 181.44C133.529 180.516 133.529 179.735 133.174 179.167C129.981 173.84 103.448 127.036 102.526 126.397C100.114 124.479 93.7999 128.67 95.0769 131.368L125.37 183.641H125.299Z" fill="#002298"/>
<path fill-rule="evenodd" clip-rule="evenodd" d="M100.895 127.817C100.895 127.817 100.328 128.03 99.4053 128.456C97.9154 129.095 96.9932 130.161 96.9932 130.516L127.074 182.505V182.647C127.783 182.434 128.563 182.15 129.273 181.794C129.982 181.368 130.55 180.8 130.975 180.303C130.053 178.456 126.506 172.348 122.249 164.82C114.658 151.681 102.172 129.735 100.895 127.817ZM127.286 186.766C125.584 186.766 124.094 186.056 123.384 184.777L93.0912 132.433C91.9561 130.445 92.7365 128.03 95.1486 126.112C97.5607 123.982 101.463 122.845 103.662 124.692C104.442 125.189 104.584 125.402 126.151 162.76C130.408 170.289 133.742 176.326 134.877 178.101C135.587 179.451 135.587 181.084 134.665 182.647C133.884 183.854 132.82 184.92 131.472 185.701C129.982 186.482 128.492 186.908 127.215 186.908L127.286 186.766Z" fill="#0092FF"/>
<path fill-rule="evenodd" clip-rule="evenodd" d="M288.827 101.751H289.04C289.253 102.391 289.962 102.746 291.098 102.746C292.02 102.746 293.155 102.391 294.29 101.822C295.212 101.254 296.135 100.473 296.489 99.5497C297.057 98.6974 297.057 97.8451 296.844 97.2769H296.631C292.375 89.7485 252.575 20.146 251.865 19.5067C249.24 17.5891 242.926 21.8505 244.274 24.4784L288.898 101.822L288.827 101.751Z" fill="#002298"/>
<path fill-rule="evenodd" clip-rule="evenodd" d="M250.162 20.9275C250.162 20.9275 249.594 21.1406 248.672 21.5667C247.182 22.2059 246.26 23.2713 246.26 23.6264L290.884 100.615V100.757C291.664 100.544 292.374 100.26 293.154 99.9051C293.864 99.479 294.431 98.9818 294.644 98.4846C293.367 95.7858 287.55 85.7715 280.739 73.6976C269.246 53.5981 251.723 23.2713 250.233 20.9985L250.162 20.9275ZM291.026 104.948C289.181 104.948 287.691 104.238 286.911 102.888L242.287 25.544C241.365 23.5554 242.074 21.1406 244.344 19.1519C246.757 17.0212 250.446 15.8849 253.071 17.7315C253.638 18.2286 253.993 18.4417 284.286 71.4959C291.381 83.4988 296.914 93.513 298.617 96.0699C299.326 97.4193 299.184 99.0528 298.404 100.615C297.695 101.752 296.559 102.888 295.211 103.669C293.722 104.451 292.232 104.877 290.955 104.877L291.026 104.948Z" fill="#0092FF"/>
<path fill-rule="evenodd" clip-rule="evenodd" d="M260.944 105.16C261.299 105.8 262.079 106.155 263.002 106.155C264.137 106.155 265.201 105.8 266.194 105.231C267.329 104.663 268.251 103.882 268.606 102.959C269.174 102.106 269.174 101.254 268.961 100.686H268.748C265.768 95.3593 239.022 48.5551 238.242 47.9159C235.617 45.9983 229.303 50.1886 230.793 52.8875L260.873 105.16H260.944Z" fill="#002298"/>
<path fill-rule="evenodd" clip-rule="evenodd" d="M236.612 49.3366C236.612 49.3366 236.045 49.5497 235.122 49.9758C233.633 50.615 232.923 51.6804 232.71 52.0355L262.791 104.024C262.791 104.024 262.791 104.024 263.003 104.095C263.713 103.953 264.493 103.669 265.203 103.314C265.77 102.888 266.48 102.391 266.693 101.823C265.912 100.047 262.436 94.0811 258.321 86.7658C250.73 73.4134 237.889 51.2543 236.541 49.3366H236.612ZM263.003 108.357C261.301 108.357 259.811 107.576 259.101 106.297L229.021 53.9531C227.886 51.9645 228.666 49.5497 230.866 47.5611C233.278 45.4304 237.18 44.294 239.592 46.1406C240.372 46.6378 240.514 46.8508 262.081 84.6351C266.338 91.9504 269.672 97.8453 270.665 99.5499C271.588 100.899 271.375 102.533 270.453 104.095C269.885 105.303 268.75 106.368 267.26 107.149C265.983 107.931 264.493 108.357 263.003 108.357Z" fill="#0092FF"/>
<path fill-rule="evenodd" clip-rule="evenodd" d="M9.66147 160.985C36.0527 156.51 52.228 164.181 78.974 172.277C52.7956 162.334 27.1137 152.604 6.11426 154.806L9.66147 160.914V160.985Z" fill="#291AD8"/>
<path fill-rule="evenodd" clip-rule="evenodd" d="M9.65906 156.724L10.7942 158.499C15.0508 157.86 19.3784 157.505 23.2803 157.434C18.598 156.795 14.1995 156.511 9.73 156.724H9.65906ZM78.9716 174.408C78.9716 174.408 78.6168 174.408 78.404 174.337C74.1474 173.059 70.0326 171.71 66.1307 170.502C46.2663 164.039 31.5808 159.423 10.0138 163.116C9.09151 163.258 8.16923 162.832 7.81451 162.05L4.2673 155.942C3.91258 155.303 3.91258 154.522 4.05447 153.883C4.40919 153.244 5.18957 152.746 5.89902 152.675C27.4661 150.403 52.935 160.062 79.8938 170.289C81.0289 170.715 81.5965 171.923 81.1708 172.988C80.8161 173.911 79.8938 174.479 78.9716 174.479V174.408Z" fill="#0092FF"/>
<path fill-rule="evenodd" clip-rule="evenodd" d="M2.99121 149.337L6.1837 154.806C61.733 154.593 121.397 205.09 168.859 188.897L196.74 172.845C147.008 198.698 57.4054 114.109 2.99121 149.337Z" fill="#291AD8"/>
<path fill-rule="evenodd" clip-rule="evenodd" d="M7.46119 152.675C32.0079 152.888 57.264 162.69 81.5979 172.136C112.813 184.21 142.397 195.644 168.008 186.837L180.281 179.806C158.927 181.866 133.458 172.136 106.641 161.908C70.7434 148.059 33.4268 133.783 5.90042 150.119L7.39025 152.675H7.46119ZM148.356 194.295C126.789 194.295 103.945 185.417 80.1081 176.184C55.7742 166.738 30.5181 157.008 6.53892 157.008H6.18419C5.40381 157.008 4.69437 156.582 4.33964 155.942L1.14715 150.474C0.437712 149.479 0.792433 148.201 1.71471 147.562C31.4403 128.315 70.4597 143.3 108.415 157.86C141.688 170.644 173.116 182.718 195.605 170.999C196.74 170.431 198.017 170.857 198.585 171.923C199.152 172.988 198.798 174.266 197.875 174.835L169.994 190.886C162.9 193.301 155.664 194.366 148.427 194.366L148.356 194.295Z" fill="#0092FF"/>
<path fill-rule="evenodd" clip-rule="evenodd" d="M315.075 104.309L311.883 98.8399C256.334 99.053 196.669 48.5556 149.066 64.7489L120.83 81.2262C170.278 55.3739 260.59 139.607 315.075 104.309Z" fill="#291AD8"/>
<path fill-rule="evenodd" clip-rule="evenodd" d="M143.319 73.9818C163.396 73.9818 186.595 82.7887 210.999 92.0217C247.039 105.729 284.427 119.934 312.095 103.598L310.605 101.042C286.058 100.829 260.802 91.0273 236.256 81.5813C205.04 69.5074 175.669 58.0727 149.845 66.8085L137.005 74.2659C139.204 74.0528 141.119 73.9818 143.319 73.9818ZM282.937 115.317C260.093 115.317 234.411 105.587 209.297 96.141C175.811 83.4279 144.241 71.496 121.752 83.2148C120.829 83.783 119.552 83.3569 118.985 82.3625C118.417 81.2972 118.63 80.0188 119.765 79.3796L148.001 62.9022C175.669 53.3852 205.962 65.1039 237.958 77.533C262.292 86.979 287.406 96.7092 311.527 96.7092H311.882C312.662 96.7092 313.372 97.1353 313.727 97.7745L316.919 103.243C317.487 104.238 317.274 105.516 316.21 106.155C306.207 112.689 294.997 115.317 282.937 115.317Z" fill="#0092FF"/>
<path fill-rule="evenodd" clip-rule="evenodd" d="M308.76 93.2285C284.001 96.6376 268.039 89.3222 242.215 81.4387H242.428C247.819 83.5693 253.211 85.558 258.603 87.5466C276.41 93.9387 294.501 98.9103 311.953 98.8393L308.76 93.2285Z" fill="#291AD8"/>
<path fill-rule="evenodd" clip-rule="evenodd" d="M301.877 96.1406C303.935 96.3537 305.992 96.4957 307.979 96.5668L307.411 95.5724C305.567 95.7855 303.722 95.9986 301.806 96.0696L301.877 96.1406ZM311.526 101.041C292.229 101.041 272.648 94.9332 257.821 89.6775C252.429 87.7599 247.038 85.7002 241.433 83.6406C240.298 83.2144 239.73 82.007 240.156 80.8707C240.582 79.7343 241.859 79.0951 242.781 79.4502C247.038 80.7996 251.152 82.0781 255.054 83.2855C274.422 89.5355 288.327 94.0099 308.404 91.169C309.327 91.027 310.107 91.5241 310.604 92.2344L313.796 97.8452C314.151 98.4844 314.151 99.3367 313.796 100.047C313.441 100.828 312.306 101.112 311.597 101.112L311.526 101.041Z" fill="#0092FF"/>
</svg>
