<svg width="42" height="42" viewBox="0 0 42 42" fill="none" xmlns="http://www.w3.org/2000/svg">
<path d="M5 7.23621C5 6.00158 6.02624 5.00011 7.29224 5.00011H33.7267C34.9926 5.00011 36.0189 6.00158 36.0189 7.23621V33.9797C36.0189 35.2148 34.9926 36.2158 33.7267 36.2158H7.29224C6.02624 36.2158 5 35.2148 5 33.9797V7.23621Z" stroke="white" stroke-width="2.5" stroke-linejoin="round"/>
<path fill-rule="evenodd" clip-rule="evenodd" d="M14.4029 31.1309V17.0352H9.71772V31.1309H14.4029ZM12.0603 15.1107C13.6941 15.1107 14.711 14.0283 14.711 12.6756C14.6805 11.2925 13.6941 10.2402 12.0913 10.2402C10.4886 10.2402 9.44077 11.2925 9.44077 12.6756C9.44077 14.0283 10.4575 15.1107 12.0297 15.1107H12.0603Z" fill="white"/>
<path fill-rule="evenodd" clip-rule="evenodd" d="M16.9953 31.1309H21.6804V23.2593C21.6804 22.838 21.7108 22.4171 21.8345 22.116C22.1732 21.2743 22.9441 20.4025 24.2384 20.4025C25.9337 20.4025 26.6119 21.6951 26.6119 23.59V31.1309H31.2966V23.0486C31.2966 18.7191 28.9852 16.7045 25.9028 16.7045C23.3753 16.7045 22.2657 18.1172 21.6492 19.0794H21.6805V17.0352H16.9954C17.0569 18.3579 16.9953 31.1309 16.9953 31.1309Z" fill="white"/>
</svg>
