<svg xmlns="http://www.w3.org/2000/svg" width="191" height="303" fill="none">
  <path fill="#002298" fill-rule="evenodd" d="M188.4 18 160.5 2 2 93.5l27.6 16L188.4 18Z" clip-rule="evenodd"/>
  <path fill="#0092FF" fill-rule="evenodd" d="M6 93.5 29.7 107l154.6-89-23.8-13.7L6 93.4Zm23.7 18-1-.3L1 95.2c-.5-.4-1-1-1-1.7s.5-1.4 1-1.8L159.5.3c.6-.4 1.4-.4 2 0l27.6 16c.7.4 1 1 1 1.7a2 2 0 0 1-1 1.7L30.7 111.2a2 2 0 0 1-1 .3Z" clip-rule="evenodd"/>
  <path fill="#002298" fill-rule="evenodd" d="M29.6 109.4 2 93.4 1.9 284l27.7 16V109.4Z" clip-rule="evenodd"/>
  <path fill="#0092FF" fill-rule="evenodd" d="m3.9 282.9 23.7 13.6V110.6L4.1 97l-.2 186v-.1Zm25.7 19c-.3 0-.6 0-1-.2L1 285.7a2 2 0 0 1-1-1.7V93.5c0-.7.5-1.4 1-1.8.7-.3 1.4-.3 2 0l27.7 16c.6.4 1 1 1 1.7V300c0 .7-.5 1.4-1 1.8a2 2 0 0 1-1 .2Z" clip-rule="evenodd"/>
  <path fill="#002298" fill-rule="evenodd" d="M188.4 18 29.6 109.4V300l158.6-91.5.2-190.5Z" clip-rule="evenodd"/>
  <path fill="#0092FF" fill-rule="evenodd" d="M31.7 110.6v186l154.5-89.2.1-186-154.6 89.2Zm-2 191.4c-.3 0-.7 0-1-.3-.8-.3-1-1-1-1.6V109.4c0-.7.4-1.3 1-1.7l158.6-91.4c.5-.4 1.4-.4 1.9 0 .6.4 1 1 1 1.7v190.5a2 2 0 0 1-1 1.8L30.7 301.7a2 2 0 0 1-1 .3Z" clip-rule="evenodd"/>
  <path fill="#291AD8" fill-rule="evenodd" d="m172 158.3-.1 33.3c0 2.5-1.7 5.6-4 7l-118 68c-2.3 1.3-4 .3-4-2.3v-59.6l1.4-1.9c4.2-6 10.2-9.3 14.4-8l39.4 11.3c4 1.2 9.5-1.7 13.9-7.3l29.7-38.2c4.6-5.7 10.3-8.6 14.2-7.2l13.2 4.8v.1Z" clip-rule="evenodd"/>
  <path fill="#0092FF" fill-rule="evenodd" d="m48 205.4-.3 59c0 .5.2.8.4.8l.7-.3 118.1-68.1a7 7 0 0 0 3-5.2v-31.9l-11.8-4.2c-3-1.1-8.1 1.6-11.8 6.5l-29.8 38.2c-4.8 6.2-11 9.4-16 8l-39.4-11.4c-3.3-1-8.5 2.1-12.3 7.3l-.8 1.4Zm.1 63.8c-.8 0-1.5-.2-2-.5-1.3-.8-2.2-2.3-2.2-4.3v-59.6c0-.4.2-.8.4-1.1l1.3-2c5-6.6 11.5-10.2 16.6-8.8l39.5 11.5c3.2.9 8-1.8 11.7-6.6l29.7-38.2c5-6.4 11.7-9.6 16.4-7.8l13.2 4.7a2 2 0 0 1 1.2 1.9v33.3c0 3.2-2.2 7-5 8.6l-118 68c-1 .6-2 .9-2.8.9Z" clip-rule="evenodd"/>
  <path fill="#002298" fill-rule="evenodd" d="m172 158.3-13.2-4.7c-3.8-1.4-9.6 1.5-14.2 7.2L115 198.9c-4.4 5.6-9.8 8.5-13.9 7.3L61.7 195c-4.2-1.3-10.2 2-14.5 8l-1.3 2V122L172 49.3v109Z" clip-rule="evenodd"/>
  <path fill="#0092FF" fill-rule="evenodd" d="M59.8 192.5c.9 0 1.6.2 2.4.4l39.5 11.3c3.2 1 8-1.8 11.7-6.6l29.7-38.1c5-6.4 11.7-9.6 16.4-7.9l10.5 3.9V52.7L48 123.2v75.7c3.5-4 7.9-6.4 11.8-6.4Zm43 16c-.8 0-1.5-.2-2.3-.4L61 196.7c-3.2-1-8.5 2.2-12.2 7.3l-1.4 2c-.5.6-1.3 1-2.2.6a2 2 0 0 1-1.3-1.8V122a2 2 0 0 1 1-1.7L171 47.5c.5-.4 1.4-.4 2 0 .6.3 1.1 1 1.1 1.8l-.2 109a2 2 0 0 1-.8 1.6c-.5.4-1.2.5-1.7.3l-13.2-4.8c-3-1.1-8.2 1.6-11.8 6.5l-29.9 38.3c-4 5.2-9.2 8.2-13.6 8.2Z" clip-rule="evenodd"/>
  <path fill="#291AD8" fill-rule="evenodd" d="M135.6 88.3c11.4-6.5 20.5-1.2 20.5 11.8 0 13.1-9.1 29-20.5 35.5s-20.5 1.2-20.5-11.9c0-13 9.1-28.9 20.5-35.4Z" clip-rule="evenodd"/>
  <path fill="#0092FF" fill-rule="evenodd" d="M144.7 87.5c-2.3 0-5.2.9-8.1 2.5a43.3 43.3 0 0 0-19.5 33.7c0 5.6 1.9 9.7 5.1 11.6 3.3 1.8 7.7 1.3 12.4-1.5a43.3 43.3 0 0 0 19.5-33.7c0-5.5-1.7-9.7-5-11.5-1.3-.8-2.9-1-4.4-1Zm-18.3 53c-2.2 0-4.4-.6-6.2-1.7-4.6-2.6-7-7.9-7-15 0-13.6 9.5-30.3 21.4-37.2 6-3.5 12-4 16.6-1.4 4.4 2.6 7 8 7 15 0 13.6-9.7 30.3-21.6 37.2-3.6 2-7 3-10.2 3Z" clip-rule="evenodd"/>
</svg>