<svg width="296" height="236" viewBox="0 0 296 236" fill="none" xmlns="http://www.w3.org/2000/svg">
<path fill-rule="evenodd" clip-rule="evenodd" d="M82.9601 5.1211C74.0591 1.3629 66.6086 2.48377 57.7736 5.78043C44.2573 11.5826 34.4332 20.6154 25.3344 31.9559C15.7081 44.6811 9.31261 56.9447 4.96102 72.3071C2.05995 84.0432 0.873156 94.3948 3.57642 106.329C5.75222 113.779 8.32362 118.79 14.6532 123.537L21.3125 127.361L32.9827 134.087L101.092 15.6704L82.9601 5.18703V5.1211Z" fill="#291AD8"/>
<path fill-rule="evenodd" clip-rule="evenodd" d="M71.882 4.79184C67.4644 4.79184 63.1788 5.9127 58.4975 7.62697C46.8933 12.6379 37.1351 20.5499 26.9155 33.2091C17.2892 45.9342 11.0915 58.1319 6.9377 72.835C3.64104 86.0216 3.24544 95.5819 5.5531 105.802C7.46516 112.461 9.77283 117.274 15.8387 121.889L32.1901 131.318L98.3871 16.3961L82.1016 6.96764C78.5412 5.45117 75.1786 4.85777 71.882 4.85777V4.79184ZM32.9154 136.131C32.5857 136.131 32.1901 136.065 31.8605 135.867L13.597 125.318C6.41023 119.977 3.70697 114.307 1.5971 106.922C-1.50176 93.2743 0.476239 82.0656 2.9817 71.846C7.3333 56.5495 13.7288 43.8903 23.6847 30.7695C34.3659 17.517 44.6515 9.2753 56.9811 3.93471C64.893 0.967709 73.4644 -1.07622 83.75 3.27537C83.8159 3.27537 83.8818 3.34131 83.9478 3.40724L102.079 13.8906C103.068 14.484 103.398 15.6708 102.805 16.6598L34.6297 135.142C34.3659 135.603 33.9044 135.933 33.3769 136.065C33.1791 136.065 33.0473 136.131 32.8495 136.131H32.9154Z" fill="#0092FF"/>
<path fill-rule="evenodd" clip-rule="evenodd" d="M68.7788 131.779C95.4818 116.351 117.174 78.8351 117.174 47.9783C117.174 17.1215 95.4818 4.52827 68.7788 20.0226C42.0758 35.451 20.3838 72.967 20.3838 103.824C20.3838 134.681 42.0758 147.208 68.7788 131.779Z" fill="#291AD8"/>
<path fill-rule="evenodd" clip-rule="evenodd" d="M90.401 15.4067C84.1373 15.4067 77.1484 17.5825 69.8298 21.7363C43.7202 36.835 22.4238 73.6258 22.4238 103.823C22.4238 117.999 27.1051 128.482 35.6105 133.361C44.1158 138.24 55.5223 137.054 67.7859 129.999C93.8955 114.9 115.192 78.1092 115.192 47.9777C115.192 33.8021 110.511 23.2527 102.005 18.3737C98.5767 16.3957 94.6867 15.4067 90.401 15.4067ZM47.1488 140.416C42.2038 140.416 37.5885 139.229 33.5006 136.922C23.7425 131.251 18.3359 119.515 18.3359 103.823C18.3359 72.373 40.4895 33.9339 67.7859 18.2418C81.3681 10.3957 94.2251 9.20895 104.049 14.8792C113.873 20.5495 119.28 32.2856 119.28 47.9777C119.28 79.4279 97.1262 117.801 69.8958 133.559C61.9178 138.174 54.2696 140.482 47.2147 140.482L47.1488 140.416Z" fill="#0092FF"/>
<path fill-rule="evenodd" clip-rule="evenodd" d="M90.4098 31.7576L89.157 31.2301C84.212 29.5818 80.6516 29.8455 75.7066 31.0983C65.8826 34.1312 58.6959 40.0652 51.9047 47.5816C42.5422 58.5265 36.2786 70.4604 33.2456 84.5702C31.7951 92.7459 31.4654 99.9985 34.3006 107.911C36.0148 111.998 37.6632 114.438 41.2235 117.141L46.0367 119.91L47.8169 120.965C54.2124 125.383 58.8937 127.756 73.6627 119.251C88.4318 110.746 108.541 75.9329 108.541 58.8562C108.541 41.7795 104.058 38.8784 97.0031 35.5817L90.5416 31.8235L90.4098 31.7576Z" fill="#002298"/>
<path fill-rule="evenodd" clip-rule="evenodd" d="M82.5616 32.0877C80.5177 32.0877 78.5397 32.4833 76.1661 33.0108C67.9903 35.5822 61.1333 40.3294 53.3532 48.8347C43.9906 59.7797 38.0566 71.5817 35.1556 84.9002C33.9688 91.5595 33.2435 99.01 36.0786 107.12C37.727 111.076 39.3094 113.054 42.3423 115.361L48.6719 118.988C54.2103 122.878 58.1663 125.581 72.4738 117.273C86.7154 109.032 106.298 75.0762 106.298 58.6588C106.298 42.2414 101.946 39.9997 95.9461 37.2305L88.2978 32.9448C86.1879 32.2196 84.3418 31.9558 82.4957 31.9558L82.5616 32.0877ZM57.8366 126.9C53.485 126.9 50.2543 125.054 46.628 122.482L40.2324 118.79C35.8808 115.559 34.1666 112.724 32.4523 108.636C29.2216 99.4715 30.0128 91.4936 31.3314 84.175C34.3644 70.1312 40.628 57.7357 50.4521 46.1974C58.8256 37.0327 66.2101 31.9558 75.243 29.1207C80.4517 27.802 84.4077 27.4724 89.9461 29.2526L91.3967 29.846C91.3967 29.846 91.5285 29.9119 91.5945 29.9778L98.0559 33.736C105.572 37.1646 110.649 40.8568 110.649 58.7907C110.649 76.7245 90.2099 111.999 74.7815 120.9C67.2651 125.251 62.1223 126.9 57.9685 126.9H57.8366Z" fill="#0092FF"/>
<path fill-rule="evenodd" clip-rule="evenodd" d="M121.2 215.448L91.2005 191.646L52.8273 118.921C48.5417 115.691 46.7615 112.262 45.245 107.119C42.9374 96.8997 44.7835 87.3394 48.212 77.5812C51.6405 68.7462 55.5965 61.8232 61.5305 54.5046C85.2665 26.7467 138.211 36.1752 168.276 45.6036C173.353 47.186 177.177 50.4827 179.419 55.3617L186.474 70.5923C188.254 74.4165 188.65 78.1746 187.727 82.2625L181.859 108.9L214.034 182.217L180.276 201.008C180.936 203.25 172.826 212.81 163.727 210.239C162.474 212.151 163.266 216.503 153.046 216.173C153.507 218.085 151.002 219.865 146.387 219.865L125.024 216.964C123.508 216.766 122.321 216.239 121.134 215.316L121.2 215.448Z" fill="#291AD8"/>
<path fill-rule="evenodd" clip-rule="evenodd" d="M92.7782 190.327L122.448 213.865C123.305 214.59 124.228 214.986 125.349 215.118L146.712 217.953C149.613 217.953 150.997 216.964 151.129 216.634C150.997 216.041 151.129 215.448 151.525 214.92C151.92 214.393 152.712 214.195 153.173 214.195C160.03 214.393 160.624 212.612 161.283 210.898C161.481 210.305 161.744 209.711 162.074 209.184C162.536 208.459 163.459 208.129 164.316 208.327C168.074 209.382 171.371 207.931 173.546 206.547C176.645 204.503 178.294 201.931 178.36 201.338C178.096 200.415 178.491 199.755 179.349 199.294L211.458 181.36L180.008 109.691C179.81 109.295 179.81 108.834 179.876 108.438L185.744 81.8009C186.535 78.1086 186.206 74.8119 184.623 71.4493L177.568 56.2847C175.524 51.9331 172.228 49.032 167.678 47.5815C149.679 41.9112 88.8222 25.7576 63.1082 55.8232C57.372 63.0099 53.4819 69.7351 50.1194 78.3064C46.2293 89.3832 45.3062 98.0864 47.2842 106.592C48.6029 111.075 50.0534 114.174 54.0753 117.207C54.3391 117.405 54.5369 117.603 54.6687 117.866L92.8441 190.195L92.7782 190.327ZM146.448 221.975H146.382L124.822 219.074C122.976 218.81 121.393 218.151 119.943 217.03L89.9431 193.228C89.9431 193.228 89.5475 192.832 89.4156 192.569L51.2402 120.24C46.6249 116.614 44.7788 112.724 43.3282 107.713C41.2184 98.2842 42.1414 88.8557 46.3612 76.9877C49.8556 67.889 53.9435 60.8341 60.0093 53.3177C87.4376 21.2741 150.338 37.8893 168.931 43.7574C174.535 45.5376 178.821 49.2958 181.261 54.6364L188.315 69.801C190.293 74.0207 190.755 78.2405 189.7 82.7239L183.964 108.702L215.876 181.426C216.271 182.415 215.876 183.47 215.018 183.997L182.25 202.261C181.788 204.239 180.008 206.217 179.085 207.14C177.502 208.788 172.03 213.601 164.909 212.547C163.854 215.25 161.942 218.019 154.821 218.151C154.69 218.481 154.492 218.81 154.228 219.14C152.843 220.854 150.008 221.843 146.514 221.843L146.448 221.975Z" fill="#0092FF"/>
<path fill-rule="evenodd" clip-rule="evenodd" d="M208.492 184.723L189.372 169.69L174.734 147.009L161.943 134.152C155.746 127.954 152.515 120.504 152.185 111.735L151.592 95.6472L123.9 92.878L112.955 105.999C109.988 109.559 105.57 111.537 101.087 110.152L90.7355 106.988C89.7465 106.658 89.0212 105.999 88.6915 105.01C88.3619 104.021 88.4278 103.032 89.0212 102.175L110.581 68.2189C112.098 65.8453 114.34 63.9333 117.175 63.4717L163.196 56.3509C164.251 56.1531 165.108 56.6806 165.899 57.4059L193.723 81.8671C217.921 103.164 206.448 102.768 230.514 108.57C237.833 110.284 241.723 112.13 252.602 116.416C269.481 149.844 244.162 174.371 219.371 182.086C219.371 182.086 210.668 185.646 208.492 184.723Z" fill="#002298"/>
<path fill-rule="evenodd" clip-rule="evenodd" d="M209.409 182.812C210.662 182.944 214.815 181.691 218.574 180.175C231.167 176.285 246.727 166.724 253.123 151.692C257.54 141.208 256.881 129.868 251.079 118L246.002 115.956C239.343 113.318 235.716 111.868 230.046 110.549C214.618 106.857 213.167 105.538 207.892 99.2087C205.189 95.978 201.101 91.0989 192.398 83.3848L164.574 58.9235C164.245 58.5938 163.783 58.3301 163.519 58.3301L117.498 65.4509C114.795 65.8465 113.08 68.0223 112.289 69.275L90.7289 103.231C90.5311 103.56 90.4652 103.89 90.5971 104.22C90.7289 104.615 90.9267 104.813 91.3223 104.945L101.674 108.11C104.971 109.165 108.663 107.78 111.366 104.615L122.311 91.4946C122.772 90.9671 123.432 90.7034 124.091 90.7693L151.783 93.5385C152.772 93.6044 153.563 94.4615 153.629 95.4505L154.223 111.604C154.486 119.912 157.519 126.769 163.387 132.637L176.178 145.428L190.882 168.175L209.409 182.746V182.812ZM209.409 186.834C208.749 186.834 208.156 186.768 207.629 186.504C207.431 186.438 207.299 186.373 207.167 186.241L187.98 171.208C187.98 171.208 187.651 170.878 187.519 170.68L172.882 147.999L160.354 135.538C153.827 129.011 150.333 120.967 150.003 111.736L149.475 97.3626L124.619 94.9231L114.333 107.187C110.641 111.67 105.234 113.516 100.355 112L90.0037 108.835C88.4213 108.373 87.2345 107.187 86.6411 105.67C86.0477 104.088 86.2455 102.505 87.1685 101.055L108.729 67.0992C110.707 63.9344 113.542 61.9564 116.707 61.429L162.728 54.3082C164.97 53.9126 166.552 55.3631 167.08 55.8247L194.903 80.2859C203.87 88.1979 208.09 93.2747 210.859 96.5714C215.409 102.044 216.2 103.033 230.837 106.527C236.771 107.912 240.529 109.428 247.386 112.132L253.189 114.439C253.65 114.637 254.046 114.967 254.243 115.428C260.837 128.483 261.694 141.538 256.749 153.208C249.826 169.56 233.145 179.845 219.826 183.999C217.057 185.12 212.31 186.834 209.343 186.834H209.409Z" fill="#0092FF"/>
<path fill-rule="evenodd" clip-rule="evenodd" d="M163.728 212.349H163.662C152.454 211.954 143.487 208.855 136.168 202.855C129.179 197.053 116.652 183.207 113.949 179.976C113.224 179.119 113.289 177.866 114.147 177.141C115.004 176.416 116.256 176.547 116.982 177.339C119.685 180.503 131.883 194.086 138.674 199.69C145.267 205.096 153.443 207.932 163.728 208.261C164.849 208.261 165.706 209.25 165.706 210.371C165.706 211.492 164.783 212.349 163.662 212.349H163.728Z" fill="#0092FF"/>
<path fill-rule="evenodd" clip-rule="evenodd" d="M180.269 203.316H179.346C170.775 203.184 161.874 203.052 153.764 195.997C146.907 189.997 128.248 172.921 124.424 168.767C123.632 167.91 123.698 166.657 124.555 165.932C125.347 165.206 126.665 165.206 127.456 166.063C131.215 170.151 149.676 187.03 156.467 192.964C163.456 199.03 171.236 199.162 179.412 199.294H180.269C181.39 199.294 182.313 200.217 182.247 201.338C182.247 202.459 181.324 203.382 180.203 203.382L180.269 203.316Z" fill="#0092FF"/>
<path fill-rule="evenodd" clip-rule="evenodd" d="M200.905 192.965H200.707C188.642 191.646 176.18 189.734 167.015 181.756C159.697 175.427 143.477 160.987 140.312 156.834C139.653 155.976 139.785 154.658 140.708 153.998C141.565 153.339 142.884 153.471 143.543 154.328C146.115 157.691 160.356 170.614 169.719 178.658C178.026 185.844 189.367 187.559 201.235 188.877C202.356 189.009 203.147 189.998 203.015 191.119C202.883 192.174 202.026 192.899 200.971 192.899L200.905 192.965Z" fill="#0092FF"/>
<path fill-rule="evenodd" clip-rule="evenodd" d="M153.043 218.35H152.846C143.615 217.427 132.077 215.515 124.89 209.185C118.956 203.976 109.264 194.811 106.099 191.317C105.374 190.46 105.44 189.207 106.231 188.482C107.088 187.757 108.341 187.757 109.132 188.614C112.099 191.91 121.791 201.009 127.593 206.152C133.923 211.69 144.604 213.405 153.307 214.328C154.428 214.46 155.219 215.449 155.087 216.569C154.955 217.624 154.098 218.416 153.043 218.416V218.35Z" fill="#0092FF"/>
<path fill-rule="evenodd" clip-rule="evenodd" d="M278.055 110.483L259.66 99.8681C253.199 97.1648 248.385 97.0989 241.528 98.3516C230.913 100.989 223.331 105.934 215.023 112.857C213.639 114.11 211.792 115.824 210.474 117.143C198.54 129.077 188.848 145.032 183.507 160.988C180.738 169.164 179.353 176.548 178.826 185.054C178.562 197.779 180.54 210.109 191.353 218.284L209.683 228.834L278.121 110.417L278.055 110.483Z" fill="#291AD8"/>
<path fill-rule="evenodd" clip-rule="evenodd" d="M249.035 99.537C246.793 99.537 244.485 99.8007 241.914 100.328C231.497 102.966 224.178 107.845 216.398 114.438C215.079 115.625 213.299 117.273 211.98 118.592C200.442 130.13 190.816 145.822 185.475 161.646C182.838 169.558 181.387 176.811 180.86 185.184C180.662 195.536 181.783 208.525 192.596 216.634L208.947 226.063L275.342 111.207L258.727 101.647C255.167 100.196 252.134 99.6029 249.035 99.6029V99.537ZM209.607 230.876C209.277 230.876 208.882 230.81 208.618 230.612L190.288 220.063C177.827 210.635 176.508 196.393 176.772 185.052C177.365 176.217 178.816 168.635 181.585 160.393C187.124 143.976 197.145 127.69 209.079 115.757C210.464 114.372 212.31 112.658 213.695 111.405C220.815 105.405 229.057 99.4051 241.057 96.4381C247.914 95.1854 253.255 95.0535 260.507 98.0864L279.1 108.768C279.562 109.031 279.892 109.493 280.024 110.02C280.155 110.548 280.024 111.141 279.826 111.603L211.387 229.953C210.991 230.612 210.332 230.942 209.607 230.942V230.876Z" fill="#0092FF"/>
<path fill-rule="evenodd" clip-rule="evenodd" d="M245.486 226.459C272.255 211.03 293.881 173.514 293.881 142.658C293.881 111.801 272.255 99.2734 245.486 114.702C218.783 130.13 197.091 167.712 197.091 198.569C197.091 229.426 218.783 241.953 245.486 226.525V226.459Z" fill="#291AD8"/>
<path fill-rule="evenodd" clip-rule="evenodd" d="M267.108 110.088C260.844 110.088 253.855 112.264 246.537 116.417C220.427 131.516 199.131 168.307 199.131 198.504C199.131 212.68 203.812 223.163 212.252 228.108C220.757 232.987 232.163 231.801 244.427 224.746C270.537 209.647 291.833 172.856 291.833 142.659C291.833 128.483 287.152 118 278.646 113.055C275.218 111.077 271.328 110.088 267.042 110.088H267.108ZM223.856 235.163C218.911 235.163 214.295 233.976 210.274 231.669C200.449 225.998 195.043 214.262 195.043 198.57C195.043 167.12 217.197 128.681 244.493 112.989C258.075 105.143 270.932 103.956 280.756 109.626C290.58 115.296 295.987 127.033 295.987 142.725C295.987 174.175 273.833 212.548 246.537 228.306C238.625 232.921 230.911 235.229 223.922 235.229L223.856 235.163Z" fill="#0092FF"/>
<path fill-rule="evenodd" clip-rule="evenodd" d="M103.131 200.745L88.9554 200.349C86.7796 200.283 84.9335 199.558 83.3511 198.107L81.1753 196.129C79.2632 194.415 78.2742 192.173 78.2742 189.602V184.064L77.0874 183.734C75.2413 183.207 73.7908 182.284 72.604 180.833L68.648 176.02C67.3952 174.503 66.8018 172.789 66.67 170.811L66.5381 166.921L65.0876 166.394C62.9118 165.602 61.3294 164.284 60.1426 162.306L57.6371 158.152C55.9888 155.449 55.3295 152.614 55.5273 149.449L55.6591 147.669C50.2526 145.097 46.2966 139.888 46.4944 133.163V128.878L47.0878 119.845C47.6153 114.834 49.3955 113.779 53.4833 113.449C55.3295 113.317 57.4393 113.515 59.1536 114.306L61.3953 115.361C63.3074 116.218 64.3623 117.207 65.8128 119.119C66.9996 120.768 67.659 122.416 67.8568 124.46L67.9887 125.779V130.13L70.6919 131.317L73.593 133.888C76.0325 135.998 77.2193 138.768 77.1534 141.998L76.9556 150.174C78.2083 150.833 79.2632 151.361 80.516 152.35L83.417 154.657C85.9225 156.635 87.439 160.526 87.3071 163.624L86.9774 173.778C90.406 173.91 91.9224 175.097 95.0213 177.602C97.1312 179.317 98.3839 181.492 98.7136 184.13L99.9663 192.569L103.197 200.745H103.131Z" fill="#002298"/>
<path fill-rule="evenodd" clip-rule="evenodd" d="M54.6081 115.362C54.6081 115.362 54.0147 115.362 53.6851 115.362C50.5862 115.626 49.5972 115.889 49.1357 119.977L48.5423 133.098C48.4104 138.57 51.3774 143.252 56.5861 145.757C57.3114 146.087 57.7729 146.878 57.707 147.735L57.5751 149.515C57.3773 152.285 57.9707 154.658 59.4213 157.098L61.9267 161.252C62.8498 162.834 64.1025 163.823 65.8168 164.416L67.2673 164.944C68.0585 165.208 68.586 165.933 68.586 166.79L68.7178 170.614C68.7178 172.196 69.2453 173.449 70.2343 174.636L74.1903 179.449C75.1134 180.57 76.1683 181.295 77.6188 181.691L78.8056 182.021C79.6628 182.284 80.3221 183.075 80.3221 183.999V189.537C80.3221 191.515 81.0474 193.229 82.5638 194.548L84.7396 196.526C85.9924 197.647 87.377 198.24 89.0253 198.24L100.102 198.57L97.9922 193.229L96.6076 184.328C96.278 182.218 95.289 180.504 93.6406 179.119C90.6077 176.68 89.4868 175.889 86.7836 175.757C85.6627 175.757 84.8056 174.768 84.8715 173.647L85.2012 163.493C85.2671 160.856 83.9484 157.625 82.1023 156.175L79.2012 153.867C78.0804 153.01 77.1573 152.548 75.9046 151.889C75.1793 151.493 74.7837 150.768 74.7837 149.977L74.9815 141.801C75.0474 139.23 74.1244 136.988 72.1464 135.34L69.4431 132.966L67.0036 131.845C66.2783 131.516 65.8168 130.79 65.8168 129.999L65.6849 124.461C65.5531 122.812 65.0256 121.494 64.0366 120.175C62.7179 118.395 61.9267 117.736 60.4103 117.076L58.1026 116.021C57.1136 115.56 55.729 115.296 54.4103 115.296L54.6081 115.362ZM103.201 202.724L89.0253 202.328C86.388 202.262 84.0144 201.339 82.1023 199.559L79.9265 197.581C77.6188 195.471 76.3661 192.702 76.3661 189.537V185.515C74.2562 184.856 72.542 183.735 71.1574 182.021L67.2014 177.207C65.6849 175.295 64.8937 173.251 64.7619 170.812L64.5641 168.306C61.9267 167.383 60.0147 165.735 58.5641 163.361L56.0587 159.274C54.2125 156.175 53.4213 152.944 53.6191 149.384V148.922C47.7511 145.559 44.3885 139.757 44.5203 133.164L44.6522 128.878L45.1797 119.779C45.839 113.318 48.7401 111.868 53.4213 111.406C55.7949 111.208 58.2345 111.604 60.0806 112.461L62.3883 113.516C64.8278 114.637 66.0805 115.889 67.597 117.867C69.0475 119.845 69.8387 121.889 70.0365 124.263L70.1684 125.582V128.878L71.6848 129.538C71.8826 129.604 72.0145 129.735 72.2123 129.867L75.1134 132.439C78.0144 134.944 79.465 138.307 79.3331 142.131L79.1353 148.988C80.0584 149.515 80.9155 150.043 81.9045 150.768L84.8056 153.076C88.0363 155.581 89.5528 160.328 89.4868 163.691L89.2231 171.933C92.1242 172.46 93.9044 173.911 96.4098 176.021C98.9153 177.999 100.432 180.636 100.893 183.801L102.146 192.24L105.245 200.02C105.509 200.68 105.443 201.339 105.047 201.932C104.651 202.46 104.058 202.789 103.399 202.789L103.201 202.724Z" fill="#0092FF"/>
<path fill-rule="evenodd" clip-rule="evenodd" d="M67.9924 130.131C66.5418 130.262 65.355 130.394 64.432 130.658C62.0584 131.186 59.0254 132.043 57.5749 134.021C56.1244 135.933 55.9266 144.9 55.7288 147.669C55.4651 135.801 53.0915 129.405 68.0583 130.131H67.9924Z" fill="#291AD8"/>
<path fill-rule="evenodd" clip-rule="evenodd" d="M55.6522 149.713C54.5972 149.713 53.6742 148.79 53.6742 147.735C53.6742 146.35 53.6082 144.965 53.5423 143.713C53.2786 138.174 53.0808 133.823 55.9159 130.922C58.1576 128.68 61.9158 127.823 68.1135 128.087C69.1685 128.087 70.0256 129.01 70.0256 130.065C70.0256 131.119 69.2344 132.043 68.1795 132.108C66.8608 132.24 65.7399 132.372 64.8169 132.57C63.696 132.834 60.3994 133.493 59.1466 135.207C58.3554 136.394 57.9598 143.053 57.828 145.559C57.828 146.482 57.762 147.273 57.6961 147.801C57.6302 148.856 56.7071 149.647 55.6522 149.647V149.713Z" fill="#0092FF"/>
<path fill-rule="evenodd" clip-rule="evenodd" d="M76.8927 150.175C73.5961 150.504 69.5741 151.559 68.0577 154.394C67.0687 156.372 66.8709 164.218 66.6071 166.856C66.2775 158.284 63.9039 149.515 76.8927 150.175Z" fill="#291AD8"/>
<path fill-rule="evenodd" clip-rule="evenodd" d="M66.599 168.9H66.5331C65.4781 168.9 64.621 168.043 64.5551 166.922C64.5551 165.933 64.4232 164.878 64.4232 163.889C64.0935 159.076 63.7639 154.131 66.8627 150.966C68.9726 148.856 72.3352 147.867 77.0165 148.131C78.0714 148.131 78.9285 149.054 78.9285 150.109C78.9285 151.164 78.1373 152.087 77.0824 152.219C73.2583 152.614 70.6869 153.735 69.8297 155.384C69.3023 156.438 68.9726 161.647 68.7748 164.153C68.7089 165.339 68.6429 166.46 68.5111 167.12C68.3792 168.175 67.5221 168.966 66.5331 168.966L66.599 168.9Z" fill="#0092FF"/>
<path fill-rule="evenodd" clip-rule="evenodd" d="M86.7153 173.779C78.8033 174.307 78.8034 177.603 78.2759 184.329C78.0781 176.153 77.3528 173.45 86.7153 173.779Z" fill="#291AD8"/>
<path fill-rule="evenodd" clip-rule="evenodd" d="M78.2688 186.041C77.2139 186.041 76.2908 185.382 76.2908 184.327V182.811C76.159 178.657 76.093 175.69 78.071 173.712C79.6534 172.129 82.1589 171.536 86.8402 171.734C87.8951 171.734 88.7522 172.657 88.8182 173.712C88.8182 174.833 88.027 175.69 86.9061 175.756C80.9721 176.151 80.8402 177.602 80.3787 183.931C80.3787 183.997 80.3787 184.063 80.3787 184.195C80.1809 185.184 79.3238 186.041 78.4007 186.041H78.2688Z" fill="#0092FF"/>
<path fill-rule="evenodd" clip-rule="evenodd" d="M121.533 86.2189C122.126 87.9331 124.434 92.2847 121.203 96.2407C123.709 93.6693 125.884 93.3397 128.654 93.3397C124.5 92.2847 123.247 88.7243 121.599 86.2189H121.533Z" fill="#291AD8"/>
<path fill-rule="evenodd" clip-rule="evenodd" d="M121.135 98.2853C120.673 98.2853 120.146 98.0875 119.816 97.7578C119.025 97.0325 118.893 95.7798 119.618 94.9227C121.596 92.5491 120.805 89.9777 119.882 87.5381L119.618 86.8788C119.288 85.8898 119.684 84.8349 120.607 84.3733C121.53 83.9118 122.651 84.1755 123.244 85.0327C123.574 85.5601 123.904 86.0876 124.233 86.681C125.42 88.7249 126.607 90.7029 129.112 91.2963C130.101 91.5601 130.761 92.4831 130.629 93.5381C130.497 94.5271 129.64 95.3183 128.585 95.3183C126.08 95.5161 124.497 95.6479 122.651 97.56C122.255 98.0215 121.728 98.2193 121.2 98.2193L121.135 98.2853Z" fill="#0092FF"/>
<path fill-rule="evenodd" clip-rule="evenodd" d="M158.317 92.1537C155.482 93.6702 154.493 94.6592 147.24 95.1866C153.108 95.78 151.13 97.758 151.856 101.318C152.053 95.7141 155.35 94.7251 158.383 92.1537H158.317Z" fill="#291AD8"/>
<path fill-rule="evenodd" clip-rule="evenodd" d="M151.786 103.296C150.797 103.296 149.94 102.636 149.808 101.647C149.61 100.658 149.61 99.7352 149.61 98.944C149.61 98.4825 149.61 97.955 149.544 97.7572C149.544 97.7572 149.082 97.4275 147.039 97.2297C145.984 97.1638 145.192 96.2407 145.192 95.1858C145.192 94.1309 146.05 93.2737 147.104 93.2078C153.038 92.7463 154.357 92.0869 156.401 90.9001L157.39 90.3727C158.313 89.9111 159.434 90.1749 160.027 91.032C160.621 91.8891 160.489 93.0759 159.698 93.7353C159.038 94.3287 158.313 94.8561 157.654 95.3177C155.346 96.966 154.027 97.955 153.896 101.384C153.896 102.373 153.038 103.23 152.049 103.362H151.918L151.786 103.296Z" fill="#0092FF"/>
</svg>
