<svg width="196" height="302" viewBox="0 0 196 302" fill="none" xmlns="http://www.w3.org/2000/svg">
<path fill-rule="evenodd" clip-rule="evenodd" d="M61.9182 99.4102L25.7995 120.361C20.131 123.646 15.4072 131.749 15.4072 138.392V280.304C15.4072 287.969 20.7851 291.108 27.3983 287.239L61.9182 267.237V99.4102Z" fill="#002298"/>
<path fill-rule="evenodd" clip-rule="evenodd" d="M59.6652 103.352L26.9622 122.332C21.9478 125.252 17.7327 132.625 17.7327 138.392V280.304C17.7327 283.15 18.5321 285.267 20.0583 286.143C21.5844 287.019 23.8373 286.727 26.3082 285.267L59.7379 265.923V103.352H59.6652ZM22.0204 291.107C20.4943 291.107 19.0408 290.742 17.8054 290.012C14.8258 288.26 13.1543 284.829 13.1543 280.304V138.392C13.1543 130.946 18.2414 122.113 24.7094 118.39L60.828 97.5121C61.5547 97.0741 62.3541 97.0741 63.0809 97.5121C63.7349 97.8771 64.2437 98.6071 64.2437 99.4101V267.164C64.2437 267.967 63.8076 268.697 63.0809 269.135L28.561 289.136C26.3082 290.45 24.128 291.107 22.0931 291.107H22.0204Z" fill="#0092FF"/>
<path fill-rule="evenodd" clip-rule="evenodd" d="M193.82 192.996V186.134C193.82 150.364 193.674 14.6573 193.093 13.4893C191.494 9.9853 187.642 9.1823 183.5 11.5913L51.9612 87.803C46.2927 91.088 41.5689 99.191 41.5689 105.834V281.252L36.7725 297.75L181.756 213.874C185.099 211.976 187.933 208.91 190.259 204.895C192.584 200.807 193.82 196.792 193.82 192.996Z" fill="#002298"/>
<path fill-rule="evenodd" clip-rule="evenodd" d="M188.079 12.3942C187.062 12.3942 185.826 12.7592 184.591 13.4892L53.1246 89.7009C48.1101 92.6209 43.8224 99.9939 43.8224 105.834V281.252C43.8224 281.252 43.7497 281.69 43.677 281.909L40.4794 293.078L180.666 211.976C183.646 210.224 186.189 207.523 188.37 203.8C190.477 200.077 191.567 196.427 191.567 192.996V186.134C191.567 125.033 191.349 21.2271 190.913 14.1462C190.477 13.3432 189.896 12.8322 189.169 12.6132C188.806 12.4672 188.515 12.4672 188.079 12.4672V12.3942ZM36.8457 300.013C36.337 300.013 35.901 299.867 35.4649 299.502C34.7382 298.918 34.4475 297.969 34.6655 297.093L39.3166 280.887V105.834C39.3166 98.3879 44.4038 89.5549 50.8717 85.8319L182.338 9.62018C185.172 8.01418 188.079 7.50318 190.477 8.30618C192.512 8.96318 194.111 10.4232 195.056 12.5402C195.346 13.1972 195.855 14.2921 196 186.134V192.996C196 197.23 194.765 201.61 192.221 205.99C189.678 210.37 186.553 213.727 182.919 215.844L37.9358 299.721C37.9358 299.721 37.2091 300.013 36.8457 300.013Z" fill="#0092FF"/>
<path fill-rule="evenodd" clip-rule="evenodd" d="M27.9066 119.12V267.09C27.9066 270.083 28.4153 284.537 22.4561 282.639C15.6975 280.449 15.3341 265.995 15.3341 259.863V138.392C15.3341 129.997 20.8573 123.135 27.8339 119.12H27.9066ZM27.9066 103.863L12.6452 112.696C6.61333 116.565 2.54362 123.573 2.25293 130.727V261.031C2.25293 275.047 9.22957 289.866 21.584 297.02C29.3601 301.546 36.4094 300.159 39.6797 294.392C42.2233 289.866 41.4965 284.026 41.4965 278.989V105.834C41.8599 98.6069 45.8569 91.6719 51.9615 87.803L183.5 11.5912C186.116 10.2772 187.643 9.76622 190.477 10.7152L176.814 2.75825C173.98 1.80925 172.381 2.17425 169.838 3.63424L38.2989 79.846C32.267 83.715 28.1973 90.7229 27.9066 97.8769V103.863Z" fill="#291AD8"/>
<path fill-rule="evenodd" clip-rule="evenodd" d="M25.6537 123.354C20.4939 127.369 17.6596 132.698 17.6596 138.392V259.863C17.6596 276.288 21.0753 279.865 23.1101 280.522C24.2729 280.084 25.6537 277.894 25.581 267.82V123.354H25.6537ZM23.4735 285.048C22.9648 285.048 22.3834 284.975 21.7293 284.756C15.9155 282.858 13.0812 274.755 13.0812 259.79V138.392C13.0812 130.07 18.241 122.113 26.7438 117.222C27.3979 116.857 28.2699 116.857 28.9967 117.222C29.7234 117.587 30.0868 118.39 30.0868 119.12V267.09V267.747C30.0868 274.39 29.7234 281.544 26.3078 284.099C25.6537 284.537 24.7089 285.048 23.4735 285.048ZM174.125 4.43728C174.561 4.43728 175.07 4.51028 175.651 4.72927L183.355 9.18226C183.355 9.18226 182.701 9.47426 182.337 9.69326L50.7987 85.905C44.1127 90.139 39.7523 97.804 39.389 105.834V278.989C39.389 279.865 39.389 280.814 39.389 281.69C39.4616 285.851 39.607 290.085 37.7901 293.297C36.7 295.268 35.1012 296.582 32.9937 297.166C30.0868 297.969 26.4531 297.239 22.7468 295.122C11.8458 288.771 4.50575 275.12 4.50575 261.104V130.873C4.79644 124.376 8.35744 118.171 13.8079 114.667L29.0693 105.834C29.7961 105.469 30.2321 104.666 30.2321 103.863V97.95C30.5228 91.526 34.1565 85.175 39.4616 81.744L170.928 5.60527C172.381 4.80227 173.253 4.43728 174.125 4.43728ZM30.5228 301.984C27.3252 301.984 23.9095 300.962 20.4939 298.991C8.21209 291.91 0 276.653 0 261.031V130.8C0.363367 122.697 4.79644 115.105 11.4824 110.871L25.6537 102.622V97.95C26.0171 89.847 30.3775 82.255 37.0634 78.021L168.675 1.73628C171.509 0.13029 173.689 -0.599707 177.396 0.641288L191.494 8.74426C192.512 9.32826 192.875 10.5693 192.439 11.5913C192.003 12.6132 190.768 13.1972 189.75 12.8322C187.715 12.1753 186.989 12.3942 184.445 13.6352L53.1242 89.701C47.8191 93.132 44.1127 99.483 43.822 105.907V278.989C43.822 279.865 43.822 280.741 43.822 281.617C43.8947 286.143 44.04 291.253 41.6418 295.487C39.9703 298.48 37.3541 300.597 34.1565 301.473C32.9937 301.765 31.8309 301.984 30.5228 301.984Z" fill="#0092FF"/>
<path fill-rule="evenodd" clip-rule="evenodd" d="M69.7663 163.285L114.46 137.297C115.551 136.64 116.495 137.151 116.495 138.465V167.446C116.495 168.76 115.551 170.366 114.46 171.023L69.7663 196.937C68.6762 197.594 67.7314 197.083 67.7314 195.769V166.789C67.7314 165.475 68.6762 163.869 69.7663 163.285Z" fill="#002298"/>
<path fill-rule="evenodd" clip-rule="evenodd" d="M114.316 140.071L70.9296 165.256C70.4935 165.475 69.9848 166.351 69.9848 166.862V194.31L113.443 169.125C113.88 168.906 114.388 168.03 114.388 167.519V140.071H114.316ZM68.8947 199.566C68.3133 199.566 67.732 199.42 67.2959 199.128C66.2058 198.471 65.5518 197.303 65.5518 195.843V166.862C65.5518 164.745 66.8599 162.409 68.7494 161.387L113.516 135.472C114.752 134.742 116.06 134.669 117.15 135.326C118.24 135.983 118.894 137.151 118.894 138.611V167.592C118.894 169.709 117.586 172.045 115.769 173.067L71.0023 198.982C70.3482 199.347 69.6215 199.566 68.9674 199.566H68.8947Z" fill="#0092FF"/>
<path fill-rule="evenodd" clip-rule="evenodd" d="M72.9638 144.597C71.7284 144.597 70.7109 143.575 70.7109 142.334L70.8563 116.054C70.8563 113.134 72.5278 110.798 74.8533 110.287C76.6702 109.849 78.487 110.798 79.2864 112.55L88.1525 132.041C88.1525 132.041 88.3706 131.53 88.2979 131.384L88.5886 104.228C88.5886 102.987 89.606 102.038 90.8415 102.038C92.0769 102.038 93.0943 103.06 93.0217 104.301L92.731 131.311C92.8036 133.574 91.2048 136.64 88.7339 137.224C88.0799 137.37 85.6817 137.662 84.3009 134.596L75.4347 115.178C75.4347 115.178 75.2894 115.689 75.2894 116.127L75.144 142.407C75.144 143.648 74.1266 144.67 72.8911 144.67L72.9638 144.597Z" fill="#0092FF"/>
<path fill-rule="evenodd" clip-rule="evenodd" d="M99.5621 129.851C98.9807 129.851 98.3994 129.705 97.8906 129.413C96.8005 128.756 96.1465 127.588 96.1465 126.128V113.791V102.257C96.1465 100.14 97.4546 97.8045 99.3441 96.7825L112.207 89.3365C113.225 88.6795 114.678 89.1175 115.26 90.1395C115.841 91.2345 115.478 92.5485 114.46 93.2055L101.597 100.651C101.161 100.87 100.652 101.746 100.652 102.257V109.849L108.356 105.396C109.373 104.739 110.754 105.104 111.408 106.199C111.989 107.294 111.626 108.681 110.608 109.265L100.652 115.032V124.595L112.353 117.806C113.37 117.149 114.751 117.514 115.405 118.609C116.059 119.704 115.696 121.018 114.606 121.675L101.597 129.267C100.943 129.632 100.216 129.851 99.5621 129.851Z" fill="#0092FF"/>
<path fill-rule="evenodd" clip-rule="evenodd" d="M125.361 115.105C125.361 115.105 124.707 115.105 124.344 114.959C123.254 114.594 122.382 113.718 122.091 112.477L118.021 88.0217C117.803 86.7807 118.603 85.6127 119.838 85.4667C121.073 85.2477 122.236 86.0507 122.454 87.2917L126.088 109.046L129.504 87.7297C129.649 86.7077 130.521 85.9047 131.611 85.8317C132.628 85.8317 133.573 86.4157 133.864 87.4377L138.297 102.403C138.297 102.403 138.37 102.184 138.442 102.038L141.567 72.9107C141.713 71.6697 142.875 70.7937 144.038 70.9397C145.274 71.0857 146.146 72.1807 146 73.4217L142.803 102.768C142.439 104.374 141.713 105.688 140.695 106.637C139.532 107.732 138.079 108.17 136.844 107.805C135.753 107.513 134.881 106.637 134.591 105.469L132.483 98.1686L130.594 109.995C130.303 111.528 129.431 112.915 128.341 113.864C127.469 114.594 126.451 115.032 125.507 115.032L125.361 115.105Z" fill="#0092FF"/>
<path fill-rule="evenodd" clip-rule="evenodd" d="M150.652 100.578C149.926 100.578 149.126 100.14 148.763 99.4834C148.109 98.3885 148.472 97.0015 149.562 96.4175L163.952 87.9495C164.388 87.7305 164.896 86.8545 164.896 86.3435V77.3645L153.85 83.7155C152.614 84.4455 151.234 84.5185 150.144 83.8615C149.053 83.2045 148.399 82.0365 148.399 80.5765V71.9625C148.399 69.8455 149.708 67.5096 151.524 66.4876L165.914 58.0196C167.004 57.3626 168.312 57.7276 168.966 58.8226C169.547 59.9176 169.257 61.3046 168.167 61.8886L153.777 70.3565C153.341 70.5755 152.832 71.4515 152.832 71.9625V79.1165L163.879 72.7655C165.114 72.0355 166.495 71.9625 167.585 72.6195C168.675 73.2765 169.329 74.4445 169.329 75.9045V86.4165C169.329 88.5335 168.021 90.7965 166.204 91.8915L151.815 100.359C151.815 100.359 151.088 100.651 150.725 100.651L150.652 100.578Z" fill="#0092FF"/>
<path fill-rule="evenodd" clip-rule="evenodd" d="M116.568 151.021V167.591C116.568 168.905 115.696 170.365 114.606 171.022L69.9114 197.01C68.8213 197.667 67.9492 197.083 67.9492 195.842V188.031L75.2166 177.519H92.0041C92.8762 177.519 93.8209 176.716 94.5477 175.694L111.553 151.312L116.713 151.021H116.568Z" fill="#291AD8"/>
<path fill-rule="evenodd" clip-rule="evenodd" d="M69.9848 188.761V194.309L113.443 169.124C113.88 168.832 114.316 168.03 114.388 167.519V153.43L112.644 153.576L96.2926 177.008C95.1298 178.687 93.4583 179.709 91.9322 179.709H76.3074L70.0575 188.688L69.9848 188.761ZM68.8947 199.565C68.3133 199.565 67.732 199.419 67.2232 199.127C66.1331 198.47 65.5518 197.302 65.5518 195.842V188.031C65.5518 187.593 65.6971 187.155 65.9151 186.717L73.1825 176.205C73.6185 175.621 74.2726 175.256 74.9993 175.256H91.7868C91.7868 175.256 92.1502 174.964 92.5136 174.38L109.519 149.999C109.955 149.415 110.537 149.123 111.191 149.05L116.423 148.685C117.004 148.685 117.659 148.831 118.095 149.269C118.531 149.707 118.821 150.291 118.821 150.948V167.446C118.821 169.635 117.513 171.825 115.769 172.92L70.9296 198.908C70.2029 199.273 69.5488 199.492 68.8947 199.492V199.565Z" fill="#0092FF"/>
<path fill-rule="evenodd" clip-rule="evenodd" d="M46.1479 93.2776V93.1316C48.0374 90.7956 49.4909 89.3356 52.0345 87.7296L183.501 11.5909C186.117 10.2769 187.643 9.76589 190.477 10.7149L176.815 2.75791C173.98 1.80891 172.527 2.39291 169.838 3.63391L38.2992 79.8457C35.7557 81.4517 34.3749 82.8387 32.4854 85.2476V85.3936L46.0753 93.2776H46.1479Z" fill="#002298"/>
<path fill-rule="evenodd" clip-rule="evenodd" d="M35.8283 84.7374L45.5665 90.3584C47.02 88.6064 48.5461 87.2924 50.799 85.8324L182.338 9.62067C182.338 9.62067 182.992 9.25567 183.355 9.10967L175.652 4.65668C174.053 4.14568 173.254 4.36468 170.783 5.60568L39.3893 81.8174C37.8632 82.7664 36.8457 83.6424 35.8283 84.7374ZM46.0026 95.5414C46.0026 95.5414 45.2758 95.4684 44.9851 95.2494L31.3226 87.2924C30.7412 87.0004 30.3778 86.4164 30.2325 85.8324C30.0871 85.2484 30.2325 84.5914 30.5958 84.0804C32.6307 81.4524 34.1568 79.8464 37.0638 77.9484L168.675 1.73669C171.655 0.276697 173.762 -0.5263 177.469 0.641696L191.567 8.74467C192.585 9.32867 192.948 10.5697 192.512 11.5917C192.003 12.6137 190.841 13.1977 189.75 12.8327C187.716 12.1757 186.989 12.3947 184.445 13.6357L53.1246 89.7014C50.799 91.1614 49.6362 92.4024 47.9648 94.5194C47.456 95.1034 46.7293 95.4684 46.0026 95.4684V95.5414Z" fill="#0092FF"/>
<path fill-rule="evenodd" clip-rule="evenodd" d="M27.9062 103.863L12.6448 112.696C9.15646 114.886 6.90359 117.514 4.94141 121.164L18.0953 128.756C19.9848 125.398 22.4557 122.259 25.7987 120.288L27.9062 119.047V103.79V103.863Z" fill="#002298"/>
<path fill-rule="evenodd" clip-rule="evenodd" d="M8.0664 120.361L17.3686 125.763C19.5488 122.405 21.947 119.996 24.7813 118.39L25.726 117.806V107.732L13.8076 114.594C11.482 116.127 9.66521 117.879 8.0664 120.288V120.361ZM18.0953 131.019C17.7319 131.019 17.3686 130.946 17.0052 130.727L3.85134 123.135C2.83391 122.551 2.39787 121.164 3.05193 120.069C5.30481 115.981 7.84838 113.134 11.482 110.798L26.8161 101.892C27.4702 101.454 28.3423 101.454 29.069 101.892C29.7231 102.257 30.1591 103.06 30.1591 103.863V119.12C30.1591 119.923 29.7231 120.653 29.069 121.091L26.9615 122.332C24.3452 123.792 22.0924 126.347 20.0575 129.924C19.7668 130.435 19.2581 130.8 18.6767 131.019C18.4587 131.019 18.2407 131.092 18.0953 131.092V131.019Z" fill="#0092FF"/>
<path fill-rule="evenodd" clip-rule="evenodd" d="M130.376 135.034C129.577 135.034 128.85 134.596 128.414 133.866C127.76 132.771 128.196 131.457 129.214 130.8L167.585 108.535C168.675 107.951 170.056 108.243 170.637 109.338C171.219 110.433 170.855 111.747 169.838 112.404L131.467 134.669C131.467 134.669 130.74 134.961 130.376 134.961V135.034Z" fill="#0092FF"/>
<path fill-rule="evenodd" clip-rule="evenodd" d="M130.376 159.488C129.577 159.488 128.85 159.123 128.414 158.393C127.76 157.298 128.196 155.911 129.214 155.327L167.585 133.063C168.675 132.406 170.056 132.771 170.637 133.866C171.219 134.961 170.855 136.275 169.838 136.932L131.467 159.196C131.467 159.196 130.74 159.488 130.376 159.488Z" fill="#0092FF"/>
<path fill-rule="evenodd" clip-rule="evenodd" d="M70.1293 220.371C69.3299 220.371 68.6032 219.933 68.1671 219.276C67.5857 218.181 67.9491 216.794 68.9665 216.21L167.584 158.978C168.674 158.394 170.055 158.759 170.637 159.781C171.218 160.876 170.855 162.263 169.837 162.847L71.2194 220.006C71.2194 220.006 70.42 220.298 70.0566 220.298L70.1293 220.371Z" fill="#0092FF"/>
<path fill-rule="evenodd" clip-rule="evenodd" d="M70.1293 246.359C69.3299 246.359 68.6032 245.994 68.1671 245.264C67.5857 244.169 67.9491 242.782 68.9665 242.198L167.584 185.039C168.674 184.455 170.055 184.747 170.637 185.842C171.218 186.937 170.855 188.324 169.837 188.908L71.2194 246.067C71.2194 246.067 70.42 246.359 70.0566 246.359H70.1293Z" fill="#0092FF"/>
</svg>
