<svg width="174" height="256" viewBox="0 0 174 256" fill="none" xmlns="http://www.w3.org/2000/svg">
<path fill-rule="evenodd" clip-rule="evenodd" d="M104.698 241.6L102.156 246.471C100.038 250.354 95.4499 251.978 91.3554 252.754C87.4021 253.39 83.8725 253.248 79.9898 252.26C76.6013 251.272 73.1422 249.719 71.3067 246.471L68.8359 241.6C80.0604 244.918 93.4732 244.918 104.698 241.6Z" fill="#002298"/>
<path fill-rule="evenodd" clip-rule="evenodd" d="M72.9882 244.846L73.2706 245.411C74.4707 247.529 76.8003 249.011 80.6124 250.141C84.0715 250.988 87.3188 251.129 91.0603 250.564C95.7901 249.647 98.8962 247.952 100.379 245.411L100.661 244.917C91.7662 246.752 81.9537 246.752 73.0588 244.917L72.9882 244.846ZM86.6835 255.223C84.2833 255.223 81.9537 254.941 79.4829 254.306C74.4707 252.894 71.2234 250.635 69.4586 247.458L66.9172 242.587C66.4936 241.811 66.6348 240.893 67.1995 240.187C67.7643 239.552 68.682 239.269 69.4586 239.481C80.2594 242.728 93.2487 242.728 104.05 239.481C104.897 239.269 105.814 239.481 106.309 240.187C106.873 240.893 106.944 241.811 106.591 242.587L104.12 247.458C102.002 251.27 97.8373 253.741 91.6957 254.871C89.9308 255.153 88.2365 255.294 86.6129 255.294L86.6835 255.223Z" fill="#0092FF"/>
<path fill-rule="evenodd" clip-rule="evenodd" d="M114.574 237.435C125.092 231.363 128.41 222.68 124.457 214.915L116.903 200.302H56.6865L49.133 214.915C45.1797 222.68 48.4976 231.363 59.0161 237.435C74.335 246.259 99.2547 246.259 114.574 237.435Z" fill="#002298"/>
<path fill-rule="evenodd" clip-rule="evenodd" d="M58.031 202.49L51.1128 215.974C47.5125 222.963 50.901 230.234 60.1488 235.599C74.8324 244.07 98.7637 244.07 113.518 235.599C122.766 230.234 126.084 222.892 122.554 215.974L115.636 202.49H58.031ZM86.8333 246.259C76.3854 246.259 65.9375 243.929 57.9604 239.34C46.6654 232.846 42.5709 223.104 47.2301 213.997L54.7837 199.314C55.1366 198.608 55.9132 198.113 56.6897 198.113H116.906C117.753 198.113 118.459 198.608 118.812 199.314L126.366 213.997C131.025 223.104 126.931 232.846 115.636 239.34C107.659 243.929 97.2106 246.259 86.7627 246.259H86.8333Z" fill="#0092FF"/>
<path fill-rule="evenodd" clip-rule="evenodd" d="M86.7653 4.47389C49.4917 4.47389 18.9245 25.0873 8.82959 56.9252C-1.7595 90.3161 9.11196 113.118 22.1718 135.496C24.9956 140.297 27.537 143.615 29.796 146.579C33.8904 151.945 37.4201 156.604 40.2439 166.769C40.9498 169.24 41.444 171.57 41.8675 173.758C43.1382 179.759 44.1266 184.418 48.7858 189.924C56.2687 198.89 68.9756 204.325 83.518 204.819C99.8958 205.384 115.356 199.807 124.957 189.783C129.757 184.841 130.604 180.112 131.734 174.252C132.157 171.923 132.651 169.452 133.357 166.769C136.252 156.604 139.781 151.945 143.805 146.579C146.064 143.615 148.606 140.297 151.429 135.496C164.489 113.118 175.29 90.3161 164.772 56.9252C154.677 25.0873 124.109 4.47389 86.8359 4.47389H86.7653ZM85.7064 209.196C84.9298 209.196 84.0827 209.196 83.3062 209.196C67.5637 208.632 53.7273 202.631 45.3972 192.748C40.1027 186.394 38.9026 180.747 37.5613 174.676C37.1378 172.558 36.6436 170.37 35.9377 167.969C33.2551 158.58 30.149 154.415 26.1957 149.191C23.8661 146.156 21.2541 142.697 18.3598 137.685C4.80574 114.459 -6.4893 90.6691 4.66454 55.6545C15.3242 21.9812 47.5857 0.167664 86.7653 0.167664C125.945 0.167664 158.206 21.9106 168.866 55.6545C179.949 90.7397 168.725 114.459 155.171 137.685C152.276 142.697 149.594 146.156 147.264 149.191C143.311 154.415 140.134 158.58 137.522 167.969C136.816 170.511 136.393 172.84 135.969 175.099C134.84 181.171 133.71 186.959 128.063 192.889C118.109 203.266 102.367 209.267 85.777 209.267L85.7064 209.196Z" fill="#0092FF"/>
<path fill-rule="evenodd" clip-rule="evenodd" d="M109.354 223.174C121.849 215.974 121.849 204.326 109.354 197.125C96.9292 189.925 76.6687 189.925 64.2442 197.125C51.8196 204.326 51.8196 215.974 64.2442 223.174C76.6687 230.375 96.9292 230.375 109.354 223.174Z" fill="#002298"/>
<path fill-rule="evenodd" clip-rule="evenodd" d="M86.7619 193.879C78.9966 193.879 71.2312 195.573 65.3013 199.032C60.0068 202.138 57.0419 206.092 57.0419 210.186C57.0419 214.28 60.0068 218.234 65.3013 221.34C77.1611 228.187 96.4333 228.187 108.293 221.34C113.588 218.304 116.553 214.28 116.553 210.186C116.553 206.092 113.658 202.138 108.293 199.032C102.363 195.644 94.5978 193.879 86.8325 193.879H86.7619ZM86.7619 230.729C78.22 230.729 69.6076 228.893 63.1129 225.081C56.4065 221.199 52.665 215.904 52.665 210.186C52.665 204.468 56.3359 199.173 63.1129 195.291C76.1728 187.737 97.351 187.737 110.411 195.291C117.117 199.173 120.859 204.468 120.859 210.186C120.859 215.904 117.188 221.199 110.411 225.081C103.916 228.823 95.3038 230.729 86.7619 230.729V230.729Z" fill="#0092FF"/>
<path fill-rule="evenodd" clip-rule="evenodd" d="M114.574 225.434C125.092 219.363 128.41 210.68 124.457 202.985L116.903 188.301H56.6865L49.133 202.985C45.1797 210.68 48.4976 219.363 59.0161 225.434C74.335 234.329 99.2547 234.329 114.574 225.434Z" fill="#002298"/>
<path fill-rule="evenodd" clip-rule="evenodd" d="M58.031 190.42L51.1128 203.903C47.5125 210.892 50.901 218.234 60.1488 223.528C74.8324 231.999 98.7637 231.999 113.518 223.528C122.766 218.234 126.084 210.892 122.554 203.903L115.636 190.42H58.031ZM86.8333 234.188C76.3854 234.188 65.9375 231.858 57.9604 227.27C46.6654 220.775 42.5709 211.033 47.2301 201.926L54.7837 187.243C55.1366 186.537 55.9132 186.043 56.6897 186.043H116.906C117.753 186.043 118.459 186.537 118.812 187.243L126.366 201.926C131.025 211.033 126.931 220.775 115.636 227.27C107.659 231.858 97.2106 234.188 86.7627 234.188H86.8333Z" fill="#0092FF"/>
<path fill-rule="evenodd" clip-rule="evenodd" d="M114.935 167.051C130.466 176.017 130.466 190.559 114.935 199.525C99.4048 208.49 74.2734 208.49 58.7427 199.525C43.2121 190.559 43.2121 176.017 58.7427 167.051C74.2734 158.086 99.4048 158.086 114.935 167.051Z" fill="#291AD8"/>
<path fill-rule="evenodd" clip-rule="evenodd" d="M86.7626 162.535C76.95 162.535 67.2081 164.653 59.7251 168.959C52.9481 172.913 49.136 177.995 49.136 183.29C49.136 188.585 52.8775 193.738 59.7251 197.621C74.6204 206.233 98.8342 206.233 113.729 197.621C120.506 193.667 124.248 188.585 124.248 183.29C124.248 177.995 120.506 172.913 113.729 168.959C106.247 164.653 96.5046 162.535 86.692 162.535H86.7626ZM86.7626 208.421C76.1735 208.421 65.655 206.092 57.6073 201.433C49.4184 196.703 44.9004 190.279 44.9004 183.361C44.9004 176.442 49.4184 170.018 57.6073 165.218C73.7027 155.97 99.8931 155.97 115.988 165.218C124.177 169.948 128.695 176.372 128.695 183.361C128.695 190.349 124.177 196.703 115.988 201.433C107.941 206.092 97.3517 208.421 86.8332 208.421H86.7626Z" fill="#0092FF"/>
<path fill-rule="evenodd" clip-rule="evenodd" d="M126.511 184.419V198.255C126.369 200.867 125.169 203.691 123.687 205.809C118.251 213.574 107.097 217.668 98.1319 219.151C85.072 221.339 68.6236 219.786 57.3286 212.515C52.6694 209.55 48.222 205.032 47.3043 199.314L47.1631 198.255V184.419C47.3749 186.042 47.5866 187.242 48.2926 188.795C51.7517 197.055 61.9878 201.996 70.1767 204.185C84.5073 208.068 103.709 206.867 116.416 198.749C121.075 195.784 125.522 191.266 126.44 185.548L126.581 184.419H126.511Z" fill="#002298"/>
<path fill-rule="evenodd" clip-rule="evenodd" d="M49.2772 194.655L49.4184 199.102C50.3361 204.75 55.4895 208.774 58.4544 210.68C68.1964 216.963 83.6565 219.433 97.7752 217.033C101.87 216.327 115.706 213.362 121.848 204.538C123.26 202.491 124.177 200.091 124.319 198.114V194.584C122.554 196.773 120.224 198.749 117.471 200.514C103.282 209.55 83.1623 209.903 69.4671 206.232C64.9491 205.032 55.0659 201.644 49.2772 194.655V194.655ZM86.692 222.257C76.5971 222.257 65.1608 220.139 56.0542 214.351C49.842 210.397 45.9593 205.173 45.0416 199.667L44.9004 198.467V184.419C44.9004 183.289 45.8181 182.301 46.9476 182.23C48.0065 182.089 49.0654 183.007 49.2066 184.136C49.4184 185.619 49.5596 186.607 50.1243 187.878C53.9364 196.914 66.7139 200.938 70.526 201.997C85.6331 206.021 103.917 203.903 115.071 196.843C118.036 194.937 123.189 190.914 124.107 185.125L124.248 184.136C124.389 183.007 125.236 182.16 126.507 182.23C127.636 182.23 128.554 183.219 128.554 184.419V198.255C128.413 201.15 127.142 204.326 125.307 207.009C118.389 216.892 104.129 220.281 98.4106 221.269C94.8809 221.834 90.857 222.257 86.692 222.257V222.257Z" fill="#0092FF"/>
<path fill-rule="evenodd" clip-rule="evenodd" d="M100.81 167.477V179.477V179.619V179.689L100.74 179.76V179.83L100.669 179.901L100.598 180.042L100.457 180.113H100.387L80.1261 191.831L79.9849 191.902L79.8437 191.973H79.7731L79.5614 192.043H79.4202L79.279 192.114H79.1378H78.9966H78.8554H78.6436L78.5025 192.043H78.3613L78.2201 191.973H78.0789L77.9377 191.902L77.7965 191.831L77.7259 191.761L76.2435 190.914L72.502 188.725L72.3608 188.655L72.2902 188.584L72.2196 188.513L72.149 188.443L72.0784 188.372L72.0078 188.231V188.16V176.089V176.16V176.23L72.0784 176.371L72.149 176.442L72.2196 176.513L72.2902 176.583L72.3608 176.654L72.502 176.724L76.2435 178.913L77.7259 179.76L77.7965 179.83L77.9377 179.901L78.0789 179.972H78.2201L78.3613 180.042H78.5025L78.6436 180.113H78.8554H78.9966H79.1378H79.279L79.4202 180.042H79.5614L79.7731 179.972H79.8437L79.9849 179.901L80.1261 179.83L100.387 168.112H100.457L100.598 167.971H100.669L100.74 167.829V167.759L100.81 167.688V167.547V167.477Z" fill="#291AD8"/>
<path fill-rule="evenodd" clip-rule="evenodd" d="M74.1922 187.242L78.7809 189.924L98.6883 178.629V171.641L81.2516 181.735C81.181 181.735 80.8281 181.947 80.7575 181.947L80.1221 182.159C80.1221 182.159 79.628 182.23 79.4868 182.3H78.922C78.922 182.3 78.2867 182.3 78.2161 182.3C78.1455 182.3 77.5808 182.159 77.5102 182.088C77.4396 182.088 77.0866 181.947 77.016 181.877L74.1922 180.253V187.242V187.242ZM78.922 194.301C78.922 194.301 78.2867 194.301 78.2161 194.231C78.1455 194.231 77.7219 194.16 77.6513 194.089C77.5808 194.089 77.2278 193.948 77.1572 193.948C77.0866 193.948 76.7336 193.736 76.5924 193.666L71.3685 190.701C71.3685 190.701 70.7331 190.277 70.6625 190.207C70.5214 190.066 70.3096 189.783 70.239 189.713C70.239 189.571 70.0272 189.289 69.9566 189.148C69.9566 189.007 69.8154 188.583 69.8154 188.371V176.159C69.8154 174.958 70.7331 174.041 71.9332 173.97C72.851 173.9 73.6981 174.464 74.0511 175.311L78.7809 177.923L98.9001 166.558C99.1825 165.64 100.1 165.075 101.089 165.216C102.218 165.216 103.065 166.417 103.065 167.546V179.547C103.065 179.547 103.065 180.112 102.995 180.182C102.995 180.324 102.853 180.606 102.783 180.747C102.712 180.888 102.571 181.1 102.5 181.241C102.5 181.241 102.006 181.735 102.006 181.806C101.936 181.877 101.653 182.088 101.583 182.088L81.3222 193.807C81.3222 193.807 80.8987 194.019 80.8281 194.019C80.8281 194.019 80.1927 194.231 80.1221 194.231C80.0515 194.231 79.628 194.301 79.5574 194.301C79.4868 194.301 79.1338 194.301 78.9926 194.301H78.922Z" fill="#0092FF"/>
<path fill-rule="evenodd" clip-rule="evenodd" d="M95.0187 163.735L100.384 166.841C101.019 167.194 101.019 167.829 100.384 168.182L80.1234 179.83C79.4881 180.183 78.4291 180.183 77.7938 179.83H77.6526L76.1701 178.912L72.4287 176.724C71.7933 176.371 71.7933 175.736 72.4287 175.383L92.6185 163.735C93.2539 163.382 94.3128 163.382 94.9481 163.735H95.0187Z" fill="#291AD8"/>
<path fill-rule="evenodd" clip-rule="evenodd" d="M75.675 176.088L78.7811 177.853L97.1356 167.476L93.9588 165.641L75.675 176.088ZM78.9223 182.301C78.1458 182.301 77.2987 182.089 76.6633 181.736L71.2982 178.63C70.3099 178.065 69.7451 177.077 69.7451 176.088C69.7451 175.1 70.3099 174.112 71.2982 173.547L91.5586 161.828C92.8293 161.052 94.7354 161.123 96.0061 161.828L101.371 164.935C102.36 165.499 102.924 166.488 102.924 167.476C102.924 168.464 102.36 169.453 101.371 170.017L81.1107 181.736C80.4754 182.089 79.6989 182.301 78.8517 182.301H78.9223Z" fill="#0092FF"/>
<path fill-rule="evenodd" clip-rule="evenodd" d="M93.5389 169.101C92.3388 169.101 91.3505 168.112 91.3505 166.912C91.3505 138.039 102.01 97.6595 105.187 85.9409C105.54 84.8114 106.669 84.1055 107.869 84.3878C108.999 84.7408 109.705 85.9409 109.352 87.0704C102.716 110.861 95.6567 144.393 95.6567 166.912C95.6567 168.112 94.6684 169.101 93.4683 169.101H93.5389ZM79.8437 177.007C78.6436 177.007 77.6553 176.019 77.6553 174.819C77.6553 153.57 72.7137 128.438 64.8072 109.237C64.313 108.107 64.8072 106.837 66.0073 106.413C67.1368 105.99 68.4075 106.484 68.831 107.613C76.9493 127.309 82.0321 153.076 82.0321 174.889C82.0321 176.089 81.0438 177.078 79.8437 177.078V177.007Z" fill="#0092FF"/>
<path fill-rule="evenodd" clip-rule="evenodd" d="M73.9183 95.1882C72.5064 96.3177 70.5298 99.1415 70.1062 101.824L68.9061 109.095C68.6943 110.295 68.9061 110.719 68.9061 110.719C70.318 109.589 72.2946 106.766 72.7182 104.083L73.9183 96.7413C74.1301 95.5412 73.9183 95.1176 73.9183 95.1176V95.1882ZM68.5531 114.884C67.7766 114.884 67.0001 114.672 66.3647 114.178C65.447 113.543 64.1057 111.99 64.6705 108.389L65.8706 101.048C66.5059 97.2354 69.1179 93.141 72.0122 91.6585C73.7065 90.8114 75.3301 90.8114 76.6008 91.7291C77.448 92.3645 78.8598 93.9175 78.2951 97.4472L77.095 104.789C76.4596 108.672 73.8477 112.696 70.9533 114.178C70.1768 114.602 69.3297 114.813 68.5531 114.813V114.884Z" fill="#0092FF"/>
<path fill-rule="evenodd" clip-rule="evenodd" d="M82.5227 87.9172C81.1108 89.0467 79.2047 91.8705 78.7106 94.5531L76.8046 106.342C76.5928 107.542 76.8046 107.966 76.8046 107.966C78.2164 106.836 80.1225 104.083 80.6166 101.33L82.7344 101.683L80.6166 101.33L82.5227 89.5409C82.7344 88.3408 82.5227 87.9172 82.5227 87.9172ZM76.4516 112.06C75.6751 112.06 74.8985 111.849 74.2632 111.354C73.3454 110.719 72.0042 109.166 72.5689 105.566L74.475 93.7765C75.1103 89.8939 77.7223 85.87 80.6166 84.3875C82.2403 83.5404 83.9345 83.5404 85.2052 84.4581C86.0524 85.0935 87.4642 86.6465 86.8995 90.2468L84.9934 102.036C84.3581 105.919 81.7461 109.943 78.8518 111.425C78.0752 111.849 77.2281 112.06 76.4516 112.06V112.06Z" fill="#0092FF"/>
<path fill-rule="evenodd" clip-rule="evenodd" d="M91.1402 80.7865C89.7284 81.916 87.8223 84.8104 87.3282 87.4224L84.6456 103.659C84.4338 104.859 84.6456 105.283 84.6456 105.283C86.0575 104.153 87.9635 101.329 88.4577 98.6468L91.1402 82.4102C91.352 81.2101 91.1402 80.7865 91.1402 80.7865ZM84.2926 109.448C83.5161 109.448 82.7396 109.236 82.1042 108.742C81.2571 108.106 79.8452 106.553 80.41 103.024L83.0925 86.787C83.7279 82.9044 86.3399 78.8805 89.2342 77.398C90.8579 76.5509 92.5521 76.5509 93.8228 77.4686C94.6699 78.104 96.0818 79.7276 95.5171 83.1867L92.8345 99.4233C92.1992 103.306 89.5872 107.33 86.6928 108.812C85.8457 109.236 85.0692 109.448 84.2926 109.448V109.448Z" fill="#0092FF"/>
<path fill-rule="evenodd" clip-rule="evenodd" d="M99.0378 77.7511C97.6259 78.8806 95.6493 81.7044 95.2258 84.3869L93.3197 96.1761C93.1079 97.3762 93.3197 97.7998 93.3197 97.7998C94.7316 96.6703 96.7082 93.8465 97.1318 91.164L99.0378 79.3748C99.2496 78.1747 99.0378 77.7511 99.0378 77.7511ZM92.9667 101.894C92.1196 101.894 91.4137 101.682 90.7077 101.188C89.8606 100.553 88.4487 98.9999 89.0135 95.3996L90.9195 83.6104C91.5549 79.7278 94.1668 75.7039 97.0612 74.1508C98.6848 73.3037 100.379 73.3037 101.65 74.2214C102.497 74.8568 103.909 76.4098 103.344 80.0101L101.438 91.7993C100.803 95.682 98.1907 99.7058 95.2963 101.188C94.5198 101.612 93.6727 101.824 92.8962 101.824L92.9667 101.894Z" fill="#0092FF"/>
<path fill-rule="evenodd" clip-rule="evenodd" d="M106.81 75.7044C105.398 76.8339 103.492 79.6576 102.998 82.3402L101.798 89.6114C101.586 90.8115 101.798 91.235 101.798 91.235C103.21 90.1055 105.116 87.3524 105.61 84.5992L106.81 77.2574C107.022 76.0573 106.81 75.6338 106.81 75.6338V75.7044ZM101.445 95.4001C100.668 95.4001 99.8919 95.1883 99.2566 94.6941C98.4094 94.0588 96.9976 92.5057 97.5623 88.976L98.7624 81.7048C99.3977 77.8222 102.01 73.7983 104.904 72.2453C106.528 71.3981 108.222 71.3981 109.493 72.3158C110.34 72.9512 111.752 74.5043 111.187 78.1046L109.987 85.4463C109.351 89.329 106.74 93.3528 103.845 94.8353C103.069 95.2589 102.221 95.4707 101.445 95.4707V95.4001Z" fill="#0092FF"/>
</svg>
