<svg width="42" height="42" viewBox="0 0 42 42" fill="none" xmlns="http://www.w3.org/2000/svg">
<path d="M35.8232 33.6626L35.8232 33.6625L35.8127 33.6641C32.5616 34.1567 27.1253 34.75 21 34.75C14.976 34.75 9.53881 34.157 6.18187 33.6633L6.17678 33.6626C4.60275 33.4377 3.33183 32.2402 3.02969 30.6753C2.64145 28.4396 2.25 25.1154 2.25 21C2.25 16.8846 2.64145 13.5604 3.02969 11.3247C3.33184 9.75981 4.60275 8.5623 6.17678 8.33744L6.17678 8.33748L6.18726 8.33589C9.43839 7.8433 14.8747 7.25 21 7.25C27.1234 7.25 32.4604 7.84292 35.8181 8.33671L35.8232 8.33744C37.3973 8.5623 38.6682 9.75987 38.9703 11.3248C39.3632 13.5854 39.8488 16.8982 39.85 20.9852C39.751 25.1108 39.3585 28.4399 38.9703 30.6752C38.6682 32.2401 37.3973 33.4377 35.8232 33.6626Z" stroke="white" stroke-width="2.5"/>
<path d="M17 28V14L29 21L17 28Z" fill="white"/>
</svg>
