<svg width="273" height="299" viewBox="0 0 273 299" fill="none" xmlns="http://www.w3.org/2000/svg">
<g clip-path="url(#clip0_995_248)">
<path fill-rule="evenodd" clip-rule="evenodd" d="M233.624 86.8863C232.476 86.8863 231.477 85.888 231.477 84.5939V14.5672C231.477 13.3101 232.439 12.2749 233.624 12.2749C234.994 12.2749 235.957 13.3101 235.957 14.5672V84.5939C235.957 85.888 234.994 86.8863 233.624 86.8863Z" fill="#0092FF"/>
<path fill-rule="evenodd" clip-rule="evenodd" d="M270.281 105.632C272.798 156.765 200.04 161.239 197.152 105.484L270.281 105.632Z" fill="#002298"/>
<path fill-rule="evenodd" clip-rule="evenodd" d="M199.486 107.776C201.818 133.398 220.036 144.231 236.55 143.344C252.064 142.531 268.171 131.106 267.986 107.924L199.486 107.776ZM234.624 147.929C216.185 147.929 196.413 134.951 194.857 105.632C194.857 105.003 195.043 104.375 195.45 103.931C196.042 103.487 196.598 103.229 197.19 103.229L270.318 103.376C271.466 103.376 272.466 104.338 272.651 105.521C274.021 132.067 255.582 146.931 236.772 147.892C235.994 147.929 235.402 147.966 234.624 147.966V147.929Z" fill="#0092FF"/>
<path fill-rule="evenodd" clip-rule="evenodd" d="M215.184 124.599C197.707 118.757 191.709 105.78 201.78 95.649C211.852 85.5184 234.586 82.0429 252.026 87.8846C269.688 93.7264 275.686 106.704 265.393 116.834C255.321 126.965 232.809 130.44 215.147 124.599H215.184Z" fill="#291AD8"/>
<path fill-rule="evenodd" clip-rule="evenodd" d="M215.963 122.454C232.848 128.037 254.36 124.784 263.876 115.245C267.357 111.732 268.727 107.813 267.949 103.931C266.579 98.2741 260.396 93.0979 251.25 90.0661C234.551 84.4832 213.038 87.6998 203.337 97.2758C199.857 100.788 198.487 104.707 199.449 108.59C200.819 114.283 207.003 119.46 215.926 122.454H215.963ZM233.44 129.701C227.034 129.701 220.629 128.74 214.63 126.78C203.967 123.231 196.783 116.945 195.043 109.625C193.895 104.227 195.635 98.6808 200.301 94.0592C210.965 83.411 234.44 79.6767 252.879 85.7403C263.543 89.2897 270.726 95.5751 272.466 102.896C273.614 108.294 271.874 113.84 267.246 118.461C260.062 125.634 246.881 129.701 233.477 129.701H233.44Z" fill="#0092FF"/>
<path fill-rule="evenodd" clip-rule="evenodd" d="M215.184 124.599C211.889 123.489 208.964 122.121 206.631 120.568C217.887 113.396 236.882 111.473 252.026 116.538C255.321 117.648 258.246 119.016 260.764 120.568C249.323 127.741 230.476 129.664 215.184 124.599Z" fill="#291AD8"/>
<path fill-rule="evenodd" clip-rule="evenodd" d="M215.962 122.454C228.774 126.706 244.88 125.856 256.137 120.569C254.581 119.866 253.026 119.238 251.286 118.683C238.475 114.431 222.368 115.282 211.334 120.569C212.704 121.271 214.444 121.9 215.999 122.454H215.962ZM233.809 129.738C227.219 129.738 220.628 128.777 214.592 126.78C211.112 125.634 208.002 124.192 205.262 122.491C204.669 122.085 204.299 121.345 204.299 120.569C204.299 119.792 204.706 119.053 205.262 118.646C217.48 110.919 237.068 109.144 252.804 114.357C256.1 115.503 259.21 116.945 261.913 118.646C262.69 119.053 263.061 119.792 263.061 120.569C263.061 121.345 262.69 122.085 261.913 122.491C254.359 127.261 244.066 129.738 233.772 129.738H233.809Z" fill="#0092FF"/>
<path fill-rule="evenodd" clip-rule="evenodd" d="M266.208 118.203C265.245 118.203 264.468 117.574 264.06 116.613L232.439 14.9371C232.032 13.717 232.81 12.46 233.995 12.0533C235.142 11.7205 236.512 12.349 236.92 13.5691L268.541 115.208C268.911 116.391 268.133 117.685 266.986 118.055C266.8 118.129 266.615 118.166 266.208 118.166V118.203Z" fill="#0092FF"/>
<path fill-rule="evenodd" clip-rule="evenodd" d="M198.707 113.84C198.522 113.84 198.337 113.803 198.114 113.729C196.744 113.322 196.189 111.991 196.744 110.808L230.513 13.495C230.92 12.3119 232.253 11.6834 233.438 12.0901C234.623 12.4968 235.364 13.7908 234.808 14.9739L201.04 112.324C200.669 113.285 199.67 113.84 198.707 113.84Z" fill="#0092FF"/>
<path fill-rule="evenodd" clip-rule="evenodd" d="M230.329 23.108C235.958 24.5869 241.771 21.2593 243.141 15.6024C244.696 9.98257 241.4 4.14085 235.772 2.62496C230.144 1.10907 224.331 4.4736 222.776 10.1305C221.221 15.7873 224.701 21.5921 230.329 23.108Z" fill="#002298"/>
<path fill-rule="evenodd" clip-rule="evenodd" d="M230.922 20.8897C235.18 22.0729 239.846 19.4478 241.03 15.011C242.178 10.5743 239.66 5.98964 235.217 4.8065C230.737 3.5864 226.109 6.24845 224.924 10.6852C223.776 15.1219 226.479 19.7066 230.922 20.8897ZM233.07 25.7332C231.922 25.7332 230.737 25.5853 229.589 25.2895C222.813 23.4409 218.74 16.379 220.666 9.53904C222.406 2.69905 229.404 -1.40494 236.365 0.443701C243.141 2.29235 247.214 9.35417 245.474 16.1942C243.919 21.9619 238.698 25.7332 233.07 25.7332Z" fill="#0092FF"/>
<path fill-rule="evenodd" clip-rule="evenodd" d="M39.7878 199.136C38.4178 199.136 37.4551 198.101 37.4551 196.844V126.817C37.4551 125.56 38.4178 124.525 39.7878 124.525C40.9356 124.525 42.1205 125.56 42.1205 126.817V196.844C42.1205 198.101 40.9726 199.136 39.7878 199.136Z" fill="#0092FF"/>
<path fill-rule="evenodd" clip-rule="evenodd" d="M76.2595 217.844C78.9625 268.978 6.01937 273.489 3.31641 217.733L76.2595 217.844Z" fill="#002298"/>
<path fill-rule="evenodd" clip-rule="evenodd" d="M5.64977 220.026C7.98247 245.611 26.4219 256.333 42.5286 255.557C58.228 254.743 74.3348 243.319 74.1496 220.137L5.64977 220.026ZM40.7513 260.178C22.1268 260.178 2.53951 247.201 0.984375 217.881C0.984375 217.253 1.16951 216.624 1.57681 216.181C1.9841 215.737 2.53951 215.478 3.31707 215.478L76.2602 215.589C77.6302 215.589 78.5929 216.55 78.5929 217.77C79.9629 244.28 61.7086 259.143 42.7138 260.141C42.1213 260.141 41.3438 260.178 40.7884 260.178H40.7513Z" fill="#0092FF"/>
<path fill-rule="evenodd" clip-rule="evenodd" d="M21.3483 236.811C3.87158 230.97 -2.31192 217.992 7.94454 207.862C18.0159 197.731 40.5283 194.256 58.1901 200.097C75.6668 205.939 81.6652 218.917 71.5939 229.047C61.4855 239.178 39.0102 242.653 21.3483 236.811Z" fill="#291AD8"/>
<path fill-rule="evenodd" clip-rule="evenodd" d="M39.7877 199.543C27.5688 199.543 15.9054 203.092 9.53672 209.489C6.05618 213.001 4.68619 216.92 5.64889 220.802C7.01888 226.496 13.0172 231.672 22.1259 234.667C39.0102 240.25 60.5599 237.033 70.0387 227.457C73.5193 223.945 74.8893 220.026 73.9266 216.144C72.7787 210.45 66.3731 205.274 57.4496 202.242C51.8215 200.393 45.8231 199.506 39.7877 199.506V199.543ZM39.6026 241.914C33.1969 241.914 26.6061 240.953 20.5707 238.993C9.90698 235.444 2.90889 229.158 1.16863 221.838C-0.201372 216.403 1.76106 210.857 6.38943 206.272C17.0532 195.587 40.5283 191.853 58.9677 197.953C69.6315 201.502 76.6295 207.751 78.3698 215.109C79.7398 220.507 77.7774 226.053 73.3342 230.674C65.9658 237.847 52.9693 241.914 39.5656 241.914H39.6026Z" fill="#0092FF"/>
<path fill-rule="evenodd" clip-rule="evenodd" d="M21.3477 236.811C18.0523 235.702 15.1272 234.371 12.6094 232.781C24.0507 225.609 42.8604 223.686 58.1896 228.751C61.485 229.861 64.4101 231.229 66.9279 232.781C55.4866 239.954 36.6769 241.877 21.3477 236.811Z" fill="#291AD8"/>
<path fill-rule="evenodd" clip-rule="evenodd" d="M17.4978 232.782C18.8678 233.484 20.608 234.113 22.1632 234.667C34.9745 238.919 51.0812 238.069 62.1152 232.782C60.7452 232.116 59.1901 231.451 57.4498 230.896C44.6385 226.644 28.5318 227.495 17.4978 232.782ZM39.825 241.951C33.4194 241.951 26.8286 240.953 20.608 238.956C17.3126 237.81 14.2024 236.368 11.4994 234.704C10.7218 234.261 10.3516 233.558 10.3516 232.782C10.3516 232.005 10.7218 231.266 11.4994 230.859C23.7183 223.132 43.3055 221.394 59.042 226.607C62.3374 227.753 65.4477 229.195 68.1506 230.859C68.7431 231.266 69.2985 232.005 69.2985 232.782C69.2985 233.558 68.706 234.298 68.1506 234.704C60.5971 239.474 50.3036 241.951 39.825 241.951Z" fill="#0092FF"/>
<path fill-rule="evenodd" clip-rule="evenodd" d="M72.4087 230.452C71.446 230.452 70.6684 229.824 70.2611 228.825L38.6401 127.187C38.2328 126.004 38.8252 124.71 40.1952 124.34C41.343 123.97 42.5279 124.636 42.8982 125.819L74.5192 227.457C74.8895 228.641 74.3341 229.935 73.1492 230.304C72.9641 230.378 72.7789 230.415 72.3716 230.415L72.4087 230.452Z" fill="#0092FF"/>
<path fill-rule="evenodd" clip-rule="evenodd" d="M4.87074 226.089C4.68561 226.089 4.46345 226.052 4.09318 225.941C2.94534 225.535 2.35291 224.241 2.72318 223.021L36.6769 125.708C37.0472 124.525 38.4172 123.859 39.602 124.303C40.7499 124.71 41.3423 126.041 40.972 127.224L7.01831 224.536C6.83317 225.461 5.87047 226.052 4.87074 226.052V226.089Z" fill="#0092FF"/>
<path fill-rule="evenodd" clip-rule="evenodd" d="M230.144 9.57596C229.181 9.09532 228.218 8.72559 227.219 9.24321L131.578 64.4068C133.318 63.5195 135.466 65.1832 136.429 66.5143C137.799 68.215 139.132 70.8401 138.576 73.0585C138.576 73.761 138.206 74.4265 137.614 74.8332L233.217 19.6326C234.18 19.0041 234.365 17.5991 234.365 16.5269C234.18 13.9757 232.44 10.944 230.292 9.61294L230.107 9.53899L230.144 9.57596Z" fill="#291AD8"/>
<path fill-rule="evenodd" clip-rule="evenodd" d="M136.984 63.8154C137.391 64.2221 137.947 64.5918 138.132 65.0355C139.28 66.3295 140.28 68.2152 140.835 70.2487L232.069 17.6732V16.6749C232.069 14.8263 230.514 12.497 228.959 11.5726L230.107 9.53913L228.959 11.5357C228.589 11.2769 228.182 11.2399 228.182 11.2399L136.984 63.8154ZM137.577 77.0517C136.799 77.0517 136.021 76.6819 135.651 75.9795C134.874 74.9442 135.281 73.5393 136.244 72.8737C136.651 71.3209 135.873 69.3983 134.688 67.9194C133.726 66.7732 132.763 66.2926 132.541 66.4035C131.393 66.9581 130.023 66.5144 129.431 65.4422C128.838 64.37 129.245 63.0389 130.393 62.4104L226.071 7.24681C227.626 6.4334 229.366 6.54432 231.329 7.57956L231.514 7.69048C234.217 9.39124 236.55 13.0516 236.735 16.4161C236.735 18.7454 235.957 20.631 234.402 21.5923L138.761 76.7929C138.391 77.0147 137.984 77.0887 137.614 77.0887L137.577 77.0517Z" fill="#0092FF"/>
<path fill-rule="evenodd" clip-rule="evenodd" d="M112.953 281.808C86.183 272.86 76.8522 253.006 92.4035 237.514C107.918 221.985 142.464 216.661 169.234 225.609C196.19 234.593 205.521 254.411 189.784 269.939C174.27 285.468 139.909 290.792 112.953 281.808Z" fill="#291AD8"/>
<path fill-rule="evenodd" clip-rule="evenodd" d="M141.094 223.538C122.284 223.538 104.03 229.121 93.9583 239.104C88.3302 244.798 86.1827 251.194 87.5527 257.553C89.7002 266.649 99.5864 274.931 113.731 279.663C139.909 288.352 173.307 283.287 188.229 268.313C194.042 262.619 196.19 256.259 194.635 249.863C192.487 240.768 182.786 232.486 168.642 227.753C159.903 224.869 150.387 223.501 141.094 223.501V223.538ZM140.909 288.426C131.207 288.426 121.321 286.984 112.398 283.989C96.291 278.702 85.8124 269.422 83.1094 258.626C81.3692 250.75 84.0721 242.69 90.8851 235.924C106.807 219.878 142.501 214.295 170.049 223.501C185.97 228.789 196.634 238.069 199.152 248.865C201.077 256.74 198.374 264.8 191.598 271.566C180.75 282.362 161.125 288.426 140.946 288.426H140.909Z" fill="#0092FF"/>
<path fill-rule="evenodd" clip-rule="evenodd" d="M197.153 254.706C197.153 257.221 197.338 264.874 197.153 266.907C195.227 280.513 179.898 289.091 168.05 292.825C146.722 299.591 116.619 298.113 97.9945 285.246C91.4037 280.624 85.3683 273.71 84.998 265.207V254.595C85.5905 260.548 87.9232 265.059 91.9961 269.459C104.993 283.139 129.653 287.243 147.685 285.985C163.199 284.913 184.156 279.182 193.487 265.576C195.82 262.064 196.782 258.921 197.19 254.743L197.153 254.706Z" fill="#291AD8"/>
<path fill-rule="evenodd" clip-rule="evenodd" d="M87.7016 267.832C89.0716 275.263 95.4773 280.661 99.3281 283.323C118.138 296.301 147.833 296.819 167.421 290.644C179.269 286.91 192.266 279.035 194.598 267.832C184.712 281.179 164.125 287.095 147.833 288.241C129.986 289.461 104.179 285.69 90.2194 271.011C89.2567 269.976 88.4792 268.904 87.7016 267.869V267.832ZM140.872 299C125.358 299 108.844 295.488 96.8102 287.095C91.7746 283.619 83.2213 276.151 82.6289 265.244V254.522C82.6289 253.301 83.5916 252.303 84.9616 252.229C86.1094 252.155 87.2943 253.08 87.2943 254.337C87.6646 259.587 89.627 263.617 93.5148 267.832C105.549 280.514 129.209 284.95 147.463 283.693C163.163 282.621 182.972 276.964 191.488 264.282C193.636 261.177 194.598 258.441 194.969 254.522C194.969 253.338 195.931 252.451 197.301 252.451C198.449 252.525 199.449 253.486 199.449 254.743V256.814C199.449 261.362 199.449 265.576 199.264 267.24C197.116 284.802 175.381 292.973 168.791 295.044C160.645 297.595 150.944 299.037 140.835 299.037L140.872 299Z" fill="#0092FF"/>
<path fill-rule="evenodd" clip-rule="evenodd" d="M122.431 263.469C104.584 257.554 98.549 244.428 108.842 234.15C119.136 223.871 141.833 220.359 159.68 226.311C177.527 232.227 183.563 245.389 173.269 255.631C162.976 265.909 140.278 269.422 122.431 263.506V263.469Z" fill="#291AD8"/>
<path fill-rule="evenodd" clip-rule="evenodd" d="M141.094 225.683C128.875 225.683 117.027 229.269 110.436 235.776C106.955 239.326 105.585 243.319 106.363 247.238C107.733 253.005 114.139 258.256 123.247 261.287C140.317 266.944 162.052 263.691 171.753 253.967C175.233 250.417 176.788 246.424 175.826 242.505C174.456 236.737 168.272 231.487 158.941 228.418C153.313 226.533 147.093 225.646 141.094 225.646V225.683ZM140.909 268.608C134.504 268.608 127.913 267.647 121.692 265.65C111.028 262.064 103.66 255.741 102.105 248.347C100.735 242.838 102.475 237.255 107.326 232.559C117.989 221.763 142.057 217.992 160.496 224.167C171.16 227.79 178.529 234.075 180.306 241.544C181.676 247.016 179.713 252.599 175.048 257.294C167.68 264.578 154.498 268.645 140.909 268.645V268.608Z" fill="#0092FF"/>
<path fill-rule="evenodd" clip-rule="evenodd" d="M178.12 245.537C178.12 247.238 178.305 252.266 178.12 253.597C176.972 262.582 166.864 268.276 158.903 270.753C144.722 275.189 124.949 274.228 112.731 265.724C108.25 262.656 104.177 258.108 103.992 252.488V245.426C104.362 249.382 105.732 252.377 108.658 255.261C117.211 264.319 133.503 267.018 145.536 266.205C155.83 265.503 169.604 261.694 175.602 252.71C177.343 250.381 177.935 248.31 178.12 245.537Z" fill="#291AD8"/>
<path fill-rule="evenodd" clip-rule="evenodd" d="M108.103 257.96C109.843 260.622 112.176 262.656 113.916 263.839C126.135 272.269 145.537 272.601 158.349 268.571C164.347 266.649 170.975 262.988 174.048 257.923C166.865 264.652 155.238 267.795 145.537 268.423C134.096 269.237 117.582 266.907 108.103 257.923V257.96ZM141.094 275.596C130.43 275.596 119.544 273.23 111.398 267.573C105.4 263.432 102.068 258.108 101.697 252.525V245.389C101.697 244.169 102.66 243.171 103.845 243.134C104.993 243.06 106.178 244.021 106.363 245.241C106.548 248.532 107.733 251.046 110.25 253.671C118.026 261.879 133.54 264.689 145.352 263.913C155.46 263.21 168.235 259.55 173.863 251.416C175.011 249.456 175.788 247.755 176.01 245.315C176.01 244.132 176.788 243.06 178.343 243.245C179.491 243.282 180.491 244.28 180.491 245.5V253.856C178.936 265.909 164.199 271.455 159.719 272.897C154.276 274.598 147.685 275.596 141.094 275.596Z" fill="#0092FF"/>
<path fill-rule="evenodd" clip-rule="evenodd" d="M145.908 247.94C146.87 247.386 147.833 246.461 147.833 245.241V74.4634C147.833 76.5708 145.315 77.68 143.39 78.0498C141.057 78.6044 137.392 78.3086 135.429 76.5339C134.837 75.9793 134.281 75.2768 134.281 74.4634V245.278C134.281 246.757 135.836 247.866 136.984 248.347C139.687 249.456 143.205 249.382 145.723 248.051L145.908 247.977V247.94Z" fill="#002298"/>
<path fill-rule="evenodd" clip-rule="evenodd" d="M144.759 246.055L145.906 247.977L144.759 246.018C145.351 245.611 145.536 245.278 145.721 245.204V79.7875C145.129 79.9723 144.573 80.1572 143.981 80.2681C141.833 80.7487 138.945 80.6748 136.613 79.7875V245.241C136.613 245.241 136.983 245.833 137.983 246.24C140.13 247.127 142.833 247.016 144.796 246.018L144.759 246.055ZM141.056 251.416C139.316 251.416 137.761 251.12 136.205 250.491C133.688 249.419 131.947 247.497 131.947 245.389V74.4634C131.947 73.2432 132.91 72.245 134.28 72.208C135.428 72.208 136.428 73.1323 136.613 74.3524C136.613 74.5373 136.798 74.7591 136.798 74.8331C138.353 76.0532 141.056 76.275 143.018 75.8683C144.573 75.5356 145.536 74.7591 145.721 74.3524C145.721 73.1693 146.684 72.208 147.869 72.208H148.054C149.202 72.208 150.202 73.2432 150.202 74.4634V245.278C150.202 247.164 149.054 248.791 147.091 249.937L146.906 250.011C145.351 250.935 143.203 251.379 141.093 251.379L141.056 251.416Z" fill="#0092FF"/>
<path fill-rule="evenodd" clip-rule="evenodd" d="M136.021 88.1435C147.277 91.1753 158.903 84.4832 162.014 73.2435C164.939 62.0037 158.311 50.4312 147.055 47.3994C135.799 44.4046 124.172 51.0597 121.062 62.2995C118.137 73.5392 124.765 85.1118 135.984 88.1066L136.021 88.1435Z" fill="#002298"/>
<path fill-rule="evenodd" clip-rule="evenodd" d="M141.649 48.9892C133.318 48.9892 125.727 54.5351 123.395 62.928C122.025 67.7715 122.802 72.8367 125.32 77.1995C127.838 81.5623 131.726 84.6681 136.576 85.9621C141.612 87.2931 146.647 86.5907 150.943 84.1135C155.423 81.5993 158.496 77.5323 159.681 72.6888C161.051 67.8084 160.459 62.7431 157.941 58.4173C155.423 54.0545 151.35 50.9488 146.499 49.6547C144.759 49.211 143.204 49.0262 141.649 49.0262V48.9892ZM141.649 91.1383C139.501 91.1383 137.576 90.8795 135.428 90.3619C129.43 88.7721 124.357 84.8899 121.247 79.4549C118.137 74.0568 117.359 67.7715 118.914 61.7449C122.21 49.322 135.021 41.8904 147.647 45.2549C153.646 46.8817 158.718 50.7269 161.829 56.125C164.939 61.523 165.716 67.8454 164.161 73.835C162.606 79.8616 158.718 84.8899 153.312 88.0326C149.61 90.1401 145.759 91.1753 141.686 91.1753L141.649 91.1383Z" fill="#0092FF"/>
<path fill-rule="evenodd" clip-rule="evenodd" d="M131.577 66.4034C130.615 65.9227 129.652 65.553 128.652 66.0706L33.0117 121.234C34.752 120.347 36.8996 122.011 37.8623 123.342C39.2322 125.042 40.3801 127.667 40.0098 129.886C40.0098 130.588 39.6395 131.254 39.0471 131.661L134.688 76.497C135.65 75.8684 135.836 74.4635 135.836 73.3912C135.65 70.8401 133.91 67.8083 131.577 66.4773V66.4034Z" fill="#291AD8"/>
<path fill-rule="evenodd" clip-rule="evenodd" d="M38.4548 120.643C38.8251 121.012 39.2324 121.456 39.6027 121.863C40.7505 123.12 41.7502 125.042 42.3056 127.076L133.503 74.4635V73.4652C133.503 71.6166 131.948 69.2873 130.393 68.363L131.541 66.3664L130.393 68.326C129.985 68.0672 129.615 68.0302 129.615 68.0302L38.4178 120.606L38.4548 120.643ZM39.0473 133.879C38.2697 133.879 37.4921 133.509 37.1219 132.807C36.3443 131.735 36.7516 130.367 37.7143 129.701C38.1216 128.185 37.344 126.189 36.1592 124.747C35.1965 123.601 34.2337 123.157 34.0116 123.268C32.8638 123.785 31.4938 123.379 30.9013 122.306C30.3089 121.197 30.7162 119.866 31.864 119.238L127.505 64.0741C129.06 63.2237 130.8 63.3716 132.725 64.3699L132.911 64.4808C135.614 66.1816 137.946 69.8788 138.168 73.2064C138.168 75.5357 137.391 77.4213 135.836 78.3826L40.1951 133.583C39.7878 133.805 39.4175 133.879 39.0102 133.879H39.0473Z" fill="#0092FF"/>
<path fill-rule="evenodd" clip-rule="evenodd" d="M36.3081 135.358C41.9362 136.874 47.7494 133.509 49.3045 127.852C50.8597 122.233 47.5643 116.391 41.9362 114.875C36.1229 113.359 30.3097 116.687 28.9397 122.343C27.3846 128 30.68 133.805 36.3081 135.321V135.358Z" fill="#002298"/>
<path fill-rule="evenodd" clip-rule="evenodd" d="M36.9005 133.139C41.3808 134.323 46.0091 131.698 47.194 127.261C48.3418 122.824 45.6389 118.239 41.1956 117.056C36.9375 115.873 32.2721 118.498 31.1243 122.935C29.9765 127.335 32.6794 131.919 36.9375 133.103L36.9005 133.139ZM39.0481 137.983C38.0854 137.983 36.9005 137.835 35.7527 137.539C28.9767 135.728 24.9038 128.666 26.644 121.789C28.5694 114.912 35.5675 110.845 42.5656 112.693C49.3416 114.542 53.4145 121.604 51.4891 128.481C49.934 134.212 44.8983 138.02 39.0851 138.02L39.0481 137.983Z" fill="#0092FF"/>
</g>
<defs>
<clipPath id="clip0_995_248">
<rect width="272" height="299" fill="white" transform="translate(0.761719)"/>
</clipPath>
</defs>
</svg>
