<svg width="233" height="274" viewBox="0 0 233 274" fill="none" xmlns="http://www.w3.org/2000/svg">
<g clip-path="url(#clip0_995_974)">
<path fill-rule="evenodd" clip-rule="evenodd" d="M198.932 2.64986L226.081 18.2843C226.081 18.2843 226.347 18.4168 226.48 18.483C228.471 19.6092 229.799 21.9942 229.931 25.439V40.411V148.66C229.799 152.237 228.471 156.079 226.48 159.524C224.355 163.234 221.368 166.414 218.116 168.335L41.0787 270.356C37.826 272.211 34.9053 272.41 32.7147 271.151C32.582 271.085 32.4492 271.019 32.3828 270.953L5.23319 255.318C2.97625 253.662 2.31245 251.277 2.17969 248.627V125.407C2.64435 117.854 7.35737 109.706 13.929 105.731L191.032 3.64358C193.621 2.25238 196.144 1.45741 198.932 2.64986Z" fill="#002298"/>
<path fill-rule="evenodd" clip-rule="evenodd" d="M196.209 4.10735C195.014 4.10735 193.687 4.57108 192.027 5.4323L14.9239 107.454C9.01604 111.031 4.56854 118.451 4.17026 125.539V248.627C4.3694 251.145 4.96682 252.602 6.42719 253.662L33.3777 269.164C35.3027 270.29 37.626 269.959 40.0158 268.568L217.119 166.48C219.907 164.89 222.695 161.909 224.753 158.464C226.678 155.152 227.806 151.641 227.939 148.461V25.4391C227.806 22.9879 226.943 21.133 225.483 20.2718L198.001 4.43859C197.404 4.1736 196.807 4.0411 196.143 4.0411L196.209 4.10735ZM35.7674 274C34.307 274 32.913 273.603 31.6518 272.94C31.6518 272.94 31.1871 272.675 31.1208 272.609L4.10388 257.041C0.784848 254.589 0.187423 251.343 -0.0117188 248.693V125.407C0.519326 116.861 5.63063 108.315 12.7333 103.942L189.969 1.85493C192.492 0.463735 195.877 -0.861217 199.727 0.728725C199.794 0.728725 199.86 0.794973 199.926 0.86122L227.076 16.4956C230.196 18.2843 231.789 21.3317 231.988 25.3066V40.0798C231.988 40.0798 231.988 40.2785 231.988 40.3448V148.593C231.789 152.436 230.462 156.676 228.271 160.518C225.881 164.691 222.629 168.07 219.177 170.058L42.0735 272.145C39.9494 273.404 37.7588 274.066 35.8338 274.066L35.7674 274Z" fill="#0092FF"/>
<path fill-rule="evenodd" clip-rule="evenodd" d="M29.2629 141.041L2.11328 125.407V140.379L29.2629 156.013V141.041Z" fill="#291AD8"/>
<path fill-rule="evenodd" clip-rule="evenodd" d="M4.17028 139.186L27.2043 152.502V142.233L4.17028 128.918V139.186ZM29.2621 158.067C28.9302 158.067 28.5319 158 28.2664 157.802L1.0504 142.101C0.452971 141.703 0.0546875 141.041 0.0546875 140.312V125.34C0.0546875 124.612 0.452971 123.949 1.0504 123.552C1.7142 123.22 2.44439 123.22 3.10819 123.552L30.2578 139.186C30.9216 139.517 31.2535 140.246 31.2535 140.975V155.947C31.2535 156.675 30.8553 157.338 30.2578 157.735C29.9923 157.934 29.594 158 29.2621 158V158.067Z" fill="#0092FF"/>
<path fill-rule="evenodd" clip-rule="evenodd" d="M226.081 18.2843L198.932 2.64985C196.409 1.39115 193.356 2.38486 191.032 3.64356L13.8626 105.731C7.29096 109.573 2.51156 117.854 2.11328 125.407L29.2629 141.041C29.5284 137.132 30.7233 133.555 32.7147 130.176C34.7725 126.665 37.5605 123.485 41.0787 121.366L218.182 19.278C220.439 18.0193 223.16 17.1581 225.683 18.0855L226.148 18.2843H226.081Z" fill="#291AD8"/>
<path fill-rule="evenodd" clip-rule="evenodd" d="M4.23604 124.28L27.602 137.729C28.1994 134.814 29.2615 131.899 30.921 129.116C33.3107 124.943 36.497 121.697 40.0151 119.577L217.118 17.5556C217.782 17.1581 218.446 16.8931 219.043 16.6281L197.868 4.43855C196.142 3.57733 193.686 4.5048 191.96 5.49851L14.9233 107.454C9.4801 110.7 5.16536 117.589 4.30242 124.28H4.23604ZM29.2615 143.095C28.9296 143.095 28.5313 142.962 28.2658 142.83L1.04977 127.195C0.385964 126.798 -0.012319 126.069 0.0540615 125.274C0.585106 116.861 5.82917 108.116 12.7991 103.942L189.969 1.85489C193.752 -0.198782 197.138 -0.53002 199.859 0.794932L227.142 16.4956C228.071 17.0256 228.403 18.218 227.938 19.2118C227.474 20.2055 226.279 20.603 225.283 20.2055L224.885 20.0067C223.093 19.3443 220.769 20.2055 219.176 21.1329L42.0729 123.088C39.2186 124.81 36.5634 127.593 34.5056 131.17C32.5805 134.483 31.5184 137.795 31.3193 141.174C31.3193 141.902 30.8546 142.498 30.2572 142.83C29.9253 142.962 29.5934 143.095 29.2615 143.095Z" fill="#0092FF"/>
<path fill-rule="evenodd" clip-rule="evenodd" d="M29.2629 156.013L2.11328 140.378C2.11328 176.417 2.11328 212.522 2.11328 248.627C2.31242 251.277 2.90985 253.662 5.16679 255.318L32.3164 270.952C30.0595 269.296 29.3957 266.911 29.2629 264.261C29.2629 228.156 29.2629 192.118 29.2629 156.013Z" fill="#291AD8"/>
<path fill-rule="evenodd" clip-rule="evenodd" d="M4.17028 143.89V248.627C4.36942 251.144 4.96685 252.602 6.42722 253.662L27.4035 265.719C27.4035 265.255 27.2707 264.791 27.2707 264.394V157.139L4.17028 143.823V143.89ZM32.382 273.006C32.0501 273.006 31.6518 272.94 31.3199 272.741L4.17028 257.107C0.851254 254.656 0.253829 251.409 0.0546875 248.76V140.379C0.0546875 139.65 0.452971 138.987 1.0504 138.59C1.7142 138.192 2.44439 138.192 3.10819 138.59L30.2578 154.224C30.9216 154.622 31.2535 155.218 31.2535 156.013V264.262C31.4527 266.779 32.1165 268.236 33.5105 269.296C34.3734 269.959 34.5726 271.151 33.9751 272.079C33.5769 272.675 32.9131 273.006 32.2492 273.006H32.382Z" fill="#0092FF"/>
<path fill-rule="evenodd" clip-rule="evenodd" d="M226.545 159.524C228.536 156.079 229.864 152.17 229.996 148.659L167.864 130.375L138.723 172.575C136.002 176.483 132.815 179.531 129.629 181.319C126.443 183.174 123.323 183.771 120.535 182.976L91.3939 174.363L29.2617 264.261C29.3945 267.64 30.7221 270.025 32.7135 271.217C34.8377 272.476 37.7584 272.277 41.0775 270.422L218.181 168.401C221.433 166.546 224.354 163.3 226.545 159.59V159.524Z" fill="#002298"/>
<path fill-rule="evenodd" clip-rule="evenodd" d="M31.3871 264.858C31.5862 267.044 32.4492 268.7 33.7768 269.429C35.3035 270.357 37.6269 270.025 40.0829 268.634L217.186 166.547C219.974 164.957 222.762 161.976 224.82 158.531C226.413 155.748 227.475 152.833 227.873 150.117L168.795 132.694L140.45 173.635C137.596 177.742 134.211 180.989 130.692 183.042C126.909 185.228 123.258 185.825 120.005 184.897L92.258 176.749L31.3871 264.858ZM35.8346 274.066C34.3742 274.066 32.9802 273.669 31.719 273.006C28.9974 271.417 27.4042 268.369 27.2715 264.394C27.2715 263.931 27.4042 263.533 27.6034 263.136L89.7356 173.238C90.2666 172.509 91.1296 172.178 91.9925 172.443L121.134 181.055C123.258 181.651 125.847 181.187 128.568 179.531C131.555 177.809 134.476 174.96 136.999 171.383L166.14 129.183C166.671 128.454 167.534 128.123 168.397 128.388L230.529 146.672C231.458 146.937 232.055 147.799 231.989 148.726C231.856 152.502 230.529 156.676 228.272 160.584C225.882 164.758 222.629 168.137 219.178 170.124L42.0743 272.145C39.9502 273.404 37.7596 274.066 35.8346 274.066Z" fill="#0092FF"/>
<path fill-rule="evenodd" clip-rule="evenodd" d="M29.2617 156.013V249.356V249.29V264.262L91.3939 174.364L82.8308 171.78L29.2617 156.013Z" fill="#002298"/>
<path fill-rule="evenodd" clip-rule="evenodd" d="M31.3207 249.025C31.3207 249.025 31.3207 249.224 31.3207 249.29V257.703L88.1424 175.49L31.3207 158.729V249.025ZM29.3293 266.315C29.3293 266.315 28.931 266.315 28.7319 266.183C27.8689 265.918 27.2715 265.123 27.2715 264.262V249.555C27.2715 249.555 27.2715 249.422 27.2715 249.29V155.947C27.2715 155.284 27.6034 154.688 28.1344 154.291C28.6655 153.893 29.3293 153.761 29.9267 153.959L92.0589 172.31C92.6563 172.509 93.1874 172.973 93.3865 173.569C93.5857 174.165 93.5193 174.894 93.121 175.424L30.9888 265.322C30.5905 265.918 29.9267 266.249 29.3293 266.249V266.315Z" fill="#0092FF"/>
<path fill-rule="evenodd" clip-rule="evenodd" d="M229.997 148.593V40.3447L176.428 117.854L167.799 130.309L229.997 148.593Z" fill="#002298"/>
<path fill-rule="evenodd" clip-rule="evenodd" d="M171.117 129.117L227.938 145.877V46.9033L171.117 129.117ZM229.996 150.647C229.996 150.647 229.598 150.647 229.399 150.581L167.266 132.296C166.669 132.098 166.138 131.634 165.939 131.038C165.74 130.442 165.806 129.713 166.204 129.183L228.337 39.2186C228.868 38.4899 229.797 38.1587 230.593 38.4237C231.456 38.6886 232.054 39.4836 232.054 40.3448V148.593C232.054 149.256 231.722 149.852 231.191 150.25C230.793 150.515 230.394 150.647 229.996 150.647Z" fill="#0092FF"/>
<path fill-rule="evenodd" clip-rule="evenodd" d="M218.181 19.278L41.0775 121.366C37.8248 123.22 34.9041 126.467 32.7135 130.176C30.7221 133.621 29.3945 137.53 29.2617 141.041V156.013C119.871 182.777 31.7842 156.742 120.535 182.976C123.257 183.771 126.443 183.108 129.629 181.32C132.815 179.465 136.002 176.484 138.723 172.575C232.121 37.3636 140.516 169.991 229.996 40.411V25.4391C229.864 22.0604 228.536 19.6755 226.545 18.4831C224.421 17.2244 221.433 17.4231 218.181 19.278Z" fill="#002298"/>
<path fill-rule="evenodd" clip-rule="evenodd" d="M31.3207 154.489L121.134 180.989C123.258 181.585 125.847 181.121 128.568 179.465C131.555 177.742 134.476 174.894 136.998 171.316C181.606 106.725 183.996 103.28 184.129 103.148L184.261 103.28C185.058 101.756 186.85 99.1727 190.169 94.4029L227.94 39.7487V25.4392C227.807 22.988 226.944 21.1331 225.484 20.2719C223.957 19.4107 221.634 19.6756 219.178 21.0668L42.0743 123.088C39.2863 124.678 36.4984 127.659 34.5069 131.17C32.5819 134.483 31.4534 137.994 31.3207 141.107V154.489ZM122.992 185.361C121.93 185.361 120.934 185.228 119.939 184.897L28.6654 158.001C27.8025 157.736 27.2051 156.941 27.2051 156.013V141.041C27.3378 137.199 28.6654 133.025 30.9224 129.117C33.3121 124.943 36.5647 121.564 40.0165 119.577L217.12 17.5557C220.903 15.3696 224.621 15.1046 227.475 16.7608C230.197 18.2844 231.79 21.3981 231.923 25.3729V40.4111C231.923 40.8086 231.79 41.2061 231.591 41.6036C189.837 102.021 187.514 105.4 187.448 105.533L187.249 105.4C186.386 106.99 184.527 109.706 181.009 114.807L140.318 173.701C137.463 177.809 134.078 181.055 130.56 183.108C127.904 184.632 125.316 185.427 122.926 185.427L122.992 185.361Z" fill="#0092FF"/>
<path fill-rule="evenodd" clip-rule="evenodd" d="M229.997 40.3447V25.439L135.603 161.975C133.811 164.559 131.687 166.546 129.629 167.805C127.571 168.997 125.447 169.461 123.655 168.931L29.3281 141.107V156.079C111.175 180.193 48.9768 161.843 120.601 183.042C123.323 183.837 126.509 183.174 129.696 181.386C132.882 179.531 136.068 176.55 138.79 172.641C232.187 37.4298 140.582 170.057 230.063 40.4772L229.997 40.3447Z" fill="#291AD8"/>
<path fill-rule="evenodd" clip-rule="evenodd" d="M31.3207 154.489L121.134 180.988C123.258 181.585 125.847 181.121 128.568 179.465C131.555 177.742 134.476 174.894 136.998 171.316C181.606 106.725 183.996 103.28 184.129 103.148L184.261 103.28C185.058 101.756 186.85 99.1727 190.169 94.4029L227.94 39.7486V31.9977L137.33 163.168C135.405 165.95 133.082 168.203 130.692 169.594C128.037 171.118 125.448 171.581 123.125 170.919L31.3871 143.824V154.489H31.3207ZM122.992 185.361C121.93 185.361 120.934 185.228 119.939 184.897L28.6654 158.001C27.8025 157.736 27.2051 156.941 27.2051 156.013V141.041C27.2051 140.379 27.537 139.782 28.068 139.385C28.5991 138.988 29.2629 138.855 29.8603 139.054L124.253 166.878C125.448 167.275 126.975 166.878 128.635 165.95C130.56 164.824 132.418 163.035 133.945 160.783L228.272 24.2467C228.803 23.518 229.666 23.1867 230.595 23.4517C231.458 23.7167 231.989 24.5117 231.989 25.4392V40.4111C231.989 40.8086 231.856 41.2061 231.657 41.6036C189.904 102.021 187.58 105.4 187.514 105.532L187.315 105.4C186.452 106.99 184.593 109.706 181.075 114.807L140.384 173.701C137.53 177.809 134.144 181.055 130.626 183.108C127.971 184.632 125.382 185.427 122.992 185.427V185.361Z" fill="#0092FF"/>
<path fill-rule="evenodd" clip-rule="evenodd" d="M31.8518 131.767L4.70212 116.066C3.24175 119.047 2.31242 122.028 2.11328 125.407L29.2629 141.041C29.4621 137.729 30.3914 134.748 31.8518 131.767Z" fill="#291AD8"/>
<path fill-rule="evenodd" clip-rule="evenodd" d="M4.23604 124.28L27.602 137.729C27.9339 136.006 28.4649 134.284 29.1951 132.561L5.56365 118.981C4.83346 120.769 4.3688 122.492 4.16966 124.28H4.23604ZM29.2615 143.095C28.9296 143.095 28.5313 142.962 28.2658 142.83L1.04977 127.195C0.385964 126.798 -0.0123191 126.069 0.0540615 125.274C0.253203 121.829 1.18253 118.649 2.84204 115.204C3.10757 114.674 3.57223 114.343 4.10327 114.145C4.63432 113.946 5.23174 114.012 5.69641 114.343L32.8461 130.044C33.7754 130.574 34.1073 131.766 33.6426 132.694C32.1822 135.675 31.3857 138.325 31.2529 141.24C31.2529 141.968 30.7883 142.565 30.1908 142.896C29.8589 143.028 29.527 143.161 29.1951 143.161L29.2615 143.095Z" fill="#0092FF"/>
</g>
<defs>
<clipPath id="clip0_995_974">
<rect width="232" height="274" fill="white" transform="translate(0.0546875)"/>
</clipPath>
</defs>
</svg>
