<svg width="42" height="42" viewBox="0 0 42 42" fill="none" xmlns="http://www.w3.org/2000/svg">
<path d="M21 7.06425C25.539 7.06425 26.0773 7.08125 27.8708 7.16342C32.4778 7.37308 34.6297 9.559 34.8394 14.132C34.9216 15.9241 34.9372 16.4624 34.9372 21.0014C34.9372 25.5418 34.9202 26.0787 34.8394 27.8708C34.6283 32.4396 32.4821 34.6297 27.8708 34.8394C26.0773 34.9216 25.5418 34.9386 21 34.9386C16.461 34.9386 15.9227 34.9216 14.1306 34.8394C9.51225 34.6283 7.37167 32.4325 7.162 27.8694C7.07983 26.0773 7.06283 25.5404 7.06283 21C7.06283 16.461 7.08125 15.9241 7.162 14.1306C7.37308 9.559 9.51933 7.37167 14.1306 7.162C15.9241 7.08125 16.461 7.06425 21 7.06425ZM21 4C16.3831 4 15.8051 4.01983 13.9917 4.102C7.81792 4.38533 4.38675 7.81083 4.10342 13.9903C4.01983 15.8051 4 16.3831 4 21C4 25.6169 4.01983 26.1963 4.102 28.0097C4.38533 34.1835 7.81083 37.6147 13.9903 37.898C15.8051 37.9802 16.3831 38 21 38C25.6169 38 26.1963 37.9802 28.0097 37.898C34.1778 37.6147 37.6175 34.1892 37.8966 28.0097C37.9802 26.1963 38 25.6169 38 21C38 16.3831 37.9802 15.8051 37.898 13.9917C37.6203 7.82358 34.1906 4.38675 28.0111 4.10342C26.1963 4.01983 25.6169 4 21 4ZM21 12.2705C16.1791 12.2705 12.2705 16.1791 12.2705 21C12.2705 25.8209 16.1791 29.7309 21 29.7309C25.8209 29.7309 29.7295 25.8223 29.7295 21C29.7295 16.1791 25.8209 12.2705 21 12.2705ZM21 26.6667C17.8706 26.6667 15.3333 24.1308 15.3333 21C15.3333 17.8706 17.8706 15.3333 21 15.3333C24.1294 15.3333 26.6667 17.8706 26.6667 21C26.6667 24.1308 24.1294 26.6667 21 26.6667ZM30.0752 9.88625C28.9475 9.88625 28.0337 10.8 28.0337 11.9262C28.0337 13.0525 28.9475 13.9662 30.0752 13.9662C31.2014 13.9662 32.1137 13.0525 32.1137 11.9262C32.1137 10.8 31.2014 9.88625 30.0752 9.88625Z" fill="white"/>
</svg>
