<svg fill="none" height="236" viewBox="0 0 296 236" width="296" xmlns="http://www.w3.org/2000/svg"><g clip-rule="evenodd" fill-rule="evenodd"><path d="m83 5.1c-9-3.7-16.4-2.6-25.2.7a83 83 0 0 0 -32.5 26.2c-9.6 12.7-16 25-20.3 40.3a70 70 0 0 0 -1.4 34 29.1 29.1 0 0 0 11 17.2l6.7 3.9 11.7 6.6 68-118.4-18-10.4z" fill="#291ad8"/><path d="m71.9 4.8c-4.4 0-8.7 1.1-13.4 2.8-11.6 5-21.4 13-31.6 25.6-9.6 12.7-15.8 25-20 39.6a67 67 0 0 0 -1.3 33c1.9 6.7 4.2 11.5 10.2 16l16.4 9.5 66.2-114.9-16.4-9.4c-3.6-1.5-7-2.1-10.2-2.1v-.1zm-39 131.2a2 2 0 0 1 -1-.2l-18.3-10.6a31 31 0 0 1 -12-18.4 72.4 72.4 0 0 1 1.4-34.8 119 119 0 0 1 20.7-41.1 85.7 85.7 0 0 1 33.3-27c7.9-3 16.5-5 26.8-.6l.1.1 18.2 10.6a2 2 0 0 1 .7 2.8l-68.2 118.2a2 2 0 0 1 -1.2 1h-.6z" fill="#0092ff"/><path d="m68.8 131.8a107 107 0 0 0 48.4-83.8c0-30.9-21.7-43.5-48.4-28a107 107 0 0 0 -48.4 83.8c0 30.9 21.7 43.4 48.4 28z" fill="#291ad8"/><path d="m90.4 15.4c-6.3 0-13.3 2.2-20.6 6.3a105 105 0 0 0 -47.4 82.1c0 14.2 4.7 24.7 13.2 29.6 8.5 4.8 20 3.7 32.2-3.4 26.1-15.1 47.4-51.9 47.4-82 0-14.2-4.7-24.7-13.2-29.6-3.4-2-7.3-3-11.6-3zm-43.3 125c-4.9 0-9.5-1.2-13.6-3.5-9.8-5.6-15.2-17.4-15.2-33 0-31.5 22.2-70 49.5-85.7 13.6-7.8 26.4-9 36.2-3.3 9.9 5.6 15.3 17.4 15.3 33 0 31.5-22.2 69.9-49.4 85.7-8 4.6-15.6 6.9-22.7 6.9z" fill="#0092ff"/><path d="m90.4 31.8-1.2-.6c-5-1.6-8.5-1.4-13.5-.1-9.8 3-17 9-23.8 16.5a82.2 82.2 0 0 0 -18.7 37 43.2 43.2 0 0 0 1.1 23.3c1.7 4.1 3.4 6.5 7 9.2l4.7 2.9 1.8 1c6.4 4.5 11 6.9 25.9-1.6 14.7-8.6 34.8-43.4 34.8-60.4 0-17.1-4.4-20-11.5-23.3l-6.5-3.8z" fill="#002298"/><path d="m82.6 32c-2 0-4 .5-6.4 1a51 51 0 0 0 -22.8 15.8 80.8 80.8 0 0 0 -18.2 36.2c-1.2 6.7-2 14.1.9 22.2 1.6 4 3.2 6 6.2 8.3l6.4 3.6c5.5 3.9 9.5 6.6 23.8-1.7 14.2-8.3 33.8-42.2 33.8-58.6 0-16.5-4.4-18.7-10.4-21.5l-7.6-4.3c-2.1-.7-4-1-5.8-1v.2zm-24.8 95c-4.3 0-7.5-1.8-11.2-4.4l-6.4-3.7c-4.3-3.2-6-6-7.7-10.2a45.5 45.5 0 0 1 -1.2-24.4c3-14 9.3-26.5 19.2-38a54.8 54.8 0 0 1 24.7-17c5.3-1.4 9.2-1.7 14.7 0l1.5.6.2.2 6.5 3.7c7.5 3.5 12.5 7.2 12.5 25 0 18-20.4 53.3-35.8 62.2a35 35 0 0 1 -16.8 6z" fill="#0092ff"/><path d="m121.2 215.4-30-23.8-38.4-72.6c-4.3-3.2-6-6.6-7.6-11.8a52.1 52.1 0 0 1 3-29.5 81.4 81.4 0 0 1 13.3-23.1c23.8-27.8 76.7-18.3 106.8-8.9 5 1.6 8.9 4.9 11.1 9.8l7 15.2c1.9 3.8 2.3 7.6 1.3 11.7l-5.8 26.6 32.1 73.3-33.7 18.8c.6 2.3-7.5 11.8-16.6 9.2-1.2 2-.4 6.3-10.7 6 .5 1.9-2 3.7-6.6 3.7l-21.4-3a7.6 7.6 0 0 1 -3.9-1.6l.1.1z" fill="#291ad8"/><path d="m92.8 190.3 29.6 23.6c1 .7 1.8 1 3 1.2l21.3 2.9c3 0 4.3-1 4.4-1.4a2 2 0 0 1 .4-1.7c.4-.5 1.2-.7 1.7-.7 6.8.2 7.4-1.6 8-3.3a8 8 0 0 1 .9-1.7c.4-.7 1.4-1 2.2-.9 3.8 1 7-.4 9.2-1.8 3.1-2 4.8-4.6 4.9-5.2-.3-.9 0-1.5 1-2l32-18-31.4-71.6a2 2 0 0 1 -.1-1.3l5.8-26.6c.8-3.7.5-7-1-10.4l-7.1-15.1c-2-4.4-5.4-7.3-10-8.7-18-5.7-78.8-21.8-104.5 8.2-5.7 7.2-9.6 14-13 22.5a49 49 0 0 0 -2.8 28.3c1.3 4.5 2.8 7.6 6.8 10.6l.6.7 38.1 72.3zm53.6 31.7-21.6-3a10 10 0 0 1 -4.9-2l-30-23.8-.5-.6-38.2-72.4a22 22 0 0 1 -7.9-12.5 53.3 53.3 0 0 1 3-30.7 83 83 0 0 1 13.7-23.7c27.4-32 90.3-15.4 109-9.5 5.5 1.7 9.8 5.5 12.3 10.8l7 15.2a19 19 0 0 1 1.4 13l-5.7 25.9 31.9 72.7c.4 1 0 2-.9 2.6l-32.8 18.3c-.4 2-2.2 4-3.1 4.8-1.6 1.7-7 6.5-14.2 5.4-1 2.8-3 5.5-10 5.7l-.7 1c-1.4 1.7-4.2 2.6-7.7 2.6v.2z" fill="#0092ff"/><path d="m208.5 184.7-19.1-15-14.7-22.7-12.8-12.8a32.3 32.3 0 0 1 -9.7-22.5l-.6-16-27.7-2.8-11 13.1c-3 3.6-7.3 5.5-11.8 4.2l-10.4-3.2a3 3 0 0 1 -2-2 3 3 0 0 1 .3-2.8l21.6-34a10 10 0 0 1 6.6-4.7l46-7.1c1-.2 2 .3 2.7 1l27.8 24.6c24.2 21.3 12.7 20.9 36.8 26.7 7.3 1.7 11.2 3.5 22.1 7.8 16.9 33.4-8.4 58-33.2 65.7 0 0-8.7 3.5-11 2.6z" fill="#002298"/><path d="m209.4 182.8c1.3.1 5.4-1.1 9.2-2.6 12.6-4 28.1-13.5 34.5-28.5a39.4 39.4 0 0 0 -2-33.7l-5.1-2c-6.7-2.7-10.3-4.1-16-5.5-15.4-3.6-16.8-5-22.1-11.3-2.7-3.2-6.8-8.1-15.5-15.8l-27.8-24.5c-.4-.3-.8-.6-1-.6l-46.1 7.2c-2.7.3-4.4 2.5-5.2 3.8l-21.6 34c-.2.3-.2.6-.1 1 .1.3.3.5.7.6l10.4 3.2c3.3 1 7-.3 9.7-3.5l11-13.1a2 2 0 0 1 1.7-.7l27.7 2.7c1 .1 1.8 1 1.8 2l.6 16.1c.3 8.3 3.3 15.2 9.2 21l12.8 12.8 14.7 22.8 18.5 14.5zm0 4a3.9 3.9 0 0 1 -2.2-.6l-19.2-15-.5-.5-14.5-22.7-12.5-12.5a34.5 34.5 0 0 1 -10.4-23.8l-.5-14.3-24.9-2.5-10.3 12.3c-3.7 4.5-9 6.3-14 4.8l-10.4-3.2a5.2 5.2 0 0 1 -2.8-7.7l21.5-34c2-3.2 4.8-5.1 8-5.7l46-7c2.3-.5 3.9 1 4.4 1.4l27.8 24.5c9 7.9 13.2 13 16 16.3 4.5 5.4 5.3 6.4 20 10 5.9 1.3 9.6 2.8 16.5 5.5l5.8 2.3c.5.2.8.6 1 1a44 44 0 0 1 2.5 37.8c-6.9 16.4-23.6 26.6-36.9 30.8a34.9 34.9 0 0 1 -10.5 2.8zm-45.7 25.5a44 44 0 0 1 -27.5-9.4 261 261 0 0 1 -22.3-23 2 2 0 0 1 .2-2.8 2 2 0 0 1 2.9.2 259 259 0 0 0 21.7 22.4 40 40 0 0 0 25 8.6c1.1 0 2 1 2 2 0 1.2-1 2-2 2zm16.6-9h-1c-8.5-.1-17.4-.2-25.5-7.3a749 749 0 0 1 -29.4-27.2 2 2 0 0 1 .2-2.9 2 2 0 0 1 2.9.2c3.7 4 22.2 21 29 26.9 7 6 14.7 6.2 23 6.3h.8c1 0 2 1 2 2 0 1.2-1 2-2.1 2zm20.7-10.3h-.3c-12-1.4-24.5-3.3-33.7-11.2a355 355 0 0 1 -26.7-25 2 2 0 0 1 .4-2.8 2 2 0 0 1 2.8.3c2.6 3.4 16.9 16.3 26.2 24.4 8.3 7.1 19.7 8.9 31.5 10.2a2 2 0 0 1 1.8 2.2 2 2 0 0 1 -2 1.8zm-48 25.3h-.2c-9.2-.9-20.7-2.8-28-9.1-5.8-5.2-15.5-14.4-18.7-17.9a2 2 0 0 1 .1-2.8 2 2 0 0 1 3 .1 349 349 0 0 0 18.4 17.6c6.3 5.5 17 7.2 25.7 8.1a2 2 0 0 1 1.8 2.3 2 2 0 0 1 -2 1.8z" fill="#0092ff"/><path d="m278 110.5-18.3-10.6a28.5 28.5 0 0 0 -18.2-1.5 63.4 63.4 0 0 0 -31 18.7c-12 12-21.7 28-27 43.9a89 89 0 0 0 -4.7 24c-.2 12.8 1.7 25.1 12.6 33.3l18.3 10.5 68.3-118.4z" fill="#291ad8"/><path d="m249 99.5c-2.2 0-4.5.3-7 .8a60.7 60.7 0 0 0 -25.6 14.1l-4.4 4.2a114.7 114.7 0 0 0 -26.5 43c-2.7 8-4.1 15.2-4.6 23.6-.2 10.3.9 23.3 11.7 31.4l16.3 9.5 66.4-114.9-16.6-9.6c-3.5-1.4-6.6-2-9.7-2zm-39.4 131.5c-.3 0-.7 0-1-.3l-18.3-10.5c-12.5-9.5-13.8-23.7-13.5-35a94 94 0 0 1 4.8-24.7 119 119 0 0 1 32-49c7.2-6 15.5-12 27.5-15a30.7 30.7 0 0 1 19.4 1.7l18.6 10.7c.5.2.8.7 1 1.2 0 .5 0 1.1-.3 1.6l-68.4 118.3c-.4.6-1 1-1.8 1v-.1z" fill="#0092ff"/><path d="m245.5 226.5c26.8-15.5 48.4-53 48.4-83.8 0-30.9-21.6-43.4-48.4-28a107.1 107.1 0 0 0 -48.4 83.9c0 30.8 21.7 43.4 48.4 28z" fill="#291ad8"/><path d="m267.1 110c-6.3 0-13.2 2.3-20.6 6.4a105 105 0 0 0 -47.4 82.1c0 14.2 4.7 24.7 13.2 29.6s19.9 3.7 32.1-3.4a105 105 0 0 0 47.4-82c0-14.2-4.6-24.7-13.2-29.6-3.4-2-7.3-3-11.6-3h.1zm-43.1 125.3a27 27 0 0 1 -13.6-3.5c-9.9-5.7-15.3-17.4-15.3-33.1 0-31.5 22.2-70 49.5-85.6 13.6-7.9 26.4-9 36.3-3.4 9.8 5.7 15.2 17.4 15.2 33.1 0 31.5-22.2 69.8-49.5 85.6-7.9 4.6-15.6 7-22.6 7z" fill="#0092ff"/><path d="m103.1 200.7-14.1-.4c-2.2 0-4-.7-5.6-2.2l-2.2-2c-2-1.7-3-4-3-6.5v-5.5l-1.1-.4a8.6 8.6 0 0 1 -4.5-2.9l-4-4.8a8.8 8.8 0 0 1 -2-5.2v-3.8l-1.5-.5a9.2 9.2 0 0 1 -5-4l-2.5-4.2a14.4 14.4 0 0 1 -2-8.8v-1.7a15.4 15.4 0 0 1 -9.1-14.5v-4.3l.6-9c.5-5 2.3-6.1 6.4-6.5 1.8 0 4 .1 5.7 1l2.2 1c2 .8 3 1.8 4.4 3.7 1.2 1.7 1.9 3.3 2 5.4l.2 1.3v4.3l2.7 1.2 2.9 2.6a10 10 0 0 1 3.6 8.1l-.2 8.2c1.2.6 2.3 1.2 3.5 2.2l3 2.3c2.4 2 4 5.8 3.8 9l-.3 10c3.4.2 5 1.4 8 3.9a9.7 9.7 0 0 1 3.7 6.5l1.3 8.5 3.2 8.1z" fill="#002298"/><path d="m54.6 115.4h-1c-3 .2-4 .5-4.5 4.6l-.6 13.1a13.4 13.4 0 0 0 8 12.7 2 2 0 0 1 1.2 2l-.1 1.7c-.2 2.8.4 5.2 1.8 7.6l2.5 4.2c1 1.5 2.2 2.5 4 3.1l1.4.5a2 2 0 0 1 1.3 1.9l.1 3.8a6 6 0 0 0 1.5 4l4 4.8c1 1.2 2 1.9 3.4 2.3l1.2.3c.9.3 1.5 1 1.5 2v5.5c0 2 .7 3.7 2.3 5l2.1 2a6.2 6.2 0 0 0 4.3 1.7l11.1.4-2.1-5.4-1.4-8.9a8.2 8.2 0 0 0 -3-5.2c-3-2.4-4.1-3.2-6.8-3.3a2 2 0 0 1 -2-2.2l.4-10.1c0-2.6-1.3-5.9-3.1-7.3l-2.9-2.3c-1.1-.9-2-1.4-3.3-2a2.1 2.1 0 0 1 -1.1-2l.2-8.1c0-2.6-.9-4.8-2.9-6.5l-2.7-2.3-2.4-1.2a2 2 0 0 1 -1.2-1.8l-.1-5.5c-.1-1.7-.7-3-1.7-4.3a7.9 7.9 0 0 0 -3.6-3.1l-2.3-1c-1-.5-2.4-.8-3.7-.8h.2zm48.6 87.3-14.2-.4c-2.6 0-5-1-6.9-2.7l-2.2-2a10.6 10.6 0 0 1 -3.5-8v-4c-2.1-.7-3.9-1.9-5.2-3.6l-4-4.8c-1.5-2-2.3-4-2.4-6.4l-.2-2.5c-2.7-1-4.6-2.6-6-5l-2.5-4a16.9 16.9 0 0 1 -2.5-10v-.4a17.5 17.5 0 0 1 -9-15.7v-4.3l.6-9.1c.6-6.5 3.5-8 8.2-8.4 2.4-.2 4.8.2 6.7 1l2.3 1.1c2.4 1.1 3.7 2.4 5.2 4.4 1.4 2 2.2 4 2.4 6.4l.2 1.3v3.3l1.5.6.5.4 3 2.5c2.8 2.5 4.3 6 4.1 9.7l-.2 6.9c1 .5 1.8 1 2.8 1.8l3 2.3a14 14 0 0 1 4.6 10.6l-.3 8.2c3 .6 4.7 2 7.2 4.1 2.5 2 4 4.6 4.5 7.8l1.2 8.4 3.1 7.8a2 2 0 0 1 -.2 2 2 2 0 0 1 -1.6.8h-.2z" fill="#0092ff"/><path d="m68 130.1c-1.5.2-2.6.3-3.6.6-2.3.5-5.4 1.3-6.8 3.3-1.5 2-1.7 10.9-1.9 13.7-.2-11.9-2.6-18.3 12.4-17.6z" fill="#291ad8"/><path d="m55.7 149.7c-1.1 0-2-1-2-2 0-1.3 0-2.7-.2-4-.2-5.5-.4-9.9 2.4-12.8 2.3-2.2 6-3 12.2-2.8 1 0 2 1 2 2s-.9 2-2 2a32 32 0 0 0 -3.3.5c-1.1.2-4.4.9-5.7 2.6a44 44 0 0 0 -1.4 12.6c0 1-1 1.8-2 1.8z" fill="#0092ff"/><path d="m76.9 150.2c-3.3.3-7.3 1.4-8.8 4.2-1 2-1.2 9.8-1.5 12.5-.3-8.6-2.7-17.4 10.3-16.7z" fill="#291ad8"/><path d="m66.6 168.9c-1.1 0-2-.9-2-2l-.2-3c-.3-4.8-.6-9.8 2.5-13 2-2 5.4-3 10.1-2.8 1 0 2 1 2 2s-.9 2-2 2.1c-3.7.4-6.3 1.5-7.2 3.2-.5 1-.8 6.2-1 8.8a26 26 0 0 1 -.3 3 2 2 0 0 1 -2 1.8z" fill="#0092ff"/><path d="m86.7 173.8c-7.9.5-7.9 3.8-8.4 10.5-.2-8.1-1-10.9 8.4-10.5z" fill="#291ad8"/><path d="m78.3 186c-1 0-2-.6-2-1.7v-1.5c-.1-4.1-.2-7.1 1.8-9 1.6-1.7 4-2.3 8.7-2 1.1 0 2 .9 2 2a2 2 0 0 1 -1.9 2c-6 .4-6 1.8-6.5 8.1v.3c-.2 1-1 1.8-2 1.8z" fill="#0092ff"/><path d="m121.5 86.2c.6 1.7 3 6-.3 10 2.5-2.5 4.7-2.9 7.5-2.9-4.2-1-5.5-4.6-7.1-7z" fill="#291ad8"/><path d="m121.1 98.3a2 2 0 0 1 -1.5-3.4c2-2.4 1.2-5 .3-7.4l-.3-.6c-.3-1 0-2 1-2.5s2-.2 2.6.6l1 1.7c1.2 2 2.4 4 5 4.6a2 2 0 0 1 1.4 2.2 2 2 0 0 1 -2 1.8c-2.5.2-4.1.3-6 2.3-.3.4-.9.6-1.4.6z" fill="#0092ff"/><path d="m158.3 92.2c-2.8 1.5-3.8 2.5-11 3 5.8.6 3.8 2.6 4.6 6.1.2-5.6 3.4-6.6 6.5-9.1z" fill="#291ad8"/><path d="m151.8 103.3a2 2 0 0 1 -2-1.7c-.2-1-.2-1.9-.2-2.7v-1.1s-.5-.4-2.6-.6a2 2 0 0 1 0-4c6-.5 7.4-1.1 9.4-2.3l1-.5c1-.5 2-.2 2.6.6.6.9.5 2-.3 2.7l-2 1.6c-2.4 1.7-3.7 2.7-3.8 6 0 1-.9 2-1.9 2z" fill="#0092ff"/></g></svg>