<svg fill="none" viewBox="0 0 196 302" xmlns="http://www.w3.org/2000/svg"><g clip-rule="evenodd" fill-rule="evenodd"><path d="m62 99.4-36.2 21a23.1 23.1 0 0 0 -10.4 18v141.9c0 7.7 5.4 10.8 12 7l34.5-20v-168z" fill="#002298"/><path d="m59.7 103.4-32.7 19a21 21 0 0 0 -9.3 16v141.9c0 2.8.8 5 2.4 5.8 1.5 1 3.7.6 6.2-.8l33.4-19.4zm-37.7 187.6c-1.5 0-3-.4-4.2-1-3-1.8-4.6-5.3-4.6-9.8v-142c0-7.4 5-16.2 11.5-20l36.1-20.8c.8-.4 1.6-.4 2.3 0 .6.4 1.1 1.1 1.1 2v167.7c0 .8-.4 1.5-1.1 2l-34.5 20a13 13 0 0 1 -6.5 2z" fill="#0092ff"/><path d="m193.8 193v-6.9c0-35.7-.1-171.4-.7-172.6-1.6-3.5-5.5-4.3-9.6-2l-131.5 76.4a23.1 23.1 0 0 0 -10.4 18v175.5l-4.8 16.4 145-83.8c3.3-2 6.1-5 8.5-9 2.3-4 3.5-8.1 3.5-11.9z" fill="#002298"/><path d="m188 12.4c-1 0-2.2.4-3.4 1l-131.6 76.4a21 21 0 0 0 -9.3 16.1v175.5l-.1.6-3.2 11.2 140.3-81.2a22 22 0 0 0 7.7-8.2c2-3.7 3.2-7.4 3.2-10.8v-6.9c0-61-.3-164.9-.7-172a3 3 0 0 0 -1.7-1.5l-1.1-.1v-.1zm-151.1 287.6a2 2 0 0 1 -1.3-.5c-.8-.6-1-1.5-.8-2.4l4.6-16.2v-175c0-7.5 5.1-16.3 11.6-20l131.3-76.4c2.9-1.6 5.8-2.1 8.2-1.3 2 .7 3.6 2.1 4.6 4.2.2.7.8 1.8.9 173.6v6.9c0 4.2-1.2 8.6-3.8 13a26.5 26.5 0 0 1 -9.3 9.8l-145 84-1 .2z" fill="#0092ff"/><path d="m28 119.1v148c0 3 .4 17.4-5.5 15.5-6.8-2.2-7.2-16.6-7.2-22.7v-121.5c0-8.4 5.6-15.3 12.5-19.3h.1zm0-15.2-15.4 8.8a23 23 0 0 0 -10.3 18v130.3c0 14 7 28.9 19.3 36 7.8 4.5 14.8 3.2 18-2.6 2.6-4.5 1.9-10.4 1.9-15.4v-173.2a23 23 0 0 1 10.5-18l131.5-76.2c2.6-1.3 4.1-1.8 7-.9l-13.7-8c-2.8-.9-4.4-.5-7 1l-131.5 76a23 23 0 0 0 -10.4 18v6z" fill="#291ad8"/><path d="m25.7 123.4a19 19 0 0 0 -8 15v121.5c0 16.4 3.4 20 5.4 20.6 1.2-.4 2.6-2.6 2.5-12.7v-144.4zm-2.2 161.6c-.5 0-1.1 0-1.8-.2-5.8-2-8.6-10-8.6-25v-121.4c0-8.3 5.1-16.3 13.6-21.2.7-.3 1.6-.3 2.3 0 .7.4 1 1.2 1 2v148.5c0 6.7-.3 13.8-3.7 16.4a5 5 0 0 1 -2.8 1zm150.5-280.6 1.6.3 7.7 4.5-1 .5-131.6 76.2a25.2 25.2 0 0 0 -11.4 20v175.8c0 4.2.2 8.4-1.6 11.6-1.1 2-2.7 3.3-4.8 3.9-3 .8-6.5 0-10.3-2a40 40 0 0 1 -18.1-34.2v-130.1c.3-6.5 3.9-12.7 9.3-16.2l15.3-8.9c.7-.3 1.1-1.1 1.1-2v-5.8a21 21 0 0 1 9.3-16.3l131.4-76c1.5-.9 2.4-1.3 3.2-1.3zm-143.5 297.6c-3.2 0-6.6-1-10-3a44.5 44.5 0 0 1 -20.5-38v-130.2c.4-8.1 4.8-15.7 11.5-20l14.2-8.2v-4.6c.3-8.2 4.7-15.7 11.4-20l131.6-76.3c2.8-1.6 5-2.3 8.7-1l14 8c1.1.6 1.5 1.9 1 2.9-.4 1-1.6 1.6-2.7 1.2-2-.6-2.7-.4-5.3.8l-131.3 76.1a21 21 0 0 0 -9.3 16.2v175.7c0 4.5.2 9.7-2.2 13.9-1.6 3-4.2 5.1-7.4 6-1.2.3-2.4.5-3.7.5z" fill="#0092ff"/><path d="m69.8 163.3 44.7-26c1-.7 2-.1 2 1.2v29c0 1.3-1 2.9-2 3.5l-44.7 26c-1.1.6-2 0-2-1.2v-29c0-1.3.9-3 2-3.5z" fill="#002298"/><path d="m114.3 140-43.3 25.4c-.4.2-1 1-1 1.6v27.4l43.5-25.2c.5-.2 1-1 1-1.6v-27.4zm-45.3 59.7a3 3 0 0 1 -1.6-.5c-1-.6-1.7-1.8-1.7-3.3v-29c0-2 1.3-4.4 3.1-5.4l44.8-26c1.3-.7 2.6-.7 3.7 0 1 .6 1.7 1.8 1.7 3.2v29c0 2.1-1.3 4.4-3.1 5.5l-44.9 25.8c-.7.3-1.4.6-2 .6h-.1zm4-55.1c-1.3 0-2.3-1-2.3-2.3l.2-26.2c0-3 1.6-5.3 4-5.8 1.8-.5 3.6.5 4.4 2.3l8.9 19.4s.2-.5.1-.6l.3-27.2c0-1.2 1-2.2 2.2-2.2 1.3 0 2.3 1 2.2 2.3l-.3 27c.1 2.3-1.5 5.3-4 6-.6 0-3 .4-4.4-2.7l-8.9-19.4-.1 1-.2 26.2c0 1.2-1 2.3-2.2 2.3v-.1zm26.6-14.7c-.6 0-1.2-.2-1.7-.5-1.1-.6-1.8-1.8-1.8-3.3v-23.8c0-2.2 1.4-4.5 3.2-5.5l13-7.5c1-.6 2.4-.2 3 .8.5 1.1.2 2.4-.8 3.1l-12.9 7.5c-.4.2-1 1-1 1.6v7.5l7.8-4.4c1-.7 2.4-.3 3 .8.6 1 .2 2.5-.8 3l-10 5.8v9.6l11.8-6.8c1-.7 2.4-.3 3 .8.7 1.1.3 2.4-.8 3l-13 7.7c-.7.3-1.4.6-2 .6zm25.8-14.8-1-.1c-1.1-.4-2-1.3-2.3-2.5l-4.1-24.5c-.3-1.2.5-2.4 1.7-2.5 1.3-.3 2.4.6 2.7 1.8l3.6 21.7 3.4-21.3c.1-1 1-1.8 2.1-1.9 1 0 2 .6 2.3 1.6l4.4 15 .1-.4 3.2-29a2.3 2.3 0 0 1 2.4-2c1.3 0 2.1 1.2 2 2.4l-3.2 29.4c-.4 1.6-1 2.9-2.1 3.8-1.2 1.1-2.6 1.6-3.9 1.2-1-.3-2-1.2-2.2-2.3l-2.1-7.3-2 11.8a7 7 0 0 1 -2.2 3.9c-.8.7-1.8 1.1-2.8 1.1l-.1.1zm25.3-14.5c-.8 0-1.6-.5-2-1.1-.6-1.1-.2-2.5.9-3l14.4-8.6c.4-.2.9-1 .9-1.6v-9l-11 6.4c-1.3.7-2.7.8-3.8.2-1-.7-1.7-1.9-1.7-3.3v-8.6c0-2.2 1.3-4.5 3.1-5.5l14.5-8.5c1.1-.6 2.4-.3 3 .8s.4 2.5-.7 3l-14.4 8.6c-.5.2-1 1-1 1.6v7l11-6.3c1.3-.8 2.7-.8 3.8-.2 1 .7 1.7 1.8 1.7 3.3v10.5c0 2.1-1.3 4.4-3.1 5.5l-14.4 8.5-1 .3-.1-.1z" fill="#0092ff"/><path d="m116.6 151v16.6c0 1.3-.9 2.8-2 3.4l-44.6 26c-1 .7-2 0-2-1.2v-7.8l7.3-10.5h16.7c.9 0 1.8-.8 2.5-1.8l17-24.4 5.2-.3z" fill="#291ad8"/><path d="m70 188.8v5.5l43.4-25.2c.5-.3 1-1 1-1.6v-14h-1.8l-16.3 23.5c-1.2 1.7-2.8 2.7-4.4 2.7h-15.6l-6.2 9h-.1zm-1.1 10.8c-.6 0-1.2-.2-1.7-.5-1-.6-1.6-1.8-1.6-3.3v-7.8l.3-1.3 7.3-10.5c.4-.6 1-1 1.8-1h16.8s.4-.2.7-.8l17-24.4c.5-.6 1-.9 1.7-1l5.2-.3c.6 0 1.3.1 1.7.6.4.4.7 1 .7 1.6v16.5c0 2.2-1.3 4.4-3 5.5l-44.9 26c-.7.4-1.4.6-2 .6z" fill="#0092ff"/><path d="m46.1 93.3v-.3c2-2.3 3.4-3.8 6-5.4l131.4-76.1c2.6-1.3 4.1-1.8 7-.9l-13.7-8c-2.8-.9-4.3-.3-7 1l-131.5 76.1c-2.5 1.7-4 3-5.8 5.4v.2l13.5 8z" fill="#002298"/><path d="m35.8 84.7 9.8 5.7c1.4-1.8 3-3.1 5.2-4.6l131.5-76.2 1-.5-7.6-4.4c-1.6-.6-2.4-.3-5 1l-131.2 76c-1.5 1-2.6 1.8-3.6 3zm10.2 10.8s-.7 0-1-.3l-13.7-8a2.2 2.2 0 0 1 -.7-3.1c2-2.6 3.6-4.3 6.5-6.2l131.6-76.2c3-1.4 5-2.2 8.8-1l14 8c1 .6 1.4 1.9 1 2.9-.5 1-1.7 1.6-2.8 1.2-2-.6-2.7-.4-5.3.8l-131.3 76.1a18.1 18.1 0 0 0 -5.1 4.8c-.5.6-1.3 1-2 1z" fill="#0092ff"/><path d="m28 103.9-15.4 8.8a21 21 0 0 0 -7.7 8.5l13.2 7.6c1.9-3.4 4.4-6.5 7.7-8.5l2.1-1.3v-15.2z" fill="#002298"/><path d="m8 120.4 9.4 5.4c2.1-3.4 4.5-5.8 7.4-7.4l1-.6v-10l-12 6.8a19.4 19.4 0 0 0 -5.7 5.7zm10.2 10.6a2 2 0 0 1 -1-.3l-13.2-7.6c-1-.5-1.5-2-.8-3 2.2-4.1 4.7-7 8.4-9.3l15.3-9a2 2 0 0 1 2.3 0c.6.5 1 1.3 1 2v15.3c0 .8-.4 1.6-1 2l-2.1 1.2c-2.7 1.5-5 4-7 7.6-.2.5-.7.9-1.3 1.1h-.8zm112.2 4c-.8 0-1.6-.4-2-1.1-.6-1.1-.2-2.4.8-3.1l38.4-22.3c1-.5 2.5-.3 3 .8.6 1.1.3 2.4-.8 3.1l-38.3 22.3zm0 24.5c-.8 0-1.6-.4-2-1.1-.6-1.1-.2-2.5.8-3l38.4-22.3c1-.7 2.5-.3 3 .8.6 1 .3 2.4-.8 3l-38.3 22.3zm-60.3 60.9c-.8 0-1.5-.5-2-1.1-.5-1.1-.2-2.5.9-3l98.6-57.3c1-.6 2.5-.2 3 .8.6 1 .3 2.5-.8 3l-98.6 57.2-1.1.3zm0 26c-.8 0-1.5-.4-2-1.1-.5-1.1-.2-2.5.9-3.1l98.6-57.2c1-.5 2.5-.3 3 .8.6 1.1.3 2.5-.8 3.1l-98.6 57.2z" fill="#0092ff"/></g></svg>