<svg fill="none" height="300" viewBox="0 0 202 300" width="202" xmlns="http://www.w3.org/2000/svg" xmlns:xlink="http://www.w3.org/1999/xlink"><clipPath id="a"><path d="m0 0h201.8v300h-201.8z"/></clipPath><g clip-path="url(#a)" clip-rule="evenodd" fill-rule="evenodd"><path d="m189.8 36.6-35.4-14.3-24.8-20.3-117.6 67.9 60.3 34.7 117.6-68z" fill="#002298"/><path d="m15.7 69.9 56.5 32.6 113.3-65.6-31.8-12.8-.5-.3-23.8-19.6zm56.5 36.6c-.3 0-.7 0-1-.2l-60.2-34.8c-.6-.3-1-1-1-1.6a2 2 0 0 1 1-1.7l117.7-68a2 2 0 0 1 2.1.2l24.6 20.3 35.2 14.2c.6.3 1 1 1.1 1.6a2 2 0 0 1 -1 1.8l-117.6 68-1 .2z" fill="#0092ff"/><path d="m139.7 183.7-10-181.7-117.8 68-9.9 193.4 137.8-79.7z" fill="#002298"/><path d="m13.7 71-9.7 189 133.8-77.4-9.8-177.6zm-11.7 194.2a2 2 0 0 1 -1-.2c-.6-.4-1-1-.9-1.7l9.9-193.5c0-.7.4-1.2 1-1.6l117.7-68a2 2 0 0 1 1.8 0c.6.3 1 1 1 1.6l10 181.9c.1.7-.2 1.3-.8 1.7l-137.9 79.6a2 2 0 0 1 -1 .3z" fill="#0092ff"/><path d="m72.2 104.6-24.9-20.4-35.3-14.3-10 193.5 60 34.6 10-193.5z" fill="#291ad8"/><path d="m3.8 262.3 56.5 32.7 9.9-189.5-23.9-19.7-32.6-13.2-10 189.7zm58.2 37.7c-.3 0-.7 0-1-.3l-60-34.7c-.6-.3-1-1-.9-1.7l9.9-193.5c0-.6.4-1.2 1-1.5a2 2 0 0 1 1.6-.2l35.4 14.3.5.3 24.8 20.4c.5.4.8 1 .7 1.6l-10 193.5a2 2 0 0 1 -1 1.6l-.9.2z" fill="#0092ff"/><path d="m200 218.5-10.3-181.9-117.6 68-10.1 193.5 137.8-79.6z" fill="#002298"/><path d="m74 105.8-9.9 189 133.9-77.3-10-177.6zm-12 194.2c-.3 0-.6 0-1-.2a2 2 0 0 1 -.8-1.7l10-193.5c0-.7.4-1.3 1-1.6l117.7-68a2 2 0 0 1 2.8 1.6l10 181.8c.2.7-.2 1.4-.9 1.8l-137.8 79.6-.9.3z" fill="#0092ff"/><path d="m115.6 174.8c-3.6 0-7-.8-10-2.5-7-4.1-11-12.6-11-24v-31c0-1 .9-1.8 2-1.8 1 0 1.8.8 1.8 1.9v31c0 9.9 3.2 17.2 9.2 20.6 5.9 3.5 13.8 2.6 22.4-2.4a74.3 74.3 0 0 0 33.5-58v-31c0-1 .9-2 2-2 1 0 1.8 1 1.8 2v31c0 22.5-15.9 50-35.4 61.3a33 33 0 0 1 -16.3 5z" fill="#0092ff"/><path d="m189.8 36.6-35.4-14.3-24.8-20.3 3.7 67.4 56.5-32.7z" fill="#291ad8"/><g fill="#0092ff"><path d="m131.8 6 3.3 60 50.4-29-31.8-13-.5-.2-21.5-17.8zm1.6 65.2-1-.3c-.5-.3-.8-.9-.9-1.5l-3.7-67.4a2 2 0 0 1 1-1.8 2 2 0 0 1 2 .2l24.7 20.3 35 14.2c.7.3 1.2 1 1.3 1.6a2 2 0 0 1 -1 1.8l-56.5 32.6a2 2 0 0 1 -1 .3z"/><path d="m189.8 38.5h-.7l-35.9-14.7-24.8-20.4a1.9 1.9 0 0 1 2.4-3l24.6 20.3 35.1 14.2c1 .4 1.5 1.5 1 2.5-.2.7-1 1.2-1.7 1.2z"/><path d="m12 71.7a2 2 0 0 1 -1.7-.9c-.5-.9-.2-2 .7-2.6l117.7-68c.9-.5 2-.2 2.5.7.6 1 .3 2.1-.6 2.6l-117.7 68a2 2 0 0 1 -1 .2z"/></g></g></svg>