<svg width="210" height="63" viewBox="0 0 210 63" fill="none" xmlns="http://www.w3.org/2000/svg">
<g clip-path="url(#clip0_676_932)">
<path d="M19.19 0L53.19 29.8H38.01L19.19 13.3V0ZM19.19 49.03V62.33L53.18 32.53H38L19.19 49.03ZM11.73 17.41L16.46 13.28V0L1.48 13.08L11.73 17.41ZM10 19.65L0 15.43V47.04L10.01 42.82V19.65H10ZM1.58 49.34L16.46 62.34V49.06L11.83 45.02L1.58 49.34Z" fill="url(#paint0_linear_676_932)"/>
<path d="M205 32.5302L210 37.5002V48.9402H205V32.5302ZM187.89 35.3002L165.75 13.1602V48.9402H170.75V25.2402L187.88 42.3702L203.5 26.8102L209.99 20.3202V13.2802L187.88 35.3102L187.89 35.3002ZM134.01 22.4402L124.94 13.3702H117.86L126.93 22.4402H134.01V22.4402ZM153.62 13.3702L141.72 25.2702L134.05 32.9402L118.06 48.9302H125.14L139.28 34.7902L153.42 48.9302H160.5L142.82 31.2502L160.7 13.3702H153.62V13.3702ZM99.7198 13.4002H78.0498V13.4302L83.0498 18.4302V18.4002H99.7098C106.75 18.4002 112.47 24.1202 112.47 31.1602C112.47 38.2002 106.75 43.9202 99.7098 43.9202H83.0498V31.2402L78.0498 31.1802V48.9202H99.7198C109.51 48.9202 117.48 40.9502 117.48 31.1602C117.48 21.3702 109.51 13.4002 99.7198 13.4002V13.4002Z" fill="white"/>
</g>
<defs>
<linearGradient id="paint0_linear_676_932" x1="26.595" y1="0" x2="26.595" y2="62.34" gradientUnits="userSpaceOnUse">
<stop stop-color="#FF334B"/>
<stop offset="1" stop-color="#2B1CE5"/>
</linearGradient>
<clipPath id="clip0_676_932">
<rect width="210" height="62.34" fill="white"/>
</clipPath>
</defs>
</svg>

